<svg xmlns="http://www.w3.org/2000/svg" version="1.1" xmlns:xlink="http://www.w3.org/1999/xlink" xmlns:svgjs="http://svgjs.dev/svgjs" width="128" height="128" viewBox="0 0 128 128"><g transform="matrix(0.569060773480663,0,0,0.569060773480663,27.73967446518074,12.760752631578946)"><svg viewBox="0 0 67 95" data-background-color="#f7c47c" preserveAspectRatio="xMidYMid meet" height="181" width="128" xmlns="http://www.w3.org/2000/svg" xmlns:xlink="http://www.w3.org/1999/xlink"><g id="tight-bounds" transform="matrix(1,0,0,1,-0.14677125601083674,-0.24049999999999727)"><svg viewBox="0 0 67.29354251202167 95.481" height="95.481" width="67.29354251202167"><g><svg viewBox="0 0 67.29354251202167 95.481" height="95.481" width="67.29354251202167"><g><svg viewBox="0 0 67.29354251202167 95.481" height="95.481" width="67.29354251202167"><g id="textblocktransform"><svg viewBox="0 0 67.29354251202167 95.481" height="95.481" width="67.29354251202167" id="textblock"><g><svg viewBox="0 0 67.29354251202167 95.481" height="95.481" width="67.29354251202167"><g><svg viewBox="0 0 67.29354251202167 95.481" height="95.481" width="67.29354251202167"><g><svg xmlns="http://www.w3.org/2000/svg" xmlns:xlink="http://www.w3.org/1999/xlink" version="1.1" x="0" y="0" viewBox="18.781999999999996 5.116529100000001 63.512000000000015 90.11547089999999" enable-background="new 0 0 100 100" xml:space="preserve" height="95.481" width="67.29354251202167" class="icon-icon-0" data-fill-palette-color="accent" id="icon-0"><path d="M35.095 65.335c-0.253 0-0.51-0.025-0.762-0.073-4.033-0.781-5.737-7.131-5.064-18.873 0.492-8.576 2.118-17.045 2.134-17.13l0.089-0.459 19.086 3.695-0.09 0.46C50.227 34.277 44.011 65.335 35.095 65.335zM32.236 29.896c-0.342 1.874-1.612 9.177-2.033 16.555-0.632 11.037 0.858 17.225 4.309 17.893 0.196 0.038 0.387 0.057 0.584 0.057 6.652 0 12.54-22.06 14.383-31.165L32.236 29.896z" fill="#ffffff" data-fill-palette-color="accent"></path><rect x="30.606" y="64.567" transform="matrix(0.9818 0.1901 -0.1901 0.9818 15.3167 -4.6615)" width="2.707" height="25.903" fill="#ffffff" data-fill-palette-color="accent"></rect><path d="M39.016 95.232l-20.234-3.918 0.113-0.475c0.069-0.29 0.625-1.742 4.747-1.742 1.622 0 3.622 0.227 5.945 0.677 9.62 1.863 9.617 4.491 9.518 4.999L39.016 95.232zM20.265 90.648l17.676 3.423c-0.56-0.766-2.411-2.193-8.532-3.378-2.264-0.438-4.204-0.66-5.767-0.66C21.729 90.032 20.754 90.359 20.265 90.648z" fill="#ffffff" data-fill-palette-color="accent"></path><g fill="#006d77" data-fill-palette-color="accent"><path d="M34.902 55.346c-0.051 0-0.102-0.005-0.154-0.016-0.212-0.041-0.396-0.162-0.517-0.342-0.121-0.179-0.165-0.394-0.124-0.606 0.083-0.43 0.5-0.729 0.948-0.64 0.212 0.041 0.396 0.162 0.517 0.342 0.121 0.179 0.165 0.395 0.124 0.606C35.622 55.07 35.288 55.346 34.902 55.346zM34.901 54.194c-0.163 0-0.304 0.117-0.335 0.278-0.018 0.09 0.001 0.18 0.052 0.256 0.051 0.076 0.129 0.127 0.218 0.144 0.184 0.03 0.365-0.089 0.4-0.271 0.018-0.09-0.001-0.18-0.052-0.256-0.051-0.076-0.128-0.127-0.218-0.144C34.944 54.197 34.923 54.194 34.901 54.194z" fill="#ffffff" data-fill-palette-color="accent"></path></g><g fill="#006d77" data-fill-palette-color="accent"><path d="M41.991 44.751c-0.076 0-0.153-0.007-0.231-0.022-0.316-0.061-0.59-0.242-0.77-0.509-0.18-0.267-0.246-0.589-0.184-0.905 0.124-0.642 0.754-1.085 1.413-0.955 0.316 0.061 0.59 0.242 0.77 0.509 0.18 0.267 0.246 0.589 0.184 0.905C43.064 44.34 42.566 44.751 41.991 44.751zM41.988 42.806c-0.352 0-0.657 0.251-0.723 0.598-0.038 0.194 0.002 0.39 0.113 0.554 0.111 0.163 0.278 0.274 0.471 0.311 0.409 0.084 0.79-0.191 0.865-0.584 0.038-0.194-0.002-0.39-0.113-0.554-0.111-0.163-0.278-0.274-0.471-0.311C42.082 42.811 42.035 42.806 41.988 42.806z" fill="#ffffff" data-fill-palette-color="accent"></path></g><g fill="#006d77" data-fill-palette-color="accent"><path d="M36.559 36.787c-0.06 0-0.121-0.005-0.183-0.017-0.516-0.1-0.855-0.602-0.755-1.118 0.099-0.507 0.591-0.86 1.118-0.756 0.516 0.1 0.855 0.602 0.756 1.118C37.408 36.462 37.014 36.787 36.559 36.787zM36.557 35.346c-0.232 0-0.433 0.166-0.477 0.395-0.051 0.263 0.121 0.519 0.385 0.57 0.264 0.057 0.52-0.126 0.57-0.385 0.051-0.263-0.122-0.519-0.385-0.57C36.619 35.349 36.588 35.346 36.557 35.346z" fill="#ffffff" data-fill-palette-color="accent"></path></g><g fill="#006d77" data-fill-palette-color="accent"><circle fill="#ffffff" cx="38.057" cy="56.935" r="0.72" data-fill-palette-color="accent"></circle><path d="M38.058 57.89c-0.06 0-0.121-0.006-0.183-0.018-0.516-0.1-0.855-0.601-0.755-1.118 0.098-0.507 0.59-0.858 1.118-0.755 0.516 0.1 0.855 0.602 0.755 1.119C38.907 57.565 38.514 57.89 38.058 57.89zM38.056 56.448c-0.232 0-0.432 0.166-0.476 0.395-0.051 0.264 0.121 0.52 0.385 0.571 0.27 0.047 0.521-0.126 0.57-0.385 0.051-0.263-0.121-0.52-0.385-0.571C38.118 56.451 38.087 56.448 38.056 56.448z" fill="#ffffff" data-fill-palette-color="accent"></path></g><g fill="#006d77" data-fill-palette-color="accent"><path d="M44.286 42.519c-0.051 0-0.103-0.005-0.155-0.015-0.212-0.041-0.395-0.162-0.516-0.342-0.121-0.179-0.165-0.394-0.124-0.606 0.083-0.43 0.506-0.728 0.948-0.641 0.438 0.085 0.726 0.51 0.641 0.948C45.005 42.243 44.672 42.519 44.286 42.519zM44.284 41.368c-0.163 0-0.304 0.116-0.335 0.277-0.017 0.09 0.001 0.181 0.052 0.256 0.051 0.075 0.129 0.126 0.218 0.144 0.191 0.042 0.366-0.088 0.4-0.27 0.036-0.184-0.085-0.364-0.27-0.4C44.328 41.37 44.306 41.368 44.284 41.368z" fill="#ffffff" data-fill-palette-color="accent"></path></g><path d="M65.982 64.884C65.981 64.884 65.981 64.884 65.982 64.884c-8.917-0.003-15.133-31.058-15.393-32.38l-0.09-0.46 19.086-3.695 0.09 0.459c0.016 0.085 1.642 8.554 2.133 17.13 0.673 11.742-1.03 18.092-5.064 18.873C66.491 64.859 66.235 64.884 65.982 64.884zM51.599 32.783c1.843 9.104 7.731 31.163 14.383 31.165 0 0 0 0 0.001 0 0.193 0 0.389-0.019 0.584-0.057 3.45-0.668 4.94-6.855 4.309-17.893-0.423-7.377-1.691-14.681-2.034-16.555L51.599 32.783z" fill="#ffffff" data-fill-palette-color="accent"></path><rect x="67.763" y="64.115" transform="matrix(-0.9818 0.1901 -0.1901 -0.9818 151.6207 139.5923)" width="2.707" height="25.903" fill="#ffffff" data-fill-palette-color="accent"></rect><path d="M62.06 94.781l-0.09-0.459c-0.098-0.508-0.1-3.135 9.519-4.998 2.323-0.449 4.324-0.678 5.947-0.678 4.12 0 4.675 1.451 4.745 1.742l0.113 0.475L62.06 94.781zM77.436 89.581c-1.564 0-3.504 0.223-5.769 0.661-6.12 1.185-7.972 2.611-8.532 3.377l17.681-3.424C80.331 89.911 79.356 89.581 77.436 89.581z" fill="#ffffff" data-fill-palette-color="accent"></path><g fill="#006d77" data-fill-palette-color="accent"><path d="M64.518 53.604L64.518 53.604c-0.386 0-0.721-0.276-0.795-0.656-0.085-0.438 0.203-0.864 0.64-0.948 0.437-0.085 0.866 0.209 0.949 0.639 0.041 0.213-0.003 0.428-0.123 0.607-0.121 0.18-0.305 0.3-0.517 0.342C64.62 53.599 64.568 53.604 64.518 53.604zM64.52 52.453c-0.022 0-0.044 0.002-0.067 0.006-0.185 0.037-0.307 0.216-0.271 0.4 0.036 0.182 0.209 0.306 0.401 0.271 0.09-0.017 0.167-0.068 0.218-0.144 0.051-0.076 0.07-0.167 0.053-0.257C64.823 52.569 64.683 52.453 64.52 52.453z" fill="#ffffff" data-fill-palette-color="accent"></path></g><path d="M58.945 44.515c-0.634 0-1.181-0.452-1.301-1.075-0.068-0.348 0.005-0.701 0.203-0.994 0.198-0.294 0.499-0.492 0.846-0.56 0.731-0.14 1.419 0.345 1.554 1.05 0.068 0.348-0.005 0.701-0.203 0.994-0.198 0.294-0.499 0.492-0.847 0.56C59.113 44.507 59.028 44.515 58.945 44.515zM58.947 42.33c-0.055 0-0.11 0.005-0.164 0.016-0.226 0.043-0.42 0.172-0.548 0.362-0.129 0.19-0.175 0.419-0.132 0.643 0.088 0.457 0.534 0.773 1.006 0.68 0.226-0.043 0.42-0.172 0.549-0.362 0.129-0.19 0.175-0.418 0.132-0.643C59.711 42.622 59.357 42.33 58.947 42.33z" fill="#ffffff" data-fill-palette-color="accent"></path><path d="M62.264 42.089L62.264 42.089c-0.456 0-0.849-0.325-0.936-0.773-0.048-0.251 0.003-0.505 0.146-0.716 0.142-0.211 0.359-0.354 0.61-0.403 0.515-0.103 1.018 0.248 1.117 0.756 0.049 0.25-0.003 0.504-0.146 0.716-0.142 0.211-0.359 0.354-0.609 0.403C62.385 42.083 62.323 42.089 62.264 42.089zM62.266 40.647c-0.031 0-0.062 0.003-0.093 0.009-0.128 0.025-0.238 0.097-0.311 0.205-0.073 0.108-0.1 0.237-0.075 0.365 0.045 0.228 0.246 0.394 0.478 0.394l0 0c0.03 0 0.061-0.003 0.092-0.009 0.128-0.025 0.238-0.098 0.311-0.205 0.073-0.108 0.1-0.237 0.075-0.364C62.698 40.813 62.498 40.647 62.266 40.647z" fill="#ffffff" data-fill-palette-color="accent"></path><g fill="#006d77" data-fill-palette-color="accent"><path d="M63.018 57.438c-0.455 0-0.848-0.325-0.935-0.773-0.1-0.517 0.238-1.018 0.754-1.119 0.531-0.103 1.021 0.249 1.119 0.755 0.1 0.516-0.238 1.018-0.755 1.118C63.139 57.432 63.078 57.438 63.018 57.438zM63.019 55.997c-0.031 0-0.062 0.003-0.093 0.008-0.263 0.051-0.436 0.308-0.385 0.571 0.05 0.258 0.307 0.431 0.57 0.385 0.264-0.051 0.437-0.307 0.386-0.57C63.452 56.163 63.251 55.997 63.019 55.997z" fill="#ffffff" data-fill-palette-color="accent"></path></g><path d="M59.087 40.917L59.087 40.917c-0.386 0-0.721-0.275-0.795-0.655-0.085-0.439 0.203-0.864 0.64-0.949 0.444-0.088 0.867 0.211 0.949 0.641 0.085 0.438-0.203 0.863-0.64 0.948C59.189 40.912 59.137 40.917 59.087 40.917zM59.088 39.766c-0.022 0-0.044 0.002-0.066 0.006-0.185 0.036-0.307 0.216-0.271 0.4 0.032 0.16 0.173 0.277 0.336 0.277l0 0c0.021 0 0.043-0.002 0.065-0.006 0.185-0.036 0.307-0.216 0.271-0.4C59.392 39.882 59.25 39.766 59.088 39.766z" fill="#ffffff" data-fill-palette-color="accent"></path><g fill="#006d77" data-fill-palette-color="accent"><path d="M68.107 57.453c-0.648 0-1.209-0.464-1.333-1.101-0.142-0.736 0.341-1.451 1.076-1.593 0.758-0.153 1.454 0.355 1.593 1.077 0.142 0.735-0.341 1.449-1.076 1.592C68.278 57.445 68.192 57.453 68.107 57.453zM68.108 55.201c-0.056 0-0.113 0.005-0.17 0.016-0.483 0.093-0.8 0.563-0.707 1.045 0.093 0.475 0.563 0.799 1.045 0.707 0.483-0.094 0.8-0.563 0.707-1.045C68.902 55.505 68.535 55.201 68.108 55.201z" fill="#ffffff" data-fill-palette-color="accent"></path></g><g fill="#006d77" data-fill-palette-color="accent"><circle fill="#ffffff" cx="66.751" cy="32.262" r="0.58" data-fill-palette-color="accent"></circle><path d="M66.75 33.071L66.75 33.071c-0.386 0-0.721-0.276-0.794-0.656-0.041-0.212 0.003-0.428 0.123-0.607 0.121-0.179 0.305-0.3 0.517-0.342 0.446-0.086 0.866 0.211 0.948 0.641 0.085 0.438-0.203 0.863-0.64 0.948C66.853 33.067 66.801 33.071 66.75 33.071zM66.751 31.92c-0.021 0-0.043 0.002-0.065 0.006-0.09 0.017-0.167 0.068-0.218 0.144-0.051 0.076-0.07 0.167-0.053 0.257 0.031 0.16 0.172 0.277 0.335 0.277l0 0c0.022 0 0.043-0.002 0.065-0.006 0.185-0.036 0.307-0.216 0.271-0.4C67.055 32.036 66.915 31.92 66.751 31.92z" fill="#ffffff" data-fill-palette-color="accent"></path></g><rect x="36.794" y="23.289" transform="matrix(0.5027 0.8645 -0.8645 0.5027 41.7514 -25.2965)" width="12.136" height="0.701" fill="#ffffff" data-fill-palette-color="accent"></rect><rect x="36.146" y="16.415" transform="matrix(0.1255 0.9921 -0.9921 0.1255 58.4729 -32.804)" width="23.397" height="0.701" fill="#ffffff" data-fill-palette-color="accent"></rect><rect x="64.696" y="17.85" transform="matrix(0.422 0.9066 -0.9066 0.422 60.8095 -44.1701)" width="0.701" height="15.513" fill="#ffffff" data-fill-palette-color="accent"></rect><rect x="49.37" y="38.505" transform="matrix(0.998 0.0625 -0.0625 0.998 2.9132 -3.0175)" width="0.702" height="13.165" fill="#ffffff" data-fill-palette-color="accent"></rect><rect x="26.951" y="24.921" transform="matrix(0.8645 0.5027 -0.5027 0.8645 17.5749 -14.6411)" width="17.976" height="0.701" fill="#ffffff" data-fill-palette-color="accent"></rect><rect x="53.209" y="15.027" transform="matrix(0.963 0.2694 -0.2694 0.963 7.5709 -13.6612)" width="0.702" height="11.454" fill="#ffffff" data-fill-palette-color="accent"></rect><rect x="47.965" y="47.313" transform="matrix(0.2129 0.9771 -0.9771 0.2129 88.1162 -14.0591)" width="9.638" height="0.701" fill="#ffffff" data-fill-palette-color="accent"></rect><rect x="59.594" y="10.017" transform="matrix(0.8031 0.5958 -0.5958 0.8031 24.0044 -31.6839)" width="0.701" height="20.926" fill="#ffffff" data-fill-palette-color="accent"></rect><g fill="#006d77" data-fill-palette-color="accent"><circle fill="#ffffff" cx="35.7" cy="58.878" r="0.58" data-fill-palette-color="accent"></circle><path d="M35.701 59.688c-0.051 0-0.102-0.005-0.154-0.016-0.438-0.086-0.726-0.511-0.641-0.949 0.084-0.43 0.507-0.726 0.948-0.64 0.438 0.084 0.726 0.51 0.641 0.949C36.422 59.412 36.087 59.688 35.701 59.688zM35.7 58.535c-0.163 0-0.304 0.117-0.335 0.278-0.036 0.184 0.086 0.364 0.271 0.401 0.179 0.032 0.364-0.09 0.4-0.271 0.036-0.185-0.085-0.365-0.27-0.401C35.744 58.538 35.722 58.535 35.7 58.535z" fill="#ffffff" data-fill-palette-color="accent"></path></g><g fill="#006d77" data-fill-palette-color="accent"><path d="M34.27 33.847c-0.051 0-0.103-0.005-0.154-0.015-0.438-0.085-0.726-0.51-0.641-0.948 0.084-0.43 0.505-0.727 0.948-0.641 0.438 0.085 0.726 0.511 0.641 0.948C34.991 33.571 34.657 33.847 34.27 33.847zM34.27 32.696c-0.163 0-0.304 0.116-0.335 0.277-0.036 0.184 0.085 0.364 0.27 0.4 0.187 0.041 0.366-0.088 0.4-0.27 0.036-0.185-0.086-0.365-0.271-0.4C34.313 32.698 34.291 32.696 34.27 32.696z" fill="#ffffff" data-fill-palette-color="accent"></path></g></svg></g></svg></g></svg></g></svg></g></svg></g><g></g></svg></g><defs></defs></svg><rect width="67.29354251202167" height="95.481" fill="none" stroke="none" visibility="hidden"></rect></g></svg></g></svg>