<svg xmlns="http://www.w3.org/2000/svg" version="1.1" xmlns:xlink="http://www.w3.org/1999/xlink" xmlns:svgjs="http://svgjs.dev/svgjs" width="2000" height="1709" viewBox="0 0 2000 1709"><g transform="matrix(1,0,0,1,0.12724668513646975,0.69226745047024)"><svg viewBox="0 0 289 247" data-background-color="#003366" preserveAspectRatio="xMidYMid meet" height="1709" width="2000" xmlns="http://www.w3.org/2000/svg" xmlns:xlink="http://www.w3.org/1999/xlink"><g id="tight-bounds" transform="matrix(1,0,0,1,-0.018387146002226018,-0.09994730236039118)"><svg viewBox="0 0 289.03677429200445 247.2" height="247.2" width="289.03677429200445"><g><svg viewBox="0 0 395.52 338.27025726914445" height="247.2" width="289.03677429200445"><g transform="matrix(1,0,0,1,0,267.0896053707069)"><svg viewBox="0 0 395.52 71.18065189843755" height="71.18065189843755" width="395.52"><g id="textblocktransform"><svg viewBox="0 0 395.52 71.18065189843755" height="71.18065189843755" width="395.52" id="textblock"><g><svg viewBox="0 0 395.52 38.391442367215554" height="38.391442367215554" width="395.52"><g transform="matrix(1,0,0,1,0,0)"><svg width="395.52" viewBox="0 -36.04 394.33 38.29" height="38.391442367215554" data-palette-color="#ffffff"><path d="M0.49-32.76L0.49-32.76 0-34.96 18.65-36.04Q19.87-35.99 20.7-35.16 21.53-34.33 21.53-33.35L21.53-33.35Q21.53-32.71 21.04-32.23 20.56-31.74 19.58-31.64L19.58-31.64 11.38-32.08Q12.6-14.84 13.18-0.73L13.18-0.73Q12.74 0.73 11.52 0.73L11.52 0.73Q10.64 0.73 9.81 0.02 8.98-0.68 8.79-1.71L8.79-1.71Q8.89-4.35 8.89-9.72L8.89-9.72Q8.89-11.72 8.86-15.72 8.84-19.73 8.84-21.73L8.84-21.73Q8.84-27.54 9.03-32.23L9.03-32.23Q3.52-32.62 0.49-32.76ZM23.78-35.16L23.78-35.16 26.32-34.57Q26.46-32.57 26.54-28.17 26.61-23.78 26.71-22.12L26.71-22.12Q29.34-24.9 33.05-24.9L33.05-24.9Q36.37-24.9 38.79-22.56 41.21-20.21 41.21-16.31L41.21-16.31 41.21-0.24Q40.57 0.05 39.6 0.05L39.6 0.05Q38.52 0.05 37.64-0.15L37.64-0.15Q37.64-0.54 37.67-1.34 37.69-2.15 37.69-2.54L37.69-2.54Q37.69-4.44 37.55-9.11 37.4-13.77 37.4-16.89L37.4-16.89Q36.67-21.39 32.86-21.39L32.86-21.39Q31.2-21.39 29.59-20.48 27.98-19.58 27.24-18.36L27.24-18.36Q27.39-15.28 27.44-9.08 27.49-2.88 27.59-0.15L27.59-0.15Q26.41 0.05 25.58 0.05L25.58 0.05Q24.36 0.05 23.53-0.24L23.53-0.24Q23.63-2.64 23.63-7.81L23.63-7.81Q23.63-10.11 23.58-16.24 23.53-22.36 23.56-26.78 23.58-31.2 23.78-35.16ZM64.89-4.74L64.89-4.74 65.38-2.59Q63.23-1.81 59-0.85 54.78 0.1 52.73 0.1L52.73 0.1Q50.63 0.1 49.07-1.29 47.5-2.69 46.72-4.86 45.94-7.03 45.58-9.16 45.21-11.28 45.21-13.33L45.21-13.33Q45.21-25.54 56.25-25.54L56.25-25.54Q58.88-25.54 60.88-23.85 62.89-22.17 62.89-19.48L62.89-19.48Q62.89-18.02 62.08-16.89 61.27-15.77 60.13-15.11 58.98-14.45 57.2-13.92 55.41-13.38 54.05-13.13 52.68-12.89 50.78-12.6 48.87-12.3 48.14-12.16L48.14-12.16Q48.19-10.74 48.31-9.67 48.43-8.59 48.8-7.35 49.16-6.1 49.78-5.3 50.39-4.49 51.46-3.96 52.53-3.42 54-3.42L54-3.42Q55.76-3.42 58.3-3.74 60.83-4.05 62.81-4.39 64.79-4.74 64.89-4.74ZM48.33-15.19L48.33-15.19Q54.98-17.09 59.22-19.19L59.22-19.19Q58.88-20.8 58.3-21.53 57.71-22.27 56.54-22.27L56.54-22.27Q53.56-22.27 51.14-20.21 48.73-18.16 48.33-15.19ZM103.65-32.23L103.65-32.23 101.7-29.98Q97.89-32.81 94.18-32.81L94.18-32.81Q91.74-32.81 89.98-31.64 88.22-30.47 87.32-28.81 86.42-27.15 85.9-24.61 85.39-22.07 85.27-20.21 85.15-18.36 85.15-15.87L85.15-15.87Q85.15-13.43 86.05-10.33 86.95-7.23 89.1-4.54 91.25-1.86 94.08-1.86L94.08-1.86Q97.16-1.86 103.51-5.08L103.51-5.08Q104.14-4.15 105.17-2L105.17-2Q99.01 2.25 94.18 2.25L94.18 2.25Q91.05 2.25 88.47 0.34 85.88-1.56 84.39-4.49 82.9-7.42 82.09-10.62 81.29-13.82 81.29-16.7L81.29-16.7Q81.29-19.87 81.78-22.88 82.27-25.88 83.44-28.91 84.61-31.93 86.98-33.79 89.35-35.64 92.62-35.64L92.62-35.64Q95.45-35.64 98.48-34.67 101.5-33.69 103.65-32.23ZM105.7-10.4L105.7-10.4Q105.7-12.35 106.12-14.75 106.53-17.14 107.36-19.78 108.19-22.41 109.85-24.17 111.51-25.93 113.71-25.93L113.71-25.93Q118.4-25.93 121.23-21.7 124.06-17.48 124.06-12.3L124.06-12.3Q124.06-10.11 123.6-7.93 123.13-5.76 122.16-3.66 121.18-1.56 119.35-0.17 117.52 1.22 115.08 1.42L115.08 1.42Q110.58 0.83 108.14-2.42 105.7-5.66 105.7-10.4ZM114-23.39L114-23.39Q112.29-23.19 111.12-20.26 109.95-17.33 109.61-14.58 109.26-11.82 109.26-9.72L109.26-9.72Q109.26-6.98 110.95-4.66 112.63-2.34 114.73-2.34L114.73-2.34Q116.25-2.34 117.47-3.52 118.69-4.69 119.4-6.42 120.1-8.15 120.47-9.91 120.84-11.67 120.84-13.04L120.84-13.04Q120.84-17.04 119.03-20.02 117.22-23 114-23.39ZM144.47-24.22L144.47-24.22 144.22-22.12Q142.17-22.41 140.71-22.41L140.71-22.41Q137.34-22.41 135.14-20.39 132.94-18.36 132.14-15.6 131.33-12.84 131.33-9.47L131.33-9.47Q131.33-7.91 131.53-6.69 131.72-5.47 132.24-4.3 132.75-3.13 133.85-2.47 134.95-1.81 136.56-1.81L136.56-1.81Q138.71-1.81 142.03-2.64L142.03-2.64Q143.05-3.03 143.64-3.03L143.64-3.03Q144.81-3.03 145.05-0.29L145.05-0.29Q140.76 1.07 137.09 1.07L137.09 1.07Q131.77 1.07 129.89-1.54 128.01-4.15 128.01-10.01L128.01-10.01Q128.01-13.43 128.48-15.99 128.94-18.55 130.11-20.78 131.28-23 133.51-24.17 135.73-25.34 138.95-25.34L138.95-25.34Q142.56-25.34 144.47-24.22ZM165.36 0L165.36 0 160.87-0.1Q159.06-1.9 155.92-5.93 152.77-9.96 151.94-10.89L151.94-10.89 151.94-0.83Q151.5 0.63 150.23 0.63L150.23 0.63Q149.35 0.63 148.54-0.07 147.74-0.78 147.54-1.81L147.54-1.81Q147.69-6.84 147.69-18.51 147.69-30.18 147.88-35.25L147.88-35.25 150.86-34.62Q150.91-32.67 151.03-26.61 151.15-20.56 151.25-17.58L151.25-17.58 163.12-26.27 163.95-24.07Q159.31-20.7 153.06-14.55L153.06-14.55Q154.38-13.13 158.89-7.64 163.41-2.15 165.36 0ZM180.64-23.63L180.64-23.63 181.18-21.44Q179.86-21.34 177.13-20.92 174.39-20.51 173.03-20.41L173.03-20.41Q173.27-18.7 173.32-15.92 173.37-13.13 173.44-11.11 173.52-9.08 173.88-7.06 174.25-5.03 175.4-3.96 176.54-2.88 178.5-2.88L178.5-2.88Q179.96-2.88 182.16-3.56L182.16-3.56Q183.09-1.76 183.52-0.93L183.52-0.93Q179.67 0.44 175.71 0.44L175.71 0.44Q174.25 0.44 173.17-0.44 172.1-1.32 171.51-2.64 170.93-3.96 170.56-5.98 170.19-8.01 170.1-9.81 170-11.62 170-13.96L170-13.96Q170-15.23 170.02-17.48 170.05-19.73 170.05-20.56L170.05-20.56Q169.56-20.51 167.75-20.48 165.95-20.46 165.65-20.46L165.65-20.46Q165.31-23.73 165.31-23.83L165.31-23.83Q165.65-23.73 166.44-23.73L166.44-23.73Q166.87-23.73 167.85-23.8 168.83-23.88 169.32-23.88L169.32-23.88Q169.51-23.88 169.83-23.85 170.15-23.83 170.24-23.83L170.24-23.83Q170.44-29.2 170.68-32.57L170.68-32.57 172.88-32.03Q172.93-30.86 172.95-29.52 172.98-28.17 173-26.54 173.03-24.9 173.03-24.02L173.03-24.02Q174.3-23.93 176.84-23.83 179.37-23.73 180.64-23.63ZM187.23-21.09L187.23-21.09 186.26-23.58Q187.53-24.85 189.48-25.61 191.43-26.37 193.34-26.37L193.34-26.37Q201.59-26.37 201.59-12.11L201.59-12.11Q201.59-10.16 201.37-6.35 201.15-2.54 201.15-0.63L201.15-0.63Q200.76 0.88 199.64 0.88L199.64 0.88Q198.76 0.88 198.02 0 197.29-0.88 197.29-1.95L197.29-1.95Q197.29-2.29 197.34-2.44L197.34-2.44Q194.31 0.49 190.9 0.49L190.9 0.49Q188.31 0.49 186.38-1.39 184.45-3.27 184.45-5.96L184.45-5.96Q184.45-10.5 187.99-14.16 191.53-17.82 196.02-17.82L196.02-17.82Q196.22-17.82 196.41-17.8 196.61-17.77 196.88-17.72 197.15-17.68 197.29-17.68L197.29-17.68Q196.9-23.39 192.75-23.39L192.75-23.39Q190.31-23.39 187.23-21.09ZM197.44-5.81L197.44-5.81Q197.54-9.23 197.54-10.99L197.54-10.99Q197.54-12.45 197.44-15.09L197.44-15.09 197.05-15.09Q193.58-15.04 190.72-12.5 187.87-9.96 187.87-6.35L187.87-6.35Q187.87-4.79 188.82-3.86 189.77-2.93 191.14-2.93L191.14-2.93Q193.29-2.93 197.44-5.81ZM206.62-25.1L206.62-25.1 208.86-24.61Q209.25-20.61 209.55-12.04 209.84-3.47 209.94-1.42L209.94-1.42Q209.5 0.1 208.23 0.1L208.23 0.1Q207.35 0.1 206.54-0.61 205.74-1.32 205.54-2.34L205.54-2.34Q205.64-4.35 205.93-12.77 206.23-21.19 206.62-25.1ZM207.3-33.84L207.3-33.84Q208.62-33.84 209.5-32.69 210.38-31.54 210.38-30.08L210.38-30.08Q210.38-29 209.86-28.34 209.35-27.69 208.47-27.69L208.47-27.69Q207.1-27.69 206.32-28.81 205.54-29.93 205.54-31.45L205.54-31.45Q205.54-32.52 206.01-33.18 206.47-33.84 207.3-33.84ZM214.38-2.34L215.45-33.5 217.7-33.01 218.77-1.42Q218.33 0.1 217.06 0.1L217.06 0.1Q216.18 0.1 215.38-0.61 214.57-1.32 214.38-2.34L214.38-2.34ZM235.91 0.15L235.91 0.15 235.81-2.25Q240.3-2.98 241.37-3.03L241.37-3.03Q241.42-4.69 241.42-8.01L241.42-8.01Q241.42-12.4 241.23-20.68 241.03-28.96 240.98-31.64L240.98-31.64 236.05-31.88 235.71-34.72Q237.71-34.67 241.91-34.67L241.91-34.67Q246.21-34.67 248.31-34.62L248.31-34.62 248.45-32.18Q247.62-31.84 246.11-31.76 244.6-31.69 244.21-31.64L244.21-31.64Q244.35-30.27 244.38-24.76 244.4-19.24 244.4-12.55 244.4-5.86 244.5-3.03L244.5-3.03Q245.28-2.88 247.48-2.69 249.67-2.49 250.21-2.39L250.21-2.39 250.11 0.15Q248.65 0.1 245.48 0.1L245.48 0.1Q243.82 0.1 240.54 0.12 237.27 0.15 235.91 0.15ZM256.51-19.53L256.51-19.53 256.7-0.2Q255.97 0.2 254.95 0.2L254.95 0.2Q254.16 0.2 253.19-0.05L253.19-0.05Q253.33-3.13 253.38-12.16 253.43-21.19 253.77-25.54L253.77-25.54 255.97-25.05 256.12-22.31Q258.71-25.05 262.07-25.05L262.07-25.05Q263.78-25.05 264.81-24.8 265.83-24.56 266.79-23.61 267.74-22.66 268.23-21.09 268.72-19.53 269.11-16.63 269.5-13.72 269.67-9.84 269.84-5.96 269.89-0.05L269.89-0.05Q269.59 0.05 268.76 0.05L268.76 0.05Q267.01 0.05 266.03-0.39L266.03-0.39Q265.83-1.17 265.83-2.98L265.83-2.98Q265.83-3.91 265.91-6.47 265.98-9.03 265.98-10.45L265.98-10.45Q265.98-12.79 265.81-14.55 265.64-16.31 265.17-18.02 264.71-19.73 263.76-20.65 262.81-21.58 261.39-21.58L261.39-21.58Q259.78-21.58 258.88-21.34 257.97-21.09 257.61-20.75 257.24-20.41 256.51-19.53ZM288.88-23.54L288.88-23.54 288.39-21.58Q283.65-23.54 281.02-23.54L281.02-23.54Q278.67-23.54 277.72-22.83 276.77-22.12 276.77-19.82L276.77-19.82Q276.77-17.97 278.11-16.75 279.45-15.53 281.36-14.82 283.26-14.11 285.19-13.31 287.12-12.5 288.46-10.94 289.81-9.38 289.81-7.08L289.81-7.08Q289.81-3.96 287.51-1.61 285.22 0.73 281.55 0.78L281.55 0.78Q278.87 0.78 276.53-0.34 274.18-1.46 272.81-3.17L272.81-3.17 274.23-4.64Q274.82-4.39 275.96-3.86 277.11-3.32 277.6-3.15 278.09-2.98 279.04-2.78 279.99-2.59 281.07-2.59L281.07-2.59Q283.36-2.59 284.83-3.61 286.29-4.64 286.29-6.49L286.29-6.49Q286.29-7.71 285.61-8.57 284.92-9.42 283.8-9.96 282.68-10.5 281.33-10.99 279.99-11.47 278.65-12.08 277.31-12.7 276.18-13.55 275.06-14.4 274.38-15.87 273.69-17.33 273.69-19.34L273.69-19.34Q273.69-22.27 275.28-24.24 276.87-26.22 279.75-26.22L279.75-26.22Q280.87-26.22 282.29-25.88 283.7-25.54 284.53-25.24 285.36-24.95 287-24.29 288.63-23.63 288.88-23.54ZM306.11-23.63L306.11-23.63 306.65-21.44Q305.33-21.34 302.6-20.92 299.86-20.51 298.5-20.41L298.5-20.41Q298.74-18.7 298.79-15.92 298.84-13.13 298.91-11.11 298.98-9.08 299.35-7.06 299.72-5.03 300.86-3.96 302.01-2.88 303.96-2.88L303.96-2.88Q305.43-2.88 307.63-3.56L307.63-3.56Q308.55-1.76 308.99-0.93L308.99-0.93Q305.14 0.44 301.18 0.44L301.18 0.44Q299.72 0.44 298.64-0.44 297.57-1.32 296.98-2.64 296.4-3.96 296.03-5.98 295.66-8.01 295.57-9.81 295.47-11.62 295.47-13.96L295.47-13.96Q295.47-15.23 295.49-17.48 295.52-19.73 295.52-20.56L295.52-20.56Q295.03-20.51 293.22-20.48 291.42-20.46 291.12-20.46L291.12-20.46Q290.78-23.73 290.78-23.83L290.78-23.83Q291.12-23.73 291.9-23.73L291.9-23.73Q292.34-23.73 293.32-23.8 294.3-23.88 294.78-23.88L294.78-23.88Q294.98-23.88 295.3-23.85 295.61-23.83 295.71-23.83L295.71-23.83Q295.91-29.2 296.15-32.57L296.15-32.57 298.35-32.03Q298.4-30.86 298.42-29.52 298.45-28.17 298.47-26.54 298.5-24.9 298.5-24.02L298.5-24.02Q299.76-23.93 302.3-23.83 304.84-23.73 306.11-23.63ZM312.02-25.1L312.02-25.1 314.26-24.61Q314.65-20.61 314.95-12.04 315.24-3.47 315.34-1.42L315.34-1.42Q314.9 0.1 313.63 0.1L313.63 0.1Q312.75 0.1 311.94-0.61 311.14-1.32 310.94-2.34L310.94-2.34Q311.04-4.35 311.33-12.77 311.63-21.19 312.02-25.1ZM312.7-33.84L312.7-33.84Q314.02-33.84 314.9-32.69 315.78-31.54 315.78-30.08L315.78-30.08Q315.78-29 315.27-28.34 314.75-27.69 313.87-27.69L313.87-27.69Q312.51-27.69 311.73-28.81 310.94-29.93 310.94-31.45L310.94-31.45Q310.94-32.52 311.41-33.18 311.87-33.84 312.7-33.84ZM333.11-23.63L333.11-23.63 333.65-21.44Q332.33-21.34 329.59-20.92 326.86-20.51 325.49-20.41L325.49-20.41Q325.74-18.7 325.79-15.92 325.83-13.13 325.91-11.11 325.98-9.08 326.35-7.06 326.71-5.03 327.86-3.96 329.01-2.88 330.96-2.88L330.96-2.88Q332.43-2.88 334.62-3.56L334.62-3.56Q335.55-1.76 335.99-0.93L335.99-0.93Q332.13 0.44 328.18 0.44L328.18 0.44Q326.71 0.44 325.64-0.44 324.56-1.32 323.98-2.64 323.39-3.96 323.03-5.98 322.66-8.01 322.56-9.81 322.46-11.62 322.46-13.96L322.46-13.96Q322.46-15.23 322.49-17.48 322.51-19.73 322.51-20.56L322.51-20.56Q322.03-20.51 320.22-20.48 318.41-20.46 318.12-20.46L318.12-20.46Q317.78-23.73 317.78-23.83L317.78-23.83Q318.12-23.73 318.9-23.73L318.9-23.73Q319.34-23.73 320.32-23.8 321.29-23.88 321.78-23.88L321.78-23.88Q321.98-23.88 322.29-23.85 322.61-23.83 322.71-23.83L322.71-23.83Q322.9-29.2 323.15-32.57L323.15-32.57 325.35-32.03Q325.39-30.86 325.42-29.52 325.44-28.17 325.47-26.54 325.49-24.9 325.49-24.02L325.49-24.02Q326.76-23.93 329.3-23.83 331.84-23.73 333.11-23.63ZM350.68-24.51L350.68-24.51 353.03-24.07 353.03-23.58Q353.03-20.26 353.44-12.35 353.86-4.44 354.2-0.15L354.2-0.15Q353.22 0.24 352.35 0.24L352.35 0.24Q351.56 0.24 350.59 0L350.59 0 350.2-1.27Q347.07 0.49 344.24 0.49L344.24 0.49Q342.14 0.49 340.6-0.49 339.06-1.46 338.23-2.91 337.4-4.35 336.92-6.47 336.43-8.59 336.31-10.33 336.18-12.06 336.18-14.21L336.18-14.21Q336.18-20.46 336.96-25.68L336.96-25.68 339.16-25.2Q339.5-23.58 339.5-21.68L339.5-21.68Q339.5-20.61 339.38-17.97 339.26-15.33 339.26-13.96L339.26-13.96Q339.26-11.57 339.48-9.84 339.7-8.11 340.31-6.47 340.92-4.83 342.19-3.96 343.46-3.08 345.36-3.08L345.36-3.08Q347.51-3.08 350-4.05L350-4.05Q350.1-5.86 350.2-13.31 350.29-20.75 350.68-24.51ZM371.48-23.63L371.48-23.63 372.02-21.44Q370.7-21.34 367.97-20.92 365.23-20.51 363.87-20.41L363.87-20.41Q364.11-18.7 364.16-15.92 364.21-13.13 364.28-11.11 364.35-9.08 364.72-7.06 365.09-5.03 366.23-3.96 367.38-2.88 369.33-2.88L369.33-2.88Q370.8-2.88 373-3.56L373-3.56Q373.92-1.76 374.36-0.93L374.36-0.93Q370.51 0.44 366.55 0.44L366.55 0.44Q365.09 0.44 364.01-0.44 362.94-1.32 362.35-2.64 361.77-3.96 361.4-5.98 361.03-8.01 360.94-9.81 360.84-11.62 360.84-13.96L360.84-13.96Q360.84-15.23 360.86-17.48 360.89-19.73 360.89-20.56L360.89-20.56Q360.4-20.51 358.59-20.48 356.79-20.46 356.49-20.46L356.49-20.46Q356.15-23.73 356.15-23.83L356.15-23.83Q356.49-23.73 357.27-23.73L357.27-23.73Q357.71-23.73 358.69-23.8 359.67-23.88 360.16-23.88L360.16-23.88Q360.35-23.88 360.67-23.85 360.99-23.83 361.08-23.83L361.08-23.83Q361.28-29.2 361.52-32.57L361.52-32.57 363.72-32.03Q363.77-30.86 363.79-29.52 363.82-28.17 363.84-26.54 363.87-24.9 363.87-24.02L363.87-24.02Q365.14-23.93 367.67-23.83 370.21-23.73 371.48-23.63ZM393.84-4.74L393.84-4.74 394.33-2.59Q392.18-1.81 387.96-0.85 383.74 0.1 381.69 0.1L381.69 0.1Q379.59 0.1 378.02-1.29 376.46-2.69 375.68-4.86 374.9-7.03 374.53-9.16 374.17-11.28 374.17-13.33L374.17-13.33Q374.17-25.54 385.2-25.54L385.2-25.54Q387.84-25.54 389.84-23.85 391.84-22.17 391.84-19.48L391.84-19.48Q391.84-18.02 391.04-16.89 390.23-15.77 389.08-15.11 387.94-14.45 386.15-13.92 384.37-13.38 383-13.13 381.64-12.89 379.73-12.6 377.83-12.3 377.1-12.16L377.1-12.16Q377.14-10.74 377.27-9.67 377.39-8.59 377.76-7.35 378.12-6.1 378.73-5.3 379.34-4.49 380.42-3.96 381.49-3.42 382.96-3.42L382.96-3.42Q384.71-3.42 387.25-3.74 389.79-4.05 391.77-4.39 393.75-4.74 393.84-4.74ZM377.29-15.19L377.29-15.19Q383.93-17.09 388.18-19.19L388.18-19.19Q387.84-20.8 387.25-21.53 386.67-22.27 385.49-22.27L385.49-22.27Q382.52-22.27 380.1-20.21 377.68-18.16 377.29-15.19Z" opacity="1" transform="matrix(1,0,0,1,0,0)" fill="#ffffff" class="wordmark-text-0" data-fill-palette-color="primary" id="text-0"></path></svg></g></svg></g><g transform="matrix(1,0,0,1,0,47.45474051549833)"><svg viewBox="0 0 395.52 23.725911382939213" height="23.725911382939213" width="395.52"><g transform="matrix(1,0,0,1,0,0)"><svg width="395.52" viewBox="0.7 -39.65 841.8499999999999 50.5" height="23.725911382939213" data-palette-color="#66a7ad"><path d="M28.5-34.55L34.4-34.55 29.55 0 21.2 0 17.5-27.8 13.65 0 5.45 0 0.7-34.55 6.85-34.55 10.05-5.1 14.2-34.55 20.95-34.55 25-5.1 28.5-34.55ZM62.08-13.85Q62.08-13.4 61.93-11.3L61.93-11.3 48.28-11.3Q48.48-7.2 49.7-5.58 50.93-3.95 53.18-3.95L53.18-3.95Q54.73-3.95 55.98-4.48 57.23-5 58.68-6.15L58.68-6.15 61.23-2.65Q57.73 0.75 52.83 0.75L52.83 0.75Q47.63 0.75 44.85-2.85 42.08-6.45 42.08-13L42.08-13Q42.08-19.55 44.73-23.35 47.38-27.15 52.23-27.15L52.23-27.15Q56.88-27.15 59.48-23.78 62.08-20.4 62.08-13.85L62.08-13.85ZM56.08-15.3L56.08-15.65Q56.08-19.4 55.18-21.13 54.28-22.85 52.28-22.85L52.28-22.85Q50.43-22.85 49.45-21.18 48.48-19.5 48.28-15.3L48.28-15.3 56.08-15.3ZM110.43-27.15Q113.08-27.15 114.68-25.1 116.28-23.05 116.28-19.6L116.28-19.6 116.28 0 110.23 0 110.23-18.95Q110.23-20.85 109.73-21.68 109.23-22.5 108.28-22.5L108.28-22.5Q106.33-22.5 104.53-18.8L104.53-18.8 104.53 0 98.53 0 98.53-18.95Q98.53-22.5 96.63-22.5L96.63-22.5Q94.58-22.5 92.83-18.8L92.83-18.8 92.83 0 86.78 0 86.78-26.45 92.13-26.45 92.53-23.05Q95.13-27.15 98.78-27.15L98.78-27.15Q100.63-27.15 101.98-26 103.33-24.85 104.03-22.75L104.03-22.75Q106.68-27.15 110.43-27.15L110.43-27.15ZM143.96-6.4Q143.96-5.1 144.31-4.48 144.66-3.85 145.46-3.45L145.46-3.45 144.21 0.65Q142.16 0.4 140.93-0.45 139.71-1.3 139.11-3.05L139.11-3.05Q136.81 0.75 132.66 0.75L132.66 0.75Q129.36 0.75 127.41-1.48 125.46-3.7 125.46-7.4L125.46-7.4Q125.46-11.7 128.13-13.95 130.81-16.2 135.91-16.2L135.91-16.2 137.96-16.2 137.96-18.05Q137.96-20.55 137.08-21.58 136.21-22.6 134.26-22.6L134.26-22.6Q131.91-22.6 128.41-21.3L128.41-21.3 127.01-25.3Q129.01-26.2 131.16-26.68 133.31-27.15 135.26-27.15L135.26-27.15Q143.96-27.15 143.96-18.35L143.96-18.35 143.96-6.4ZM134.31-3.7Q136.71-3.7 137.96-7L137.96-7 137.96-12.55 136.51-12.55Q133.96-12.55 132.78-11.4 131.61-10.25 131.61-7.85L131.61-7.85Q131.61-5.8 132.31-4.75 133.01-3.7 134.31-3.7L134.31-3.7ZM155.03-37.05L161.18-37.7 161.18 0 155.03 0 155.03-37.05ZM168.53-26.45L174.53-26.45 167.53-14.75 175.13 0 168.53 0 161.43-14.45 168.53-26.45ZM201.81-13.85Q201.81-13.4 201.66-11.3L201.66-11.3 188.01-11.3Q188.21-7.2 189.44-5.58 190.66-3.95 192.91-3.95L192.91-3.95Q194.46-3.95 195.71-4.48 196.96-5 198.41-6.15L198.41-6.15 200.96-2.65Q197.46 0.75 192.56 0.75L192.56 0.75Q187.36 0.75 184.59-2.85 181.81-6.45 181.81-13L181.81-13Q181.81-19.55 184.46-23.35 187.11-27.15 191.96-27.15L191.96-27.15Q196.61-27.15 199.21-23.78 201.81-20.4 201.81-13.85L201.81-13.85ZM195.81-15.3L195.81-15.65Q195.81-19.4 194.91-21.13 194.01-22.85 192.01-22.85L192.01-22.85Q190.16-22.85 189.19-21.18 188.21-19.5 188.01-15.3L188.01-15.3 195.81-15.3ZM245.36-13.85Q245.36-13.4 245.21-11.3L245.21-11.3 231.56-11.3Q231.76-7.2 232.99-5.58 234.21-3.95 236.46-3.95L236.46-3.95Q238.01-3.95 239.26-4.48 240.51-5 241.96-6.15L241.96-6.15 244.51-2.65Q241.01 0.75 236.11 0.75L236.11 0.75Q230.91 0.75 228.14-2.85 225.36-6.45 225.36-13L225.36-13Q225.36-19.55 228.01-23.35 230.66-27.15 235.51-27.15L235.51-27.15Q240.16-27.15 242.76-23.78 245.36-20.4 245.36-13.85L245.36-13.85ZM239.36-15.3L239.36-15.65Q239.36-19.4 238.46-21.13 237.56-22.85 235.56-22.85L235.56-22.85Q233.71-22.85 232.74-21.18 231.76-19.5 231.56-15.3L231.56-15.3 239.36-15.3ZM267.34-26.45L273.39-26.45 266.49 0 259.24 0 252.14-26.45 258.49-26.45 262.84-4.95 267.34-26.45ZM300.42-13.85Q300.42-13.4 300.27-11.3L300.27-11.3 286.62-11.3Q286.82-7.2 288.04-5.58 289.27-3.95 291.52-3.95L291.52-3.95Q293.07-3.95 294.32-4.48 295.57-5 297.02-6.15L297.02-6.15 299.57-2.65Q296.07 0.75 291.17 0.75L291.17 0.75Q285.97 0.75 283.19-2.85 280.42-6.45 280.42-13L280.42-13Q280.42-19.55 283.07-23.35 285.72-27.15 290.57-27.15L290.57-27.15Q295.22-27.15 297.82-23.78 300.42-20.4 300.42-13.85L300.42-13.85ZM294.42-15.3L294.42-15.65Q294.42-19.4 293.52-21.13 292.62-22.85 290.62-22.85L290.62-22.85Q288.77-22.85 287.79-21.18 286.82-19.5 286.62-15.3L286.62-15.3 294.42-15.3ZM321.64-27.1Q322.79-27.1 323.69-26.75L323.69-26.75 322.69-20.85Q321.69-21.1 320.84-21.1L320.84-21.1Q318.94-21.1 317.84-19.45 316.74-17.8 316.14-14.55L316.14-14.55 316.14 0 309.99 0 309.99-26.45 315.34-26.45 315.79-21.85Q317.64-27.1 321.64-27.1L321.64-27.1ZM350.47-26.45L343.47 0.1Q342.17 4.9 339.27 7.65 336.37 10.4 331.52 10.85L331.52 10.85 330.82 6.5Q333.97 5.85 335.55 4.42 337.12 3 338.02 0L338.02 0 335.72 0 329.02-26.45 335.27-26.45 339.67-4.1 344.37-26.45 350.47-26.45ZM386.72-37.7L392.87-37.05 392.87 0 387.42 0 387.12-3.05Q384.77 0.75 381.07 0.75L381.07 0.75Q376.97 0.75 374.8-2.93 372.62-6.6 372.62-13.2L372.62-13.2Q372.62-17.4 373.75-20.58 374.87-23.75 376.87-25.45 378.87-27.15 381.47-27.15L381.47-27.15Q384.67-27.15 386.72-24.5L386.72-24.5 386.72-37.7ZM382.82-3.9Q383.97-3.9 384.9-4.7 385.82-5.5 386.72-7L386.72-7 386.72-19.85Q385.12-22.55 383.07-22.55L383.07-22.55Q379.02-22.55 379.02-13.25L379.02-13.25Q379.02-8.2 380.02-6.05 381.02-3.9 382.82-3.9L382.82-3.9ZM415.5-27.1Q416.65-27.1 417.55-26.75L417.55-26.75 416.55-20.85Q415.55-21.1 414.7-21.1L414.7-21.1Q412.8-21.1 411.7-19.45 410.6-17.8 410-14.55L410-14.55 410 0 403.85 0 403.85-26.45 409.2-26.45 409.65-21.85Q411.5-27.1 415.5-27.1L415.5-27.1ZM425.68-26.45L431.83-26.45 431.83 0 425.68 0 425.68-26.45ZM428.73-39.65Q430.38-39.65 431.4-38.6 432.43-37.55 432.43-35.9L432.43-35.9Q432.43-34.3 431.4-33.25 430.38-32.2 428.73-32.2L428.73-32.2Q427.08-32.2 426.05-33.25 425.03-34.3 425.03-35.9L425.03-35.9Q425.03-37.55 426.05-38.6 427.08-39.65 428.73-39.65L428.73-39.65ZM455.15-27.15Q458-27.15 459.65-25.1 461.3-23.05 461.3-19.6L461.3-19.6 461.3 0 455.15 0 455.15-18.9Q455.15-20.8 454.63-21.63 454.1-22.45 453.1-22.45L453.1-22.45Q451-22.45 448.95-18.5L448.95-18.5 448.95 0 442.8 0 442.8-26.45 448.15-26.45 448.6-23Q449.95-25.1 451.48-26.13 453-27.15 455.15-27.15L455.15-27.15ZM472.13-37.05L478.28-37.7 478.28 0 472.13 0 472.13-37.05ZM485.63-26.45L491.63-26.45 484.63-14.75 492.23 0 485.63 0 478.53-14.45 485.63-26.45ZM532.08-6.4Q532.08-5.1 532.43-4.48 532.78-3.85 533.58-3.45L533.58-3.45 532.33 0.65Q530.28 0.4 529.06-0.45 527.83-1.3 527.23-3.05L527.23-3.05Q524.93 0.75 520.78 0.75L520.78 0.75Q517.48 0.75 515.53-1.48 513.58-3.7 513.58-7.4L513.58-7.4Q513.58-11.7 516.26-13.95 518.93-16.2 524.03-16.2L524.03-16.2 526.08-16.2 526.08-18.05Q526.08-20.55 525.21-21.58 524.33-22.6 522.38-22.6L522.38-22.6Q520.03-22.6 516.53-21.3L516.53-21.3 515.13-25.3Q517.13-26.2 519.28-26.68 521.43-27.15 523.38-27.15L523.38-27.15Q532.08-27.15 532.08-18.35L532.08-18.35 532.08-6.4ZM522.43-3.7Q524.83-3.7 526.08-7L526.08-7 526.08-12.55 524.63-12.55Q522.08-12.55 520.91-11.4 519.73-10.25 519.73-7.85L519.73-7.85Q519.73-5.8 520.43-4.75 521.13-3.7 522.43-3.7L522.43-3.7ZM581.94-27.15Q584.59-27.15 586.19-25.1 587.79-23.05 587.79-19.6L587.79-19.6 587.79 0 581.74 0 581.74-18.95Q581.74-20.85 581.24-21.68 580.74-22.5 579.79-22.5L579.79-22.5Q577.84-22.5 576.04-18.8L576.04-18.8 576.04 0 570.04 0 570.04-18.95Q570.04-22.5 568.14-22.5L568.14-22.5Q566.09-22.5 564.34-18.8L564.34-18.8 564.34 0 558.29 0 558.29-26.45 563.64-26.45 564.04-23.05Q566.64-27.15 570.29-27.15L570.29-27.15Q572.14-27.15 573.49-26 574.84-24.85 575.54-22.75L575.54-22.75Q578.19-27.15 581.94-27.15L581.94-27.15ZM615.46-6.4Q615.46-5.1 615.81-4.48 616.16-3.85 616.96-3.45L616.96-3.45 615.71 0.65Q613.66 0.4 612.44-0.45 611.21-1.3 610.61-3.05L610.61-3.05Q608.31 0.75 604.16 0.75L604.16 0.75Q600.86 0.75 598.91-1.48 596.96-3.7 596.96-7.4L596.96-7.4Q596.96-11.7 599.64-13.95 602.31-16.2 607.41-16.2L607.41-16.2 609.46-16.2 609.46-18.05Q609.46-20.55 608.59-21.58 607.71-22.6 605.76-22.6L605.76-22.6Q603.41-22.6 599.91-21.3L599.91-21.3 598.51-25.3Q600.51-26.2 602.66-26.68 604.81-27.15 606.76-27.15L606.76-27.15Q615.46-27.15 615.46-18.35L615.46-18.35 615.46-6.4ZM605.81-3.7Q608.21-3.7 609.46-7L609.46-7 609.46-12.55 608.01-12.55Q605.46-12.55 604.29-11.4 603.11-10.25 603.11-7.85L603.11-7.85Q603.11-5.8 603.81-4.75 604.51-3.7 605.81-3.7L605.81-3.7ZM633.89-27.15Q638.59-27.15 641.84-24.05L641.84-24.05 639.49-20.7Q638.09-21.7 636.84-22.2 635.59-22.7 634.29-22.7L634.29-22.7Q632.84-22.7 632.02-21.93 631.19-21.15 631.19-19.8L631.19-19.8Q631.19-18.45 632.12-17.63 633.04-16.8 635.84-15.7L635.84-15.7Q639.29-14.35 640.94-12.5 642.59-10.65 642.59-7.55L642.59-7.55Q642.59-3.7 639.89-1.48 637.19 0.75 633.04 0.75L633.04 0.75Q630.34 0.75 628.07-0.23 625.79-1.2 624.09-2.95L624.09-2.95 627.09-6.25Q629.89-3.8 632.79-3.8L632.79-3.8Q634.44-3.8 635.39-4.67 636.34-5.55 636.34-7.1L636.34-7.1Q636.34-8.25 635.94-8.97 635.54-9.7 634.54-10.33 633.54-10.95 631.54-11.7L631.54-11.7Q628.09-13.05 626.62-14.85 625.14-16.65 625.14-19.45L625.14-19.45Q625.14-22.8 627.52-24.98 629.89-27.15 633.89-27.15L633.89-27.15ZM662.87-5L665.02-1.2Q662.57 0.75 659.27 0.75L659.27 0.75Q655.82 0.75 654.02-1.23 652.22-3.2 652.22-6.6L652.22-6.6 652.22-22 649.12-22 649.12-26.45 652.22-26.45 652.22-32.3 658.37-33.05 658.37-26.45 663.37-26.45 662.77-22 658.37-22 658.37-6.6Q658.37-4.2 660.42-4.2L660.42-4.2Q661.07-4.2 661.57-4.38 662.07-4.55 662.87-5L662.87-5ZM691.69-13.85Q691.69-13.4 691.54-11.3L691.54-11.3 677.89-11.3Q678.09-7.2 679.32-5.58 680.54-3.95 682.79-3.95L682.79-3.95Q684.34-3.95 685.59-4.48 686.84-5 688.29-6.15L688.29-6.15 690.84-2.65Q687.34 0.75 682.44 0.75L682.44 0.75Q677.24 0.75 674.47-2.85 671.69-6.45 671.69-13L671.69-13Q671.69-19.55 674.34-23.35 676.99-27.15 681.84-27.15L681.84-27.15Q686.49-27.15 689.09-23.78 691.69-20.4 691.69-13.85L691.69-13.85ZM685.69-15.3L685.69-15.65Q685.69-19.4 684.79-21.13 683.89-22.85 681.89-22.85L681.89-22.85Q680.04-22.85 679.07-21.18 678.09-19.5 677.89-15.3L677.89-15.3 685.69-15.3ZM712.92-27.1Q714.07-27.1 714.97-26.75L714.97-26.75 713.97-20.85Q712.97-21.1 712.12-21.1L712.12-21.1Q710.22-21.1 709.12-19.45 708.02-17.8 707.42-14.55L707.42-14.55 707.42 0 701.27 0 701.27-26.45 706.62-26.45 707.07-21.85Q708.92-27.1 712.92-27.1L712.92-27.1ZM735.3-27.15Q739.2-27.15 741.2-23.58 743.2-20 743.2-13.3L743.2-13.3Q743.2-6.8 740.92-3.03 738.65 0.75 734.6 0.75L734.6 0.75Q731.4 0.75 729.25-2.1L729.25-2.1 729.25 10.15 723.1 10.85 723.1-26.45 728.55-26.45 728.8-23.25Q730.1-25.25 731.7-26.2 733.3-27.15 735.3-27.15L735.3-27.15ZM732.95-3.95Q734.85-3.95 735.85-6.13 736.85-8.3 736.85-13.25L736.85-13.25Q736.85-18.45 736-20.5 735.15-22.55 733.35-22.55L733.35-22.55Q731.05-22.55 729.25-19.25L729.25-19.25 729.25-6.45Q730.85-3.95 732.95-3.95L732.95-3.95ZM753.07-26.45L759.22-26.45 759.22 0 753.07 0 753.07-26.45ZM756.12-39.65Q757.77-39.65 758.8-38.6 759.82-37.55 759.82-35.9L759.82-35.9Q759.82-34.3 758.8-33.25 757.77-32.2 756.12-32.2L756.12-32.2Q754.47-32.2 753.45-33.25 752.42-34.3 752.42-35.9L752.42-35.9Q752.42-37.55 753.45-38.6 754.47-39.65 756.12-39.65L756.12-39.65ZM789.05-13.85Q789.05-13.4 788.9-11.3L788.9-11.3 775.25-11.3Q775.45-7.2 776.68-5.58 777.9-3.95 780.15-3.95L780.15-3.95Q781.7-3.95 782.95-4.48 784.2-5 785.65-6.15L785.65-6.15 788.2-2.65Q784.7 0.75 779.8 0.75L779.8 0.75Q774.6 0.75 771.83-2.85 769.05-6.45 769.05-13L769.05-13Q769.05-19.55 771.7-23.35 774.35-27.15 779.2-27.15L779.2-27.15Q783.85-27.15 786.45-23.78 789.05-20.4 789.05-13.85L789.05-13.85ZM783.05-15.3L783.05-15.65Q783.05-19.4 782.15-21.13 781.25-22.85 779.25-22.85L779.25-22.85Q777.4-22.85 776.43-21.18 775.45-19.5 775.25-15.3L775.25-15.3 783.05-15.3ZM808.13-27.15Q810.28-27.15 812.03-26.43 813.78-25.7 815.38-24.15L815.38-24.15 812.73-20.65Q811.63-21.55 810.65-21.98 809.68-22.4 808.53-22.4L808.53-22.4Q806.28-22.4 805.13-20.28 803.98-18.15 803.98-13.1L803.98-13.1Q803.98-8.2 805.15-6.2 806.33-4.2 808.53-4.2L808.53-4.2Q809.63-4.2 810.53-4.6 811.43-5 812.63-5.85L812.63-5.85 815.38-2.3Q812.18 0.75 808.23 0.75L808.23 0.75Q803.13 0.75 800.3-2.73 797.48-6.2 797.48-13L797.48-13Q797.48-17.4 798.78-20.6 800.08-23.8 802.5-25.48 804.93-27.15 808.13-27.15L808.13-27.15ZM842.55-13.85Q842.55-13.4 842.4-11.3L842.4-11.3 828.75-11.3Q828.95-7.2 830.18-5.58 831.4-3.95 833.65-3.95L833.65-3.95Q835.2-3.95 836.45-4.48 837.7-5 839.15-6.15L839.15-6.15 841.7-2.65Q838.2 0.75 833.3 0.75L833.3 0.75Q828.1 0.75 825.33-2.85 822.55-6.45 822.55-13L822.55-13Q822.55-19.55 825.2-23.35 827.85-27.15 832.7-27.15L832.7-27.15Q837.35-27.15 839.95-23.78 842.55-20.4 842.55-13.85L842.55-13.85ZM836.55-15.3L836.55-15.65Q836.55-19.4 835.65-21.13 834.75-22.85 832.75-22.85L832.75-22.85Q830.9-22.85 829.93-21.18 828.95-19.5 828.75-15.3L828.75-15.3 836.55-15.3Z" opacity="1" transform="matrix(1,0,0,1,0,0)" fill="#66a7ad" class="slogan-text-1" data-fill-palette-color="secondary" id="text-1"></path></svg></g></svg></g></svg></g></svg></g><g transform="matrix(1,0,0,1,75.54432,0)"><svg viewBox="0 0 244.43135999999998 244.43135999999998" height="244.43135999999998" width="244.43135999999998"><g><svg viewBox="0 0 244.43135999999998 244.43135999999998" height="244.43135999999998" width="244.43135999999998"><g transform="matrix(1,0,0,1,81.61090539493057,64.60265593644992)"><svg viewBox="0 0 81.20954921013886 115.22604812710014" height="115.22604812710014" width="81.20954921013886"><g><svg xmlns="http://www.w3.org/2000/svg" xmlns:xlink="http://www.w3.org/1999/xlink" version="1.1" x="0" y="0" viewBox="18.781999999999996 5.116529100000001 63.512000000000015 90.11547089999999" enable-background="new 0 0 100 100" xml:space="preserve" height="115.22604812710014" width="81.20954921013886" class="icon-cg-0" data-fill-palette-color="accent" id="cg-0"><path d="M35.095 65.335c-0.253 0-0.51-0.025-0.762-0.073-4.033-0.781-5.737-7.131-5.064-18.873 0.492-8.576 2.118-17.045 2.134-17.13l0.089-0.459 19.086 3.695-0.09 0.46C50.227 34.277 44.011 65.335 35.095 65.335zM32.236 29.896c-0.342 1.874-1.612 9.177-2.033 16.555-0.632 11.037 0.858 17.225 4.309 17.893 0.196 0.038 0.387 0.057 0.584 0.057 6.652 0 12.54-22.06 14.383-31.165L32.236 29.896z" fill="#66a7ad" data-fill-palette-color="accent"></path><rect x="30.606" y="64.567" transform="matrix(0.9818 0.1901 -0.1901 0.9818 15.3167 -4.6615)" width="2.707" height="25.903" fill="#66a7ad" data-fill-palette-color="accent"></rect><path d="M39.016 95.232l-20.234-3.918 0.113-0.475c0.069-0.29 0.625-1.742 4.747-1.742 1.622 0 3.622 0.227 5.945 0.677 9.62 1.863 9.617 4.491 9.518 4.999L39.016 95.232zM20.265 90.648l17.676 3.423c-0.56-0.766-2.411-2.193-8.532-3.378-2.264-0.438-4.204-0.66-5.767-0.66C21.729 90.032 20.754 90.359 20.265 90.648z" fill="#66a7ad" data-fill-palette-color="accent"></path><g fill="#66a7ad" data-fill-palette-color="accent"><path d="M34.902 55.346c-0.051 0-0.102-0.005-0.154-0.016-0.212-0.041-0.396-0.162-0.517-0.342-0.121-0.179-0.165-0.394-0.124-0.606 0.083-0.43 0.5-0.729 0.948-0.64 0.212 0.041 0.396 0.162 0.517 0.342 0.121 0.179 0.165 0.395 0.124 0.606C35.622 55.07 35.288 55.346 34.902 55.346zM34.901 54.194c-0.163 0-0.304 0.117-0.335 0.278-0.018 0.09 0.001 0.18 0.052 0.256 0.051 0.076 0.129 0.127 0.218 0.144 0.184 0.03 0.365-0.089 0.4-0.271 0.018-0.09-0.001-0.18-0.052-0.256-0.051-0.076-0.128-0.127-0.218-0.144C34.944 54.197 34.923 54.194 34.901 54.194z" fill="#66a7ad" data-fill-palette-color="accent"></path></g><g fill="#66a7ad" data-fill-palette-color="accent"><path d="M41.991 44.751c-0.076 0-0.153-0.007-0.231-0.022-0.316-0.061-0.59-0.242-0.77-0.509-0.18-0.267-0.246-0.589-0.184-0.905 0.124-0.642 0.754-1.085 1.413-0.955 0.316 0.061 0.59 0.242 0.77 0.509 0.18 0.267 0.246 0.589 0.184 0.905C43.064 44.34 42.566 44.751 41.991 44.751zM41.988 42.806c-0.352 0-0.657 0.251-0.723 0.598-0.038 0.194 0.002 0.39 0.113 0.554 0.111 0.163 0.278 0.274 0.471 0.311 0.409 0.084 0.79-0.191 0.865-0.584 0.038-0.194-0.002-0.39-0.113-0.554-0.111-0.163-0.278-0.274-0.471-0.311C42.082 42.811 42.035 42.806 41.988 42.806z" fill="#66a7ad" data-fill-palette-color="accent"></path></g><g fill="#66a7ad" data-fill-palette-color="accent"><path d="M36.559 36.787c-0.06 0-0.121-0.005-0.183-0.017-0.516-0.1-0.855-0.602-0.755-1.118 0.099-0.507 0.591-0.86 1.118-0.756 0.516 0.1 0.855 0.602 0.756 1.118C37.408 36.462 37.014 36.787 36.559 36.787zM36.557 35.346c-0.232 0-0.433 0.166-0.477 0.395-0.051 0.263 0.121 0.519 0.385 0.57 0.264 0.057 0.52-0.126 0.57-0.385 0.051-0.263-0.122-0.519-0.385-0.57C36.619 35.349 36.588 35.346 36.557 35.346z" fill="#66a7ad" data-fill-palette-color="accent"></path></g><g fill="#66a7ad" data-fill-palette-color="accent"><circle fill="#66a7ad" cx="38.057" cy="56.935" r="0.72" data-fill-palette-color="accent"></circle><path d="M38.058 57.89c-0.06 0-0.121-0.006-0.183-0.018-0.516-0.1-0.855-0.601-0.755-1.118 0.098-0.507 0.59-0.858 1.118-0.755 0.516 0.1 0.855 0.602 0.755 1.119C38.907 57.565 38.514 57.89 38.058 57.89zM38.056 56.448c-0.232 0-0.432 0.166-0.476 0.395-0.051 0.264 0.121 0.52 0.385 0.571 0.27 0.047 0.521-0.126 0.57-0.385 0.051-0.263-0.121-0.52-0.385-0.571C38.118 56.451 38.087 56.448 38.056 56.448z" fill="#66a7ad" data-fill-palette-color="accent"></path></g><g fill="#66a7ad" data-fill-palette-color="accent"><path d="M44.286 42.519c-0.051 0-0.103-0.005-0.155-0.015-0.212-0.041-0.395-0.162-0.516-0.342-0.121-0.179-0.165-0.394-0.124-0.606 0.083-0.43 0.506-0.728 0.948-0.641 0.438 0.085 0.726 0.51 0.641 0.948C45.005 42.243 44.672 42.519 44.286 42.519zM44.284 41.368c-0.163 0-0.304 0.116-0.335 0.277-0.017 0.09 0.001 0.181 0.052 0.256 0.051 0.075 0.129 0.126 0.218 0.144 0.191 0.042 0.366-0.088 0.4-0.27 0.036-0.184-0.085-0.364-0.27-0.4C44.328 41.37 44.306 41.368 44.284 41.368z" fill="#66a7ad" data-fill-palette-color="accent"></path></g><path d="M65.982 64.884C65.981 64.884 65.981 64.884 65.982 64.884c-8.917-0.003-15.133-31.058-15.393-32.38l-0.09-0.46 19.086-3.695 0.09 0.459c0.016 0.085 1.642 8.554 2.133 17.13 0.673 11.742-1.03 18.092-5.064 18.873C66.491 64.859 66.235 64.884 65.982 64.884zM51.599 32.783c1.843 9.104 7.731 31.163 14.383 31.165 0 0 0 0 0.001 0 0.193 0 0.389-0.019 0.584-0.057 3.45-0.668 4.94-6.855 4.309-17.893-0.423-7.377-1.691-14.681-2.034-16.555L51.599 32.783z" fill="#66a7ad" data-fill-palette-color="accent"></path><rect x="67.763" y="64.115" transform="matrix(-0.9818 0.1901 -0.1901 -0.9818 151.6207 139.5923)" width="2.707" height="25.903" fill="#66a7ad" data-fill-palette-color="accent"></rect><path d="M62.06 94.781l-0.09-0.459c-0.098-0.508-0.1-3.135 9.519-4.998 2.323-0.449 4.324-0.678 5.947-0.678 4.12 0 4.675 1.451 4.745 1.742l0.113 0.475L62.06 94.781zM77.436 89.581c-1.564 0-3.504 0.223-5.769 0.661-6.12 1.185-7.972 2.611-8.532 3.377l17.681-3.424C80.331 89.911 79.356 89.581 77.436 89.581z" fill="#66a7ad" data-fill-palette-color="accent"></path><g fill="#66a7ad" data-fill-palette-color="accent"><path d="M64.518 53.604L64.518 53.604c-0.386 0-0.721-0.276-0.795-0.656-0.085-0.438 0.203-0.864 0.64-0.948 0.437-0.085 0.866 0.209 0.949 0.639 0.041 0.213-0.003 0.428-0.123 0.607-0.121 0.18-0.305 0.3-0.517 0.342C64.62 53.599 64.568 53.604 64.518 53.604zM64.52 52.453c-0.022 0-0.044 0.002-0.067 0.006-0.185 0.037-0.307 0.216-0.271 0.4 0.036 0.182 0.209 0.306 0.401 0.271 0.09-0.017 0.167-0.068 0.218-0.144 0.051-0.076 0.07-0.167 0.053-0.257C64.823 52.569 64.683 52.453 64.52 52.453z" fill="#66a7ad" data-fill-palette-color="accent"></path></g><path d="M58.945 44.515c-0.634 0-1.181-0.452-1.301-1.075-0.068-0.348 0.005-0.701 0.203-0.994 0.198-0.294 0.499-0.492 0.846-0.56 0.731-0.14 1.419 0.345 1.554 1.05 0.068 0.348-0.005 0.701-0.203 0.994-0.198 0.294-0.499 0.492-0.847 0.56C59.113 44.507 59.028 44.515 58.945 44.515zM58.947 42.33c-0.055 0-0.11 0.005-0.164 0.016-0.226 0.043-0.42 0.172-0.548 0.362-0.129 0.19-0.175 0.419-0.132 0.643 0.088 0.457 0.534 0.773 1.006 0.68 0.226-0.043 0.42-0.172 0.549-0.362 0.129-0.19 0.175-0.418 0.132-0.643C59.711 42.622 59.357 42.33 58.947 42.33z" fill="#66a7ad" data-fill-palette-color="accent"></path><path d="M62.264 42.089L62.264 42.089c-0.456 0-0.849-0.325-0.936-0.773-0.048-0.251 0.003-0.505 0.146-0.716 0.142-0.211 0.359-0.354 0.61-0.403 0.515-0.103 1.018 0.248 1.117 0.756 0.049 0.25-0.003 0.504-0.146 0.716-0.142 0.211-0.359 0.354-0.609 0.403C62.385 42.083 62.323 42.089 62.264 42.089zM62.266 40.647c-0.031 0-0.062 0.003-0.093 0.009-0.128 0.025-0.238 0.097-0.311 0.205-0.073 0.108-0.1 0.237-0.075 0.365 0.045 0.228 0.246 0.394 0.478 0.394l0 0c0.03 0 0.061-0.003 0.092-0.009 0.128-0.025 0.238-0.098 0.311-0.205 0.073-0.108 0.1-0.237 0.075-0.364C62.698 40.813 62.498 40.647 62.266 40.647z" fill="#66a7ad" data-fill-palette-color="accent"></path><g fill="#66a7ad" data-fill-palette-color="accent"><path d="M63.018 57.438c-0.455 0-0.848-0.325-0.935-0.773-0.1-0.517 0.238-1.018 0.754-1.119 0.531-0.103 1.021 0.249 1.119 0.755 0.1 0.516-0.238 1.018-0.755 1.118C63.139 57.432 63.078 57.438 63.018 57.438zM63.019 55.997c-0.031 0-0.062 0.003-0.093 0.008-0.263 0.051-0.436 0.308-0.385 0.571 0.05 0.258 0.307 0.431 0.57 0.385 0.264-0.051 0.437-0.307 0.386-0.57C63.452 56.163 63.251 55.997 63.019 55.997z" fill="#66a7ad" data-fill-palette-color="accent"></path></g><path d="M59.087 40.917L59.087 40.917c-0.386 0-0.721-0.275-0.795-0.655-0.085-0.439 0.203-0.864 0.64-0.949 0.444-0.088 0.867 0.211 0.949 0.641 0.085 0.438-0.203 0.863-0.64 0.948C59.189 40.912 59.137 40.917 59.087 40.917zM59.088 39.766c-0.022 0-0.044 0.002-0.066 0.006-0.185 0.036-0.307 0.216-0.271 0.4 0.032 0.16 0.173 0.277 0.336 0.277l0 0c0.021 0 0.043-0.002 0.065-0.006 0.185-0.036 0.307-0.216 0.271-0.4C59.392 39.882 59.25 39.766 59.088 39.766z" fill="#66a7ad" data-fill-palette-color="accent"></path><g fill="#66a7ad" data-fill-palette-color="accent"><path d="M68.107 57.453c-0.648 0-1.209-0.464-1.333-1.101-0.142-0.736 0.341-1.451 1.076-1.593 0.758-0.153 1.454 0.355 1.593 1.077 0.142 0.735-0.341 1.449-1.076 1.592C68.278 57.445 68.192 57.453 68.107 57.453zM68.108 55.201c-0.056 0-0.113 0.005-0.17 0.016-0.483 0.093-0.8 0.563-0.707 1.045 0.093 0.475 0.563 0.799 1.045 0.707 0.483-0.094 0.8-0.563 0.707-1.045C68.902 55.505 68.535 55.201 68.108 55.201z" fill="#66a7ad" data-fill-palette-color="accent"></path></g><g fill="#66a7ad" data-fill-palette-color="accent"><circle fill="#66a7ad" cx="66.751" cy="32.262" r="0.58" data-fill-palette-color="accent"></circle><path d="M66.75 33.071L66.75 33.071c-0.386 0-0.721-0.276-0.794-0.656-0.041-0.212 0.003-0.428 0.123-0.607 0.121-0.179 0.305-0.3 0.517-0.342 0.446-0.086 0.866 0.211 0.948 0.641 0.085 0.438-0.203 0.863-0.64 0.948C66.853 33.067 66.801 33.071 66.75 33.071zM66.751 31.92c-0.021 0-0.043 0.002-0.065 0.006-0.09 0.017-0.167 0.068-0.218 0.144-0.051 0.076-0.07 0.167-0.053 0.257 0.031 0.16 0.172 0.277 0.335 0.277l0 0c0.022 0 0.043-0.002 0.065-0.006 0.185-0.036 0.307-0.216 0.271-0.4C67.055 32.036 66.915 31.92 66.751 31.92z" fill="#66a7ad" data-fill-palette-color="accent"></path></g><rect x="36.794" y="23.289" transform="matrix(0.5027 0.8645 -0.8645 0.5027 41.7514 -25.2965)" width="12.136" height="0.701" fill="#66a7ad" data-fill-palette-color="accent"></rect><rect x="36.146" y="16.415" transform="matrix(0.1255 0.9921 -0.9921 0.1255 58.4729 -32.804)" width="23.397" height="0.701" fill="#66a7ad" data-fill-palette-color="accent"></rect><rect x="64.696" y="17.85" transform="matrix(0.422 0.9066 -0.9066 0.422 60.8095 -44.1701)" width="0.701" height="15.513" fill="#66a7ad" data-fill-palette-color="accent"></rect><rect x="49.37" y="38.505" transform="matrix(0.998 0.0625 -0.0625 0.998 2.9132 -3.0175)" width="0.702" height="13.165" fill="#66a7ad" data-fill-palette-color="accent"></rect><rect x="26.951" y="24.921" transform="matrix(0.8645 0.5027 -0.5027 0.8645 17.5749 -14.6411)" width="17.976" height="0.701" fill="#66a7ad" data-fill-palette-color="accent"></rect><rect x="53.209" y="15.027" transform="matrix(0.963 0.2694 -0.2694 0.963 7.5709 -13.6612)" width="0.702" height="11.454" fill="#66a7ad" data-fill-palette-color="accent"></rect><rect x="47.965" y="47.313" transform="matrix(0.2129 0.9771 -0.9771 0.2129 88.1162 -14.0591)" width="9.638" height="0.701" fill="#66a7ad" data-fill-palette-color="accent"></rect><rect x="59.594" y="10.017" transform="matrix(0.8031 0.5958 -0.5958 0.8031 24.0044 -31.6839)" width="0.701" height="20.926" fill="#66a7ad" data-fill-palette-color="accent"></rect><g fill="#66a7ad" data-fill-palette-color="accent"><circle fill="#66a7ad" cx="35.7" cy="58.878" r="0.58" data-fill-palette-color="accent"></circle><path d="M35.701 59.688c-0.051 0-0.102-0.005-0.154-0.016-0.438-0.086-0.726-0.511-0.641-0.949 0.084-0.43 0.507-0.726 0.948-0.64 0.438 0.084 0.726 0.51 0.641 0.949C36.422 59.412 36.087 59.688 35.701 59.688zM35.7 58.535c-0.163 0-0.304 0.117-0.335 0.278-0.036 0.184 0.086 0.364 0.271 0.401 0.179 0.032 0.364-0.09 0.4-0.271 0.036-0.185-0.085-0.365-0.27-0.401C35.744 58.538 35.722 58.535 35.7 58.535z" fill="#66a7ad" data-fill-palette-color="accent"></path></g><g fill="#66a7ad" data-fill-palette-color="accent"><path d="M34.27 33.847c-0.051 0-0.103-0.005-0.154-0.015-0.438-0.085-0.726-0.51-0.641-0.948 0.084-0.43 0.505-0.727 0.948-0.641 0.438 0.085 0.726 0.511 0.641 0.948C34.991 33.571 34.657 33.847 34.27 33.847zM34.27 32.696c-0.163 0-0.304 0.116-0.335 0.277-0.036 0.184 0.085 0.364 0.27 0.4 0.187 0.041 0.366-0.088 0.4-0.27 0.036-0.185-0.086-0.365-0.271-0.4C34.313 32.698 34.291 32.696 34.27 32.696z" fill="#66a7ad" data-fill-palette-color="accent"></path></g></svg></g></svg></g><g><path d="M3.681 91.336v0l-1.3-0.13 2.763-10.524c0.165-0.443 0.449-0.767 0.851-0.971 0.411-0.209 0.796-0.255 1.157-0.138v0c0.234 0.076 0.41 0.235 0.527 0.476 0.126 0.237 0.146 0.54 0.06 0.911v0l-1.715 4.466c6.508 1.621 12.399 3.17 17.673 4.649v0c0.492 0.335 0.666 0.727 0.52 1.176v0c-0.107 0.329-0.343 0.602-0.707 0.819-0.36 0.226-0.741 0.311-1.144 0.257v0c-0.962-0.355-2.432-0.854-4.411-1.498v0c-0.74-0.241-1.852-0.595-3.336-1.064-1.476-0.473-2.583-0.83-3.323-1.071v0c-2.144-0.697-4.071-1.363-5.781-1.996v0c-0.808 1.989-1.419 3.535-1.834 4.638z" fill="#66a7ad" data-fill-palette-color="accent"></path><path d="M8.378 73.899v0l0.938-1.189c0.729 0.279 1.871 0.772 3.427 1.48 1.55 0.705 2.625 1.177 3.225 1.417v0c-0.535-1.387-0.494-2.732 0.124-4.037v0c0.549-1.16 1.433-1.97 2.652-2.43 1.225-0.457 2.522-0.362 3.893 0.287v0l8.456 4.006c-0.003 0.271-0.086 0.577-0.248 0.92v0c-0.176 0.373-0.375 0.698-0.595 0.976v0c-0.132-0.063-0.337-0.167-0.613-0.313-0.28-0.14-0.489-0.242-0.627-0.307v0c-0.667-0.316-1.829-0.837-3.487-1.564-1.666-0.723-3.046-1.344-4.141-1.861v0c-1.697-0.487-2.862-0.064-3.493 1.27v0c-0.276 0.583-0.389 1.232-0.338 1.948 0.045 0.713 0.223 1.301 0.533 1.765v0c1.101 0.455 2.744 1.189 4.929 2.202 2.184 1.012 3.761 1.73 4.731 2.152v0c-0.121 0.443-0.25 0.809-0.388 1.097v0c-0.205 0.433-0.427 0.769-0.665 1.009v0c-0.824-0.435-2.144-1.082-3.959-1.941v0c-0.805-0.381-2.285-1.071-4.439-2.07-2.16-1.001-4.014-1.872-5.562-2.612-1.545-0.746-2.996-1.481-4.353-2.205z" fill="#66a7ad" data-fill-palette-color="accent"></path><path d="M37.418 58.954v0l1.198 0.45c-0.21 0.867-0.616 2.083-1.217 3.647-0.6 1.574-1.12 2.69-1.559 3.349v0c-0.453 0.681-1.075 1.122-1.864 1.323-0.784 0.205-1.612 0.201-2.484-0.012-0.863-0.215-1.679-0.49-2.446-0.826-0.764-0.341-1.478-0.732-2.142-1.174v0c-3.941-2.624-4.725-5.718-2.352-9.283v0c0.568-0.852 1.338-1.422 2.312-1.709 0.97-0.281 1.89-0.132 2.758 0.447v0c0.476 0.317 0.807 0.725 0.994 1.224 0.192 0.503 0.27 1.011 0.233 1.522-0.031 0.515-0.152 1.117-0.364 1.807-0.212 0.69-0.424 1.279-0.638 1.768-0.212 0.498-0.475 1.086-0.79 1.763-0.315 0.677-0.53 1.149-0.643 1.417v0c0.471 0.289 0.893 0.531 1.267 0.724 0.369 0.19 0.794 0.361 1.276 0.514 0.485 0.147 0.922 0.211 1.311 0.19 0.393-0.026 0.791-0.156 1.195-0.391 0.406-0.225 0.767-0.576 1.084-1.052v0c0.376-0.565 0.786-1.294 1.23-2.189 0.44-0.889 0.82-1.687 1.138-2.394 0.317-0.716 0.484-1.088 0.503-1.115zM27.013 63.603v0c0.815-2.557 1.34-4.748 1.573-6.575v0c-0.594-0.236-1.073-0.339-1.436-0.309-0.361 0.039-0.668 0.247-0.918 0.623v0c-0.641 0.963-0.892 2.054-0.754 3.274 0.145 1.223 0.656 2.218 1.535 2.987z" fill="#66a7ad" data-fill-palette-color="accent"></path><path d="M45.665 27.834v0l0.032 1.732c-1.831 0.175-3.282 0.745-4.354 1.712v0c-0.701 0.633-1.154 1.346-1.36 2.141-0.201 0.8-0.214 1.555-0.038 2.266 0.171 0.715 0.512 1.505 1.023 2.368 0.511 0.864 0.99 1.579 1.437 2.143 0.451 0.569 1 1.212 1.646 1.928v0c0.633 0.701 1.483 1.38 2.551 2.038 1.063 0.662 2.256 1.1 3.577 1.313 1.317 0.218 2.382-0.041 3.197-0.776v0c0.889-0.802 1.827-2.491 2.816-5.068v0c0.423 0.102 1.061 0.327 1.915 0.677v0c-0.667 2.824-1.697 4.864-3.089 6.121v0c-0.898 0.811-1.968 1.279-3.208 1.403-1.24 0.125-2.456-0.041-3.647-0.497-1.191-0.457-2.32-1.042-3.385-1.755-1.061-0.709-1.968-1.48-2.721-2.315v0c-0.824-0.913-1.557-1.864-2.198-2.853-0.637-0.993-1.181-2.078-1.635-3.255-0.448-1.181-0.572-2.346-0.372-3.494 0.2-1.148 0.771-2.148 1.714-2.998v0c0.815-0.735 1.786-1.356 2.914-1.864 1.128-0.507 2.19-0.83 3.185-0.967z" fill="#66a7ad" data-fill-palette-color="accent"></path><path d="M57.267 35.006v0c-0.425-0.628-0.833-1.372-1.223-2.232-0.386-0.855-0.732-1.797-1.037-2.828-0.31-1.027-0.391-2.005-0.241-2.933 0.153-0.923 0.583-1.624 1.287-2.102v0c1.508-1.022 3.176-1.164 5.002-0.425 1.83 0.744 3.308 1.948 4.435 3.611v0c0.478 0.705 0.879 1.457 1.204 2.256 0.325 0.8 0.558 1.642 0.699 2.527 0.145 0.89 0.074 1.757-0.212 2.602-0.287 0.845-0.799 1.566-1.536 2.161v0c-1.573 0.785-3.106 0.924-4.598 0.417-1.491-0.516-2.751-1.534-3.78-3.054zM57.022 26.038v0c-0.504 0.43-0.627 1.244-0.369 2.443 0.264 1.195 0.641 2.273 1.131 3.234 0.491 0.961 0.965 1.78 1.424 2.458v0c0.597 0.881 1.417 1.51 2.46 1.887 1.043 0.378 1.903 0.337 2.581-0.122v0c0.484-0.328 0.798-0.814 0.94-1.456 0.133-0.645 0.125-1.322-0.026-2.031-0.151-0.709-0.356-1.385-0.616-2.029-0.269-0.645-0.552-1.188-0.85-1.629v0c-0.873-1.288-1.921-2.213-3.145-2.773-1.233-0.562-2.409-0.556-3.53 0.018z" fill="#66a7ad" data-fill-palette-color="accent"></path><path d="M75.513 15.234v0l0.412 1.154c-0.766 0.251-1.402 0.501-1.91 0.75v0c-1.175 0.578-1.972 1.408-2.389 2.488-0.414 1.086-0.525 2.178-0.333 3.277 0.192 1.099 0.576 2.233 1.152 3.402v0c0.267 0.543 0.539 1.013 0.816 1.41 0.274 0.391 0.601 0.746 0.98 1.064 0.382 0.324 0.819 0.505 1.312 0.543 0.496 0.045 1.028-0.072 1.595-0.351v0c0.746-0.367 1.626-0.982 2.639-1.843v0c0.29-0.313 0.537-0.52 0.74-0.62v0c0.406-0.2 0.885 0.157 1.439 1.07v0c-1.257 1.211-2.524 2.131-3.8 2.76v0c-1.856 0.913-3.333 1.073-4.433 0.481-1.103-0.584-2.156-1.896-3.161-3.937v0c-0.587-1.193-1.019-2.274-1.295-3.242-0.279-0.974-0.407-1.949-0.383-2.925 0.033-0.972 0.333-1.854 0.9-2.644 0.576-0.787 1.425-1.457 2.546-2.009v0c1.259-0.62 2.317-0.895 3.173-0.828z" fill="#66a7ad" data-fill-palette-color="accent"></path><path d="M94.988 23.257v0l-2.493 0.784c-0.892-0.434-2.166-1.195-3.821-2.283-1.662-1.086-2.704-1.746-3.129-1.981v0l1.885 5.544c0.025 0.589-0.196 0.962-0.662 1.12v0c-0.327 0.111-0.683 0.088-1.067-0.069-0.386-0.164-0.676-0.42-0.872-0.768v0c-0.579-1.868-1.597-4.946-3.055-9.234-1.458-4.288-2.465-7.376-3.023-9.266v0l1.762-0.209c0.257 0.714 0.788 2.173 1.594 4.379 0.8 2.208 1.401 3.854 1.805 4.938v0l4.917-7.013 0.865 1.055c-1.278 1.818-2.682 4.248-4.212 7.29v0c0.66 0.351 2.162 1.256 4.505 2.714 2.349 1.456 4.017 2.456 5.001 2.999z" fill="#66a7ad" data-fill-palette-color="accent"></path><path d="M102.834 7.609v0l0.554 1.191c-0.494 0.14-1.244 0.392-2.25 0.756-1.012 0.366-1.775 0.62-2.288 0.764v0c0.222 0.634 0.449 1.477 0.679 2.529 0.231 1.052 0.438 1.964 0.619 2.735 0.187 0.763 0.426 1.515 0.717 2.257 0.291 0.742 0.696 1.275 1.216 1.598 0.519 0.323 1.15 0.41 1.894 0.262v0c0.561-0.112 1.232-0.383 2.014-0.811v0c0.489 0.614 0.851 1.064 1.084 1.349v0c-1.363 0.816-2.797 1.374-4.303 1.677v0c-0.561 0.112-1.077 0.04-1.549-0.219-0.477-0.25-0.877-0.604-1.2-1.062-0.322-0.458-0.632-1.057-0.93-1.797-0.291-0.742-0.525-1.455-0.703-2.138-0.17-0.678-0.344-1.464-0.523-2.357v0c-0.097-0.483-0.227-1.152-0.392-2.007-0.165-0.855-0.279-1.443-0.343-1.763v0c-0.179 0.056-0.612 0.16-1.301 0.312-0.683 0.144-1.08 0.227-1.191 0.248v0c-0.38-1.219-0.574-1.848-0.582-1.887v0c0.138 0.013 0.357-0.011 0.658-0.071v0c0.163-0.033 0.428-0.099 0.794-0.2 0.366-0.101 0.644-0.17 0.833-0.207v0c0.072-0.014 0.17-0.031 0.295-0.049 0.119-0.017 0.198-0.029 0.237-0.038v0c-0.337-2.055-0.589-3.734-0.755-5.037v0l1.325 0.06c0.108 0.439 0.217 0.913 0.325 1.421 0.11 0.514 0.233 1.079 0.37 1.696 0.132 0.625 0.231 1.103 0.298 1.435v0c0.49-0.058 1.225-0.167 2.203-0.329 0.973-0.154 1.704-0.26 2.195-0.318z" fill="#66a7ad" data-fill-palette-color="accent"></path><path d="M110.284 8.089v0l-0.682-1.396c0.458-0.531 1.049-0.975 1.774-1.333 0.732-0.352 1.47-0.559 2.212-0.619v0c3.188-0.256 5.004 2.373 5.448 7.888v0c0.061 0.756 0.108 1.876 0.14 3.362 0.039 1.478 0.088 2.585 0.147 3.32v0c-0.106 0.596-0.377 0.911-0.815 0.946v0c-0.338 0.027-0.663-0.117-0.975-0.431-0.312-0.315-0.485-0.682-0.519-1.1v0c-0.011-0.133-0.008-0.226 0.007-0.28v0c-1.076 1.221-2.277 1.884-3.602 1.991v0c-1.001 0.081-1.902-0.211-2.702-0.874-0.808-0.669-1.253-1.524-1.337-2.564v0c-0.141-1.757 0.417-3.396 1.676-4.919 1.251-1.528 2.746-2.362 4.482-2.502v0c0.08-0.006 0.156-0.009 0.229-0.008 0.081 0.007 0.171 0.016 0.273 0.028 0.107 0.005 0.187 0.005 0.24 0.001v0c-0.323-2.196-1.29-3.229-2.901-3.099v0c-0.941 0.076-1.973 0.606-3.095 1.589zM116.924 16.482v0c-0.067-1.329-0.127-2.331-0.182-3.008v0c-0.046-0.57-0.13-1.364-0.252-2.381v0l-0.229 0.018c-1.337 0.128-2.52 0.73-3.547 1.807-1.028 1.07-1.486 2.304-1.373 3.703v0c0.049 0.603 0.273 1.069 0.672 1.397 0.4 0.328 0.862 0.471 1.386 0.429v0c0.835-0.067 2.01-0.722 3.525-1.965z" fill="#66a7ad" data-fill-palette-color="accent"></path><path d="M124.905 5.08v0l1.302 0.312c0.119 1.552 0.205 3.994 0.258 7.328 0.06 3.327 0.1 5.386 0.119 6.178v0c-0.177 0.589-0.511 0.879-1.003 0.87v0c-0.346-0.006-0.672-0.152-0.98-0.437-0.308-0.278-0.494-0.617-0.56-1.018v0c0.054-0.777 0.166-2.797 0.337-6.059 0.171-3.269 0.347-5.661 0.527-7.174zM125.385 0v0c0.512 0.009 0.937 0.24 1.275 0.691 0.331 0.452 0.492 0.963 0.481 1.535v0c-0.007 0.412-0.113 0.746-0.317 1.002-0.204 0.249-0.476 0.371-0.815 0.365v0c-0.532-0.009-0.947-0.233-1.245-0.671-0.291-0.444-0.432-0.959-0.421-1.544v0c0.007-0.419 0.103-0.753 0.287-1.002 0.184-0.256 0.436-0.381 0.755-0.376z" fill="#66a7ad" data-fill-palette-color="accent"></path><path d="M131.592 18.701l2.226-18.009 1.276 0.403-1.006 18.368c-0.218 0.575-0.572 0.841-1.062 0.797v0c-0.344-0.03-0.66-0.199-0.946-0.505-0.287-0.299-0.45-0.651-0.488-1.054z" fill="#66a7ad" data-fill-palette-color="accent"></path><path d="M147.955 22.958v0l0.342-1.355c1.753 0.211 2.833 0.366 3.241 0.464v0c0.193-0.616 0.468-1.54 0.826-2.773v0c0.477-1.641 1.128-4.014 1.953-7.119 0.825-3.105 1.374-5.162 1.646-6.17v0l-2.72-0.935 0.268-1.637c0.742 0.236 1.895 0.581 3.459 1.036v0c1.603 0.465 2.791 0.821 3.565 1.067v0l-0.309 1.385c-0.35 0.037-0.81-0.014-1.379-0.151-0.571-0.131-0.932-0.212-1.083-0.242v0c-0.097 0.526-0.438 1.819-1.022 3.879-0.591 2.058-1.249 4.336-1.974 6.833-0.723 2.491-1.219 4.268-1.486 5.333v0c0.277 0.143 0.814 0.368 1.611 0.675 0.795 0.314 1.287 0.516 1.476 0.606v0l-0.463 1.413c-0.544-0.179-1.406-0.44-2.587-0.783v0c-0.619-0.18-1.54-0.444-2.762-0.791-1.224-0.341-2.091-0.586-2.602-0.735z" fill="#66a7ad" data-fill-palette-color="accent"></path><path d="M165.646 16.798v0l-4.284 10.416c-0.32 0.023-0.664-0.043-1.032-0.198v0c-0.276-0.117-0.57-0.291-0.883-0.525v0c0.512-1.076 1.462-3.227 2.847-6.453 1.383-3.22 2.463-5.579 3.241-7.078v0l1.068 0.755-0.539 1.505c1.339-0.589 2.609-0.63 3.809-0.122v0c0.613 0.259 1.084 0.509 1.416 0.75 0.329 0.247 0.59 0.611 0.785 1.089 0.198 0.488 0.268 1.048 0.21 1.681-0.064 0.63-0.246 1.495-0.545 2.596-0.297 1.095-0.708 2.35-1.235 3.767-0.524 1.41-1.226 3.175-2.108 5.293v0c-0.12-0.007-0.327-0.073-0.62-0.197v0c-0.631-0.267-1.087-0.553-1.369-0.861v0c0.049-0.304 0.211-0.781 0.485-1.43v0c0.14-0.331 0.416-0.95 0.829-1.859 0.41-0.902 0.723-1.608 0.938-2.116v0c0.355-0.839 0.634-1.584 0.836-2.234 0.205-0.657 0.354-1.323 0.445-2 0.094-0.682 0.042-1.26-0.155-1.734-0.201-0.482-0.552-0.829-1.054-1.041v0c-0.576-0.243-1.045-0.388-1.409-0.433-0.361-0.051-0.632-0.043-0.812 0.025-0.187 0.066-0.474 0.2-0.864 0.404z" fill="#66a7ad" data-fill-palette-color="accent"></path><path d="M186.528 24.963v0l-0.828 0.832c-1.194-1.587-2.232-2.641-3.113-3.162v0c-0.784-0.464-1.408-0.67-1.871-0.619-0.454 0.049-0.907 0.456-1.361 1.223v0c-0.365 0.618-0.447 1.265-0.243 1.942 0.212 0.674 0.566 1.316 1.063 1.926 0.497 0.61 0.986 1.24 1.468 1.888 0.484 0.657 0.796 1.378 0.934 2.163 0.144 0.788-0.01 1.566-0.464 2.333v0c-0.616 1.042-1.539 1.728-2.77 2.059-1.231 0.331-2.464 0.143-3.699-0.564v0c-0.899-0.531-1.626-1.216-2.18-2.054-0.564-0.836-0.906-1.675-1.026-2.519v0l1.149-0.317c0.144 0.201 0.355 0.503 0.634 0.908 0.279 0.404 0.481 0.682 0.607 0.834 0.132 0.155 0.335 0.36 0.61 0.615 0.283 0.252 0.605 0.485 0.966 0.699v0c0.767 0.453 1.495 0.652 2.185 0.596 0.69-0.056 1.217-0.393 1.583-1.011v0c0.24-0.406 0.333-0.819 0.279-1.237-0.06-0.422-0.226-0.833-0.499-1.233-0.264-0.403-0.574-0.819-0.932-1.247-0.348-0.43-0.687-0.877-1.014-1.341-0.33-0.473-0.597-0.963-0.8-1.47-0.209-0.51-0.284-1.075-0.225-1.697 0.062-0.628 0.289-1.274 0.682-1.937v0c0.579-0.979 1.331-1.643 2.255-1.993 0.922-0.344 1.863-0.231 2.825 0.338v0c0.372 0.22 0.762 0.528 1.169 0.923 0.402 0.392 0.714 0.72 0.938 0.982 0.217 0.26 0.536 0.661 0.957 1.204 0.412 0.545 0.652 0.857 0.721 0.936z" fill="#66a7ad" data-fill-palette-color="accent"></path><path d="M197.519 33.067v0l-0.54 1.198c-0.429-0.283-1.109-0.686-2.041-1.21-0.938-0.528-1.629-0.939-2.073-1.235v0c-0.335 0.582-0.825 1.304-1.472 2.167-0.646 0.862-1.201 1.614-1.666 2.255-0.456 0.64-0.87 1.312-1.242 2.017-0.372 0.705-0.511 1.36-0.416 1.964 0.094 0.604 0.441 1.139 1.039 1.605v0c0.451 0.351 1.095 0.683 1.93 0.996v0c-0.145 0.772-0.25 1.339-0.314 1.702v0c-1.508-0.499-2.867-1.221-4.08-2.164v0c-0.451-0.351-0.733-0.79-0.846-1.316-0.122-0.525-0.115-1.059 0.02-1.602 0.136-0.543 0.387-1.169 0.754-1.878 0.372-0.705 0.758-1.348 1.16-1.928 0.403-0.571 0.884-1.217 1.444-1.936v0c0.302-0.388 0.724-0.924 1.263-1.608 0.54-0.683 0.911-1.154 1.111-1.41v0c-0.159-0.099-0.521-0.359-1.085-0.782-0.555-0.424-0.877-0.67-0.967-0.74v0c0.675-1.084 1.025-1.642 1.05-1.673v0c0.08 0.113 0.241 0.264 0.483 0.452v0c0.131 0.102 0.355 0.259 0.67 0.47 0.315 0.212 0.549 0.377 0.701 0.496v0c0.058 0.045 0.134 0.109 0.23 0.192 0.09 0.079 0.151 0.13 0.183 0.155v0c1.336-1.598 2.443-2.885 3.321-3.862v0l0.82 1.042c-0.262 0.369-0.55 0.76-0.863 1.174-0.317 0.419-0.665 0.881-1.043 1.388-0.387 0.508-0.684 0.896-0.893 1.163v0c0.364 0.334 0.927 0.818 1.689 1.453 0.752 0.636 1.31 1.121 1.674 1.455z" fill="#66a7ad" data-fill-palette-color="accent"></path><path d="M203.263 36.894v0l0.762 1.1c-0.945 1.236-2.508 3.115-4.689 5.636-2.171 2.521-3.514 4.083-4.027 4.687v0c-0.524 0.321-0.967 0.315-1.327-0.02v0c-0.254-0.235-0.4-0.561-0.44-0.978-0.044-0.412 0.043-0.79 0.26-1.132v0c0.558-0.544 1.988-1.975 4.289-4.295 2.306-2.324 4.03-3.99 5.172-4.998zM207.005 33.425v0c0.376 0.348 0.539 0.803 0.49 1.365-0.054 0.557-0.275 1.046-0.663 1.465v0c-0.28 0.303-0.581 0.481-0.905 0.536-0.318 0.05-0.602-0.04-0.85-0.271v0c-0.39-0.361-0.551-0.805-0.482-1.329 0.079-0.525 0.317-1.003 0.715-1.433v0c0.285-0.307 0.579-0.493 0.882-0.556 0.308-0.068 0.579 0.006 0.813 0.223z" fill="#66a7ad" data-fill-palette-color="accent"></path><path d="M213.429 49.074v0l-0.759 1.072c-0.367-0.36-0.957-0.886-1.773-1.578-0.82-0.697-1.419-1.233-1.799-1.608v0c-0.44 0.507-1.06 1.122-1.858 1.846-0.799 0.723-1.488 1.355-2.067 1.894-0.57 0.541-1.104 1.122-1.604 1.743-0.5 0.621-0.761 1.237-0.784 1.848-0.023 0.611 0.215 1.202 0.713 1.774v0c0.376 0.431 0.944 0.88 1.704 1.347v0c-0.29 0.73-0.501 1.267-0.634 1.611v0c-1.384-0.778-2.581-1.746-3.59-2.904v0c-0.376-0.431-0.569-0.916-0.58-1.454-0.02-0.539 0.089-1.061 0.327-1.568 0.237-0.507 0.604-1.073 1.099-1.699 0.5-0.621 1.002-1.178 1.507-1.672 0.504-0.484 1.1-1.025 1.787-1.624v0c0.371-0.323 0.887-0.769 1.547-1.336 0.661-0.568 1.114-0.958 1.36-1.173v0c-0.137-0.127-0.443-0.452-0.916-0.975-0.464-0.522-0.733-0.826-0.807-0.91v0c0.87-0.935 1.32-1.416 1.35-1.442v0c0.057 0.126 0.187 0.305 0.388 0.535v0c0.109 0.125 0.298 0.322 0.567 0.591 0.269 0.268 0.467 0.475 0.594 0.62v0c0.048 0.055 0.111 0.133 0.189 0.232 0.074 0.095 0.124 0.157 0.15 0.187v0c1.617-1.313 2.95-2.365 3.998-3.155v0l0.605 1.179c-0.328 0.312-0.685 0.641-1.071 0.988-0.392 0.35-0.821 0.738-1.289 1.163-0.477 0.425-0.843 0.748-1.098 0.971v0c0.293 0.397 0.753 0.98 1.379 1.749 0.617 0.768 1.072 1.351 1.365 1.748z" fill="#66a7ad" data-fill-palette-color="accent"></path><path d="M221.947 59.897v0l0.574 1.265-0.238 0.165c-1.055 0.732-2.799 2.038-5.232 3.92-2.433 1.882-4.295 3.352-5.585 4.409v0c-0.342-0.224-0.609-0.476-0.803-0.754v0c-0.174-0.251-0.331-0.559-0.471-0.924v0l0.482-0.601c-1.251-0.613-2.189-1.371-2.815-2.273v0c-0.466-0.672-0.715-1.357-0.746-2.056-0.03-0.708 0.097-1.354 0.379-1.938 0.273-0.586 0.696-1.191 1.267-1.814 0.568-0.628 1.114-1.153 1.64-1.574 0.525-0.421 1.13-0.869 1.812-1.342v0c1.994-1.383 3.91-2.53 5.747-3.441v0l0.496 1.222c-0.438 0.466-0.96 0.909-1.566 1.33v0c-0.339 0.235-0.944 0.623-1.816 1.162-0.868 0.545-1.521 0.97-1.958 1.273v0c-0.765 0.531-1.399 1.023-1.901 1.477-0.503 0.454-0.945 0.959-1.328 1.516-0.392 0.555-0.587 1.132-0.585 1.729 0.002 0.598 0.215 1.202 0.639 1.815v0c0.474 0.683 1.141 1.313 2.002 1.889v0c0.596-0.365 2.095-1.356 4.495-2.972 2.39-1.618 4.228-2.779 5.511-3.483z" fill="#66a7ad" data-fill-palette-color="accent"></path><path d="M229.117 74.061v0l-1.001 0.85c-0.266-0.44-0.707-1.096-1.325-1.969-0.621-0.879-1.068-1.547-1.343-2.004v0c-0.552 0.382-1.305 0.824-2.259 1.325-0.954 0.502-1.778 0.942-2.473 1.322-0.686 0.382-1.348 0.812-1.987 1.289-0.638 0.477-1.045 1.009-1.218 1.595-0.174 0.586-0.091 1.218 0.249 1.896v0c0.257 0.511 0.695 1.087 1.316 1.727v0c-0.463 0.634-0.801 1.102-1.014 1.403v0c-1.147-1.098-2.066-2.333-2.757-3.705v0c-0.257-0.511-0.324-1.028-0.199-1.552 0.115-0.527 0.35-1.006 0.706-1.438 0.356-0.432 0.852-0.89 1.487-1.373 0.638-0.477 1.263-0.892 1.875-1.244 0.609-0.343 1.32-0.72 2.134-1.129v0c0.44-0.221 1.05-0.524 1.832-0.91 0.781-0.385 1.318-0.651 1.608-0.798v0c-0.101-0.157-0.316-0.548-0.645-1.171-0.32-0.621-0.505-0.982-0.555-1.083v0c1.075-0.689 1.63-1.043 1.666-1.061v0c0.024 0.137 0.105 0.342 0.242 0.615v0c0.075 0.149 0.209 0.386 0.403 0.713 0.194 0.327 0.334 0.576 0.421 0.748v0c0.033 0.065 0.075 0.156 0.126 0.272 0.048 0.11 0.081 0.183 0.098 0.219v0c1.893-0.87 3.445-1.557 4.658-2.063v0l0.293 1.293c-0.395 0.221-0.823 0.451-1.284 0.69-0.466 0.242-0.979 0.511-1.537 0.806-0.567 0.293-1.003 0.515-1.306 0.668v0c0.185 0.458 0.486 1.136 0.902 2.037 0.406 0.897 0.702 1.575 0.887 2.032z" fill="#66a7ad" data-fill-palette-color="accent"></path><path d="M224.796 93.28v0l-1.071 0.701c-0.576-0.681-1.317-1.727-2.224-3.136-0.915-1.414-1.51-2.492-1.783-3.235v0c-0.282-0.768-0.271-1.53 0.033-2.286 0.297-0.754 0.79-1.42 1.477-1.998 0.684-0.57 1.387-1.065 2.111-1.486 0.726-0.415 1.464-0.76 2.213-1.035v0c4.445-1.631 7.405-0.436 8.88 3.584v0c0.353 0.961 0.357 1.92 0.014 2.874-0.346 0.949-1.009 1.603-1.989 1.963v0c-0.537 0.197-1.062 0.223-1.576 0.079-0.52-0.142-0.975-0.379-1.366-0.711-0.397-0.329-0.811-0.783-1.243-1.36-0.432-0.578-0.782-1.098-1.05-1.56-0.277-0.465-0.596-1.025-0.956-1.678-0.36-0.654-0.615-1.106-0.763-1.356v0c-0.511 0.209-0.956 0.407-1.333 0.595-0.371 0.186-0.76 0.428-1.168 0.726-0.405 0.305-0.715 0.62-0.928 0.946-0.211 0.332-0.341 0.731-0.39 1.195-0.058 0.46 0.012 0.959 0.209 1.496v0c0.234 0.637 0.581 1.399 1.04 2.286 0.458 0.88 0.878 1.658 1.26 2.332 0.391 0.678 0.592 1.033 0.603 1.064zM227.189 82.138v0c1.582 2.168 3.041 3.885 4.376 5.152v0c0.541-0.34 0.907-0.666 1.098-0.977 0.182-0.315 0.195-0.684 0.039-1.109v0c-0.399-1.086-1.131-1.933-2.197-2.541-1.072-0.605-2.178-0.781-3.317-0.525z" fill="#66a7ad" data-fill-palette-color="accent"></path><path d="M25.64 149.762v0l1.153-0.68 4.047 10.336c0.132 0.468 0.09 0.908-0.124 1.321-0.207 0.417-0.493 0.686-0.86 0.806v0c-0.24 0.078-0.482 0.056-0.725-0.068-0.243-0.123-0.445-0.365-0.605-0.726v0l-1.264-4.708c-6.343 2.576-12.134 4.841-17.372 6.797v0c-0.61 0.017-0.99-0.205-1.141-0.666v0c-0.107-0.329-0.076-0.692 0.095-1.091 0.162-0.403 0.425-0.702 0.787-0.897v0c1.003-0.293 2.516-0.769 4.539-1.43v0c0.752-0.246 1.883-0.618 3.391-1.118 1.5-0.504 2.627-0.879 3.379-1.125v0c2.194-0.716 4.185-1.325 5.973-1.825v0c-0.534-2.127-0.958-3.769-1.273-4.926z" fill="#66a7ad" data-fill-palette-color="accent"></path><path d="M31.809 163.297v0l0.331 1.511c-0.689 0.394-1.815 0.976-3.377 1.748-1.553 0.775-2.62 1.319-3.201 1.631v0c1.439 0.472 2.474 1.372 3.105 2.699v0c0.565 1.189 0.636 2.415 0.212 3.677-0.43 1.265-1.342 2.228-2.735 2.89v0l-8.622 4.097c-0.217-0.177-0.408-0.44-0.574-0.788v0c-0.183-0.384-0.312-0.75-0.388-1.096v0c0.138-0.066 0.353-0.164 0.644-0.295 0.294-0.125 0.51-0.22 0.648-0.286v0c0.685-0.325 1.846-0.91 3.484-1.755 1.644-0.847 3.025-1.537 4.142-2.068v0c1.487-1.023 1.907-2.217 1.259-3.58v0c-0.283-0.595-0.723-1.103-1.321-1.526-0.598-0.423-1.177-0.663-1.735-0.722v0c-1.08 0.579-2.723 1.404-4.931 2.476-2.208 1.071-3.793 1.857-4.755 2.359v0c-0.272-0.386-0.479-0.729-0.621-1.03v0c-0.205-0.432-0.326-0.825-0.36-1.176v0c0.87-0.369 2.23-0.993 4.08-1.873v0c0.823-0.391 2.326-1.116 4.51-2.176 2.184-1.06 4.068-1.959 5.654-2.698 1.589-0.747 3.106-1.421 4.551-2.019z" fill="#66a7ad" data-fill-palette-color="accent"></path><path d="M29.387 195.034v0l-0.895 0.959c-0.727-0.538-1.714-1.398-2.96-2.581-1.246-1.183-2.095-2.112-2.546-2.786v0c-0.462-0.691-0.635-1.447-0.519-2.269 0.115-0.821 0.443-1.6 0.982-2.336 0.549-0.735 1.131-1.396 1.746-1.982 0.621-0.591 1.269-1.112 1.944-1.563v0c4.02-2.686 7.245-2.21 9.676 1.429v0c0.58 0.868 0.813 1.816 0.7 2.843-0.113 1.027-0.612 1.837-1.497 2.428v0c-0.487 0.325-1.004 0.479-1.551 0.461-0.542-0.022-1.05-0.146-1.522-0.375-0.467-0.232-0.986-0.585-1.559-1.058-0.569-0.468-1.044-0.898-1.426-1.29-0.38-0.402-0.829-0.882-1.346-1.44-0.515-0.568-0.877-0.954-1.086-1.158v0c-0.453 0.327-0.844 0.628-1.172 0.903-0.328 0.275-0.656 0.61-0.984 1.005-0.328 0.395-0.558 0.781-0.69 1.157-0.129 0.382-0.163 0.809-0.104 1.281 0.06 0.472 0.25 0.949 0.571 1.43v0c0.388 0.581 0.913 1.253 1.576 2.018 0.657 0.768 1.262 1.44 1.815 2.015 0.547 0.579 0.829 0.882 0.847 0.909zM29.09 183.404v0c2.088 1.772 3.945 3.127 5.571 4.064v0c0.457-0.465 0.742-0.876 0.856-1.232 0.108-0.352 0.033-0.722-0.225-1.109v0c-0.654-0.979-1.584-1.641-2.791-1.987-1.207-0.345-2.344-0.258-3.411 0.264z" fill="#66a7ad" data-fill-palette-color="accent"></path><path d="M60.96 203.926v0l-1.754 0.22c-0.371-1.845-1.102-3.259-2.195-4.242v0c-0.717-0.645-1.491-1.028-2.321-1.149-0.83-0.121-1.599-0.057-2.307 0.192-0.702 0.254-1.466 0.685-2.291 1.294-0.82 0.613-1.496 1.176-2.029 1.69-0.524 0.513-1.117 1.137-1.78 1.874v0c-0.645 0.717-1.245 1.653-1.801 2.807-0.556 1.155-0.871 2.41-0.945 3.766-0.079 1.36 0.297 2.414 1.127 3.161v0c0.91 0.818 2.726 1.593 5.449 2.325v0c-0.061 0.446-0.226 1.121-0.493 2.025v0c-2.94-0.381-5.121-1.213-6.546-2.493v0c-0.92-0.827-1.507-1.865-1.761-3.114-0.259-1.244-0.219-2.496 0.12-3.757 0.334-1.256 0.807-2.463 1.419-3.621 0.608-1.153 1.294-2.154 2.059-3.005v0c0.841-0.934 1.731-1.78 2.67-2.535 0.939-0.756 1.983-1.423 3.129-2.002 1.147-0.579 2.315-0.829 3.506-0.751 1.186 0.083 2.262 0.559 3.226 1.426v0c0.836 0.752 1.569 1.671 2.201 2.759 0.632 1.087 1.071 2.131 1.317 3.13z" fill="#66a7ad" data-fill-palette-color="accent"></path><path d="M55.567 215.971v0c0.432-0.639 0.98-1.304 1.646-1.994 0.67-0.695 1.432-1.385 2.286-2.068 0.86-0.679 1.755-1.126 2.686-1.34 0.936-0.211 1.766-0.072 2.487 0.415v0c1.543 1.042 2.31 2.569 2.299 4.583-0.006 2.018-0.582 3.876-1.728 5.574v0c-0.487 0.722-1.048 1.387-1.682 1.993-0.632 0.616-1.344 1.159-2.134 1.629-0.785 0.473-1.632 0.736-2.541 0.788-0.91 0.052-1.785-0.161-2.625-0.64v0c-1.347-1.19-2.061-2.586-2.143-4.19-0.087-1.607 0.396-3.191 1.449-4.75zM63.973 212.341v0c-0.603-0.319-1.423-0.126-2.46 0.578-1.033 0.699-1.912 1.466-2.636 2.301-0.72 0.83-1.313 1.589-1.778 2.278v0c-0.606 0.899-0.891 1.914-0.852 3.047 0.038 1.133 0.401 1.932 1.09 2.397v0c0.502 0.339 1.079 0.452 1.733 0.339 0.663-0.114 1.302-0.377 1.916-0.789 0.618-0.417 1.182-0.871 1.69-1.363 0.512-0.497 0.92-0.971 1.225-1.423v0c0.885-1.312 1.361-2.659 1.428-4.043 0.069-1.374-0.384-2.481-1.356-3.322z" fill="#66a7ad" data-fill-palette-color="accent"></path><path d="M81.588 221.451v0l-0.674 1.059c-0.679-0.458-1.278-0.814-1.798-1.069v0c-1.201-0.588-2.369-0.711-3.505-0.372-1.133 0.334-2.084 0.923-2.853 1.769-0.766 0.839-1.443 1.859-2.031 3.059v0c-0.272 0.555-0.479 1.069-0.62 1.54-0.145 0.462-0.227 0.948-0.247 1.457-0.025 0.506 0.102 0.972 0.383 1.397 0.274 0.423 0.698 0.775 1.271 1.056v0c0.765 0.374 1.81 0.704 3.136 0.99v0c0.432 0.041 0.752 0.113 0.961 0.215v0c0.418 0.205 0.431 0.814 0.038 1.829v0c-1.766-0.265-3.3-0.715-4.602-1.353v0c-1.893-0.927-2.947-2.02-3.16-3.279-0.216-1.253 0.186-2.922 1.206-5.006v0c0.596-1.219 1.202-2.244 1.817-3.076 0.612-0.826 1.318-1.535 2.119-2.128 0.804-0.584 1.703-0.892 2.695-0.925 0.999-0.029 2.072 0.237 3.219 0.798v0c1.284 0.629 2.166 1.308 2.645 2.039z" fill="#66a7ad" data-fill-palette-color="accent"></path><path d="M90.404 239.729v0l-2.514-0.911c-0.447-0.902-1.007-2.309-1.681-4.22-0.674-1.912-1.106-3.096-1.297-3.554v0l-1.913 5.671c-0.349 0.493-0.763 0.659-1.241 0.497v0c-0.328-0.111-0.598-0.349-0.812-0.716-0.211-0.373-0.29-0.764-0.235-1.174v0c0.692-1.865 1.777-4.987 3.255-9.366 1.48-4.386 2.578-7.517 3.296-9.395v0l1.551 0.924c-0.228 0.737-0.703 2.251-1.426 4.54-0.715 2.285-1.246 3.994-1.593 5.126v0l8.334-2.641 0.055 1.398c-2.173 0.678-4.82 1.774-7.942 3.289v0c0.311 0.701 0.969 2.369 1.975 5.004 1 2.632 1.729 4.475 2.188 5.528z" fill="#66a7ad" data-fill-palette-color="accent"></path><path d="M105.576 228.577v0l0.06 1.344c-0.517-0.062-1.323-0.116-2.418-0.164-1.094-0.054-1.91-0.114-2.446-0.179v0c-0.04 0.683-0.158 1.569-0.353 2.656-0.195 1.087-0.357 2.024-0.485 2.812-0.124 0.796-0.195 1.602-0.214 2.418-0.011 0.811 0.167 1.47 0.534 1.977 0.361 0.505 0.92 0.833 1.676 0.983v0c0.574 0.114 1.314 0.125 2.221 0.033v0c0.221 0.769 0.384 1.333 0.488 1.693v0c-1.605 0.231-3.174 0.196-4.707-0.108v0c-0.574-0.114-1.036-0.381-1.386-0.803-0.349-0.428-0.587-0.92-0.715-1.474-0.12-0.559-0.174-1.244-0.163-2.056 0.013-0.818 0.069-1.583 0.169-2.295 0.099-0.706 0.239-1.515 0.42-2.428v0c0.098-0.496 0.24-1.176 0.424-2.042 0.18-0.873 0.302-1.472 0.367-1.798v0c-0.193-0.018-0.643-0.09-1.351-0.217-0.699-0.132-1.108-0.209-1.225-0.232v0c0.121-1.298 0.185-1.963 0.192-1.996v0c0.124 0.058 0.339 0.118 0.646 0.179v0c0.17 0.034 0.446 0.075 0.829 0.123 0.384 0.049 0.673 0.093 0.869 0.132v0c0.072 0.014 0.169 0.037 0.292 0.068 0.121 0.038 0.202 0.06 0.241 0.068v0c0.485-2.073 0.906-3.756 1.263-5.048v0l1.22 0.567c-0.071 0.461-0.155 0.952-0.251 1.475-0.09 0.524-0.195 1.104-0.314 1.738-0.113 0.642-0.204 1.132-0.271 1.472v0c0.482 0.136 1.211 0.321 2.189 0.555 0.985 0.229 1.718 0.411 2.199 0.547z" fill="#66a7ad" data-fill-palette-color="accent"></path><path d="M111.218 230.836v0l-0.461-1.517c0.537-0.465 1.204-0.816 2.003-1.054 0.792-0.238 1.566-0.328 2.322-0.269v0c3.255 0.254 4.663 3.199 4.222 8.835v0c-0.06 0.769-0.192 1.903-0.396 3.401-0.204 1.498-0.335 2.622-0.393 3.371v0c-0.199 0.585-0.521 0.86-0.965 0.825v0c-0.351-0.027-0.656-0.225-0.914-0.591-0.265-0.368-0.381-0.763-0.348-1.188v0c0.011-0.139 0.028-0.235 0.053-0.286v0c-1.284 1.06-2.602 1.538-3.955 1.432v0c-1.021-0.08-1.884-0.521-2.588-1.323-0.704-0.802-1.015-1.734-0.932-2.795v0c0.14-1.79 0.966-3.356 2.479-4.699 1.512-1.336 3.156-1.934 4.933-1.795v0c0.073 0.006 0.149 0.018 0.227 0.037 0.072 0.012 0.161 0.033 0.265 0.061 0.105 0.028 0.187 0.045 0.247 0.05v0c0.024-2.266-0.783-3.463-2.421-3.592v0c-0.968-0.076-2.094 0.29-3.378 1.097zM116.557 240.369v0c0.146-1.349 0.245-2.369 0.299-3.059v0c0.046-0.583 0.089-1.397 0.13-2.441v0l-0.228-0.018c-1.374-0.087-2.664 0.325-3.869 1.239-1.206 0.92-1.865 2.092-1.976 3.517v0c-0.048 0.617 0.102 1.122 0.452 1.516 0.343 0.394 0.786 0.612 1.329 0.655v0c0.849 0.066 2.136-0.403 3.863-1.409z" fill="#66a7ad" data-fill-palette-color="accent"></path><path d="M124.829 229.089v0l1.342 0.263c0.184 1.586 0.369 4.073 0.555 7.462 0.179 3.389 0.297 5.492 0.353 6.309v0c-0.161 0.602-0.494 0.908-1 0.917v0c-0.346 0.007-0.681-0.126-1.006-0.399-0.325-0.28-0.531-0.622-0.618-1.026v0c0.024-0.792 0.064-2.858 0.118-6.198 0.048-3.333 0.133-5.776 0.256-7.328zM125.137 223.885v0c0.525-0.01 0.965 0.211 1.32 0.663 0.355 0.445 0.537 0.957 0.548 1.535v0c0.008 0.426-0.085 0.77-0.279 1.034-0.201 0.27-0.474 0.408-0.82 0.415v0c-0.545 0.011-0.975-0.204-1.289-0.644-0.321-0.439-0.488-0.958-0.5-1.556v0c-0.008-0.426 0.078-0.77 0.26-1.033 0.181-0.27 0.434-0.408 0.76-0.414z" fill="#66a7ad" data-fill-palette-color="accent"></path><path d="M132.768 242.179l-1.007-18.488 1.358 0.17 2.302 18.642c-0.119 0.612-0.43 0.94-0.934 0.985v0c-0.344 0.031-0.688-0.079-1.031-0.329-0.343-0.256-0.573-0.583-0.688-0.98z" fill="#66a7ad" data-fill-palette-color="accent"></path><path d="M152.177 240.333v0l-0.455-1.354c1.632-0.771 2.65-1.225 3.054-1.362v0c-0.17-0.636-0.439-1.586-0.806-2.851v0c-0.485-1.674-1.219-4.075-2.201-7.203-0.989-3.127-1.641-5.198-1.956-6.215v0l-2.847 0.679-0.67-1.561c0.766-0.201 1.95-0.534 3.553-0.998v0c1.635-0.474 2.855-0.817 3.659-1.029v0l0.479 1.367c-0.274 0.225-0.695 0.433-1.262 0.625-0.567 0.192-0.925 0.32-1.073 0.384v0c0.209 0.507 0.621 1.807 1.234 3.9 0.622 2.098 1.301 4.418 2.038 6.96 0.738 2.549 1.283 4.357 1.634 5.426v0c0.309-0.034 0.892-0.134 1.751-0.3 0.859-0.166 1.395-0.262 1.609-0.29v0l0.365 1.473c-0.561 0.142-1.445 0.388-2.653 0.738v0c-0.632 0.183-1.57 0.458-2.814 0.825-1.242 0.374-2.121 0.635-2.639 0.786z" fill="#66a7ad" data-fill-palette-color="accent"></path><path d="M162.6 224.564v0l4.572 10.532c-0.208 0.261-0.498 0.47-0.872 0.628v0c-0.288 0.121-0.629 0.211-1.023 0.269v0c-0.418-1.145-1.313-3.369-2.685-6.673-1.372-3.304-2.332-5.776-2.879-7.415v0l1.317-0.241 0.715 1.463c0.522-1.397 1.399-2.355 2.63-2.874v0c0.619-0.261 1.136-0.429 1.553-0.504 0.413-0.066 0.864 0.004 1.354 0.209 0.494 0.196 0.95 0.541 1.368 1.036 0.421 0.501 0.925 1.252 1.513 2.252 0.594 0.998 1.221 2.192 1.879 3.581 0.658 1.39 1.452 3.159 2.38 5.308v0c-0.089 0.081-0.286 0.186-0.592 0.315v0c-0.643 0.271-1.176 0.402-1.599 0.393v0c-0.189-0.26-0.422-0.717-0.698-1.373v0c-0.145-0.343-0.401-0.986-0.77-1.927-0.371-0.948-0.665-1.679-0.882-2.194v0c-0.362-0.858-0.709-1.595-1.042-2.213-0.333-0.618-0.715-1.2-1.148-1.746-0.429-0.555-0.889-0.928-1.381-1.117-0.494-0.196-0.998-0.185-1.513 0.032v0c-0.588 0.248-1.028 0.488-1.32 0.719-0.295 0.225-0.482 0.431-0.563 0.617-0.077 0.177-0.182 0.484-0.314 0.923z" fill="#66a7ad" data-fill-palette-color="accent"></path><path d="M180.328 212.728v0l0.34 1.144c-2.007 0.289-3.46 0.699-4.36 1.229v0c-0.802 0.473-1.295 0.927-1.479 1.36-0.179 0.43-0.036 1.037 0.427 1.822v0c0.375 0.636 0.914 1.024 1.615 1.166 0.705 0.148 1.452 0.151 2.241 0.009 0.795-0.145 1.603-0.274 2.423-0.388 0.815-0.111 1.609-0.035 2.382 0.227 0.776 0.268 1.394 0.791 1.853 1.57v0c0.629 1.065 0.79 2.229 0.485 3.49-0.311 1.265-1.086 2.274-2.324 3.029v0c-0.916 0.541-1.889 0.856-2.917 0.946-1.023 0.086-1.941-0.024-2.755-0.331v0l0.289-1.179c0.242-0.035 0.615-0.077 1.118-0.127 0.498-0.047 0.846-0.09 1.046-0.131 0.203-0.035 0.487-0.117 0.85-0.247 0.367-0.124 0.734-0.294 1.101-0.51v0c0.779-0.46 1.317-1.013 1.615-1.66 0.292-0.643 0.25-1.283-0.125-1.919v0c-0.247-0.418-0.572-0.701-0.976-0.849-0.401-0.157-0.848-0.214-1.34-0.17-0.492 0.043-1.016 0.117-1.572 0.221-0.56 0.099-1.129 0.18-1.709 0.245-0.58 0.064-1.148 0.064-1.704-0.002-0.556-0.066-1.099-0.278-1.628-0.638-0.527-0.369-0.991-0.894-1.393-1.575v0c-0.588-0.996-0.813-1.991-0.674-2.985 0.145-0.997 0.707-1.784 1.687-2.363v0c0.384-0.227 0.85-0.424 1.399-0.594 0.558-0.167 1.006-0.285 1.343-0.353 0.347-0.066 0.864-0.151 1.552-0.255 0.693-0.108 1.09-0.168 1.19-0.182z" fill="#66a7ad" data-fill-palette-color="accent"></path><path d="M189.942 205.423v0l1.054 0.836c-0.385 0.35-0.954 0.923-1.708 1.719-0.758 0.791-1.337 1.368-1.737 1.731v0c0.49 0.478 1.081 1.147 1.774 2.006 0.693 0.859 1.295 1.596 1.807 2.21 0.52 0.615 1.082 1.197 1.686 1.746 0.605 0.54 1.22 0.838 1.843 0.892 0.618 0.058 1.232-0.149 1.841-0.623v0c0.462-0.359 0.955-0.911 1.48-1.655v0c0.726 0.337 1.259 0.584 1.599 0.74v0c-0.877 1.364-1.932 2.526-3.166 3.485v0c-0.462 0.359-0.967 0.533-1.515 0.521-0.552-0.017-1.08-0.159-1.582-0.425-0.501-0.276-1.054-0.684-1.66-1.225-0.609-0.545-1.15-1.089-1.622-1.632-0.468-0.537-0.988-1.173-1.56-1.908v0c-0.31-0.399-0.732-0.952-1.264-1.658-0.542-0.708-0.915-1.193-1.118-1.455v0c-0.14 0.134-0.489 0.427-1.049 0.878-0.558 0.442-0.884 0.7-0.978 0.773v0c-0.901-0.942-1.362-1.426-1.382-1.453v0c0.125-0.055 0.311-0.179 0.558-0.37v0c0.137-0.106 0.349-0.288 0.637-0.546 0.288-0.258 0.511-0.448 0.669-0.57v0c0.058-0.045 0.139-0.103 0.242-0.176 0.108-0.067 0.178-0.113 0.209-0.138v0c-1.248-1.725-2.243-3.146-2.985-4.262v0l1.228-0.55c0.301 0.355 0.618 0.741 0.95 1.157 0.337 0.412 0.706 0.87 1.107 1.376 0.411 0.506 0.722 0.896 0.934 1.169v0c0.418-0.275 1.036-0.704 1.853-1.29 0.818-0.594 1.437-1.029 1.855-1.303z" fill="#66a7ad" data-fill-palette-color="accent"></path><path d="M193.596 201.121v0l1.179-0.694c1.191 1.064 2.98 2.801 5.369 5.211 2.384 2.415 3.868 3.909 4.452 4.483v0c0.279 0.557 0.233 1.007-0.138 1.35v0c-0.254 0.235-0.593 0.358-1.017 0.369-0.429 0.006-0.81-0.112-1.144-0.356v0c-0.508-0.608-1.85-2.18-4.026-4.713-2.177-2.524-3.735-4.408-4.675-5.65zM190.371 197.025v0c0.386-0.356 0.862-0.483 1.427-0.38 0.561 0.098 1.038 0.359 1.43 0.784v0c0.289 0.313 0.448 0.632 0.477 0.957 0.029 0.335-0.084 0.62-0.337 0.855v0c-0.401 0.37-0.864 0.495-1.392 0.376-0.532-0.115-1.001-0.393-1.407-0.833v0c-0.289-0.313-0.453-0.627-0.492-0.944-0.044-0.322 0.054-0.593 0.294-0.815z" fill="#66a7ad" data-fill-palette-color="accent"></path><path d="M204.047 191.143v0l1.194 0.62c-0.312 0.417-0.762 1.088-1.351 2.013-0.594 0.921-1.053 1.597-1.377 2.029v0c0.572 0.377 1.28 0.921 2.123 1.632 0.844 0.712 1.575 1.321 2.193 1.827 0.627 0.505 1.29 0.97 1.988 1.394 0.697 0.415 1.357 0.591 1.979 0.526 0.618-0.06 1.181-0.38 1.689-0.961v0c0.385-0.44 0.765-1.076 1.138-1.907v0c0.776 0.193 1.347 0.334 1.711 0.423v0c-0.602 1.506-1.417 2.847-2.446 4.023v0c-0.385 0.44-0.848 0.707-1.389 0.799-0.546 0.088-1.09 0.049-1.634-0.117-0.544-0.176-1.165-0.471-1.862-0.887-0.702-0.42-1.336-0.851-1.903-1.294-0.562-0.439-1.193-0.964-1.893-1.577v0c-0.38-0.333-0.899-0.795-1.556-1.388-0.666-0.592-1.124-0.997-1.375-1.216v0c-0.112 0.158-0.399 0.512-0.862 1.061-0.464 0.54-0.735 0.855-0.814 0.945v0c-1.063-0.754-1.608-1.142-1.633-1.164v0c0.113-0.078 0.272-0.235 0.478-0.47v0c0.114-0.13 0.288-0.349 0.522-0.657 0.234-0.308 0.417-0.537 0.548-0.686v0c0.048-0.055 0.116-0.128 0.204-0.219 0.093-0.086 0.153-0.145 0.179-0.175v0c-1.553-1.456-2.8-2.662-3.74-3.617v0l1.101-0.773c0.363 0.292 0.748 0.61 1.152 0.955 0.409 0.34 0.859 0.72 1.349 1.14 0.499 0.419 0.879 0.743 1.139 0.97v0c0.358-0.349 0.883-0.888 1.574-1.617 0.691-0.739 1.215-1.283 1.574-1.632z" fill="#66a7ad" data-fill-palette-color="accent"></path><path d="M210.888 180.828v0l1.011-0.998 0.238 0.166c1.08 0.753 2.951 1.959 5.612 3.618 2.665 1.654 4.736 2.91 6.213 3.769v0c-0.093 0.413-0.239 0.762-0.437 1.045v0c-0.175 0.251-0.415 0.509-0.721 0.774v0l-0.753-0.245c-0.134 1.414-0.522 2.582-1.165 3.504v0c-0.475 0.682-1.046 1.164-1.712 1.445-0.662 0.276-1.323 0.387-1.983 0.334-0.656-0.06-1.382-0.25-2.179-0.571-0.803-0.325-1.499-0.663-2.088-1.017-0.592-0.348-1.238-0.765-1.937-1.251v0c-2.035-1.418-3.812-2.846-5.33-4.285v0l0.984-0.907c0.6 0.256 1.211 0.6 1.833 1.034v0c0.349 0.243 0.939 0.682 1.769 1.317 0.83 0.635 1.466 1.106 1.908 1.415v0c0.78 0.544 1.476 0.976 2.088 1.296 0.611 0.321 1.253 0.569 1.924 0.745 0.666 0.172 1.286 0.15 1.858-0.067 0.578-0.213 1.082-0.628 1.512-1.245v0c0.487-0.698 0.853-1.562 1.099-2.59v0c-0.567-0.443-2.05-1.525-4.45-3.246-2.394-1.717-4.159-3.063-5.294-4.04z" fill="#66a7ad" data-fill-palette-color="accent"></path><path d="M218.035 168.737v0l1.311 0.304c-0.198 0.481-0.467 1.243-0.808 2.285-0.346 1.04-0.623 1.809-0.83 2.308v0c0.647 0.223 1.468 0.574 2.463 1.053 0.994 0.48 1.854 0.888 2.578 1.224 0.733 0.333 1.491 0.619 2.272 0.857 0.778 0.229 1.461 0.235 2.047 0.017 0.584-0.212 1.049-0.662 1.398-1.351v0c0.264-0.522 0.473-1.232 0.628-2.13v0c0.8-0.006 1.387-0.011 1.762-0.015v0c-0.209 1.608-0.665 3.11-1.369 4.504v0c-0.264 0.522-0.646 0.896-1.147 1.12-0.506 0.221-1.044 0.319-1.611 0.293-0.571-0.035-1.245-0.167-2.024-0.397-0.784-0.232-1.506-0.492-2.165-0.78-0.653-0.285-1.395-0.637-2.226-1.057v0c-0.451-0.228-1.069-0.547-1.852-0.957-0.792-0.408-1.337-0.686-1.634-0.837v0c-0.069 0.181-0.26 0.595-0.572 1.243-0.315 0.638-0.499 1.011-0.553 1.117v0c-1.218-0.466-1.841-0.706-1.871-0.721v0c0.09-0.104 0.205-0.295 0.346-0.574v0c0.078-0.154 0.192-0.41 0.342-0.766 0.15-0.356 0.27-0.623 0.36-0.802v0c0.033-0.065 0.081-0.153 0.144-0.262 0.069-0.107 0.112-0.178 0.13-0.214v0c-1.867-1.024-3.374-1.883-4.522-2.574v0l0.874-1.022c0.425 0.192 0.876 0.405 1.353 0.638 0.481 0.228 1.011 0.484 1.59 0.769 0.588 0.282 1.036 0.501 1.345 0.657v0c0.26-0.427 0.635-1.08 1.123-1.958 0.485-0.887 0.858-1.545 1.118-1.972z" fill="#66a7ad" data-fill-palette-color="accent"></path><path d="M234.052 158.456v0l1.301 0.161c-0.008 0.904-0.124 2.208-0.349 3.912-0.225 1.703-0.478 2.936-0.758 3.697v0c-0.288 0.78-0.798 1.364-1.53 1.753-0.732 0.389-1.554 0.582-2.467 0.578-0.917-0.012-1.794-0.095-2.631-0.248-0.843-0.155-1.645-0.373-2.406-0.654v0c-4.536-1.674-6.046-4.564-4.53-8.669v0c0.362-0.979 0.991-1.725 1.889-2.237 0.898-0.512 1.846-0.584 2.844-0.216v0c0.549 0.203 0.977 0.531 1.285 0.985 0.301 0.451 0.498 0.935 0.591 1.451 0.087 0.514 0.107 1.142 0.06 1.883-0.044 0.735-0.113 1.372-0.206 1.913-0.102 0.544-0.226 1.189-0.375 1.935-0.156 0.75-0.256 1.27-0.299 1.559v0c0.531 0.175 1.004 0.314 1.42 0.418 0.415 0.104 0.879 0.172 1.392 0.205 0.512 0.033 0.96-0.007 1.342-0.121 0.385-0.12 0.75-0.343 1.097-0.669 0.347-0.326 0.621-0.76 0.821-1.303v0c0.242-0.655 0.477-1.475 0.707-2.461 0.235-0.983 0.424-1.867 0.564-2.652 0.147-0.782 0.226-1.189 0.238-1.22zM224.816 165.531v0c0.207-2.731 0.212-5.029 0.014-6.896v0c-0.645-0.096-1.145-0.086-1.5 0.031-0.349 0.119-0.604 0.397-0.765 0.834v0c-0.408 1.104-0.397 2.246 0.033 3.426 0.429 1.179 1.169 2.048 2.218 2.605z" fill="#66a7ad" data-fill-palette-color="accent"></path><path d="M2.748 124.123c0-4.426 3.588-8.014 8.013-8.013 4.426 0 8.014 3.588 8.014 8.013 0 4.426-3.588 8.014-8.014 8.014-4.426 0-8.014-3.588-8.013-8.014z" fill="#66a7ad" data-fill-palette-color="accent"></path><path d="M226.023 124.123c0-4.426 3.588-8.014 8.014-8.013 4.426 0 8.014 3.588 8.014 8.013 0 4.426-3.588 8.014-8.014 8.014-4.426 0-8.014-3.588-8.014-8.014z" fill="#66a7ad" data-fill-palette-color="accent"></path></g></svg></g></svg></g><g></g></svg></g><defs></defs></svg><rect width="289.03677429200445" height="247.2" fill="none" stroke="none" visibility="hidden"></rect></g></svg></g></svg>