<svg xmlns="http://www.w3.org/2000/svg" version="1.1" xmlns:xlink="http://www.w3.org/1999/xlink" xmlns:svgjs="http://svgjs.dev/svgjs" width="2000" height="1010" viewBox="0 0 2000 1010"><g transform="matrix(1,0,0,1,-1.2121212121212466,-0.12619950087957932)"><svg viewBox="0 0 396 200" data-background-color="#f7c47c" preserveAspectRatio="xMidYMid meet" height="1010" width="2000" xmlns="http://www.w3.org/2000/svg" xmlns:xlink="http://www.w3.org/1999/xlink"><g id="tight-bounds" transform="matrix(1,0,0,1,0.2400000000000091,0.025083777317362888)"><svg viewBox="0 0 395.52 199.94992622250837" height="199.94992622250837" width="395.52"><g><svg viewBox="0 0 395.52 199.94992622250837" height="199.94992622250837" width="395.52"><g transform="matrix(1,0,0,1,0,161.55848385529282)"><svg viewBox="0 0 395.52 38.391442367215554" height="38.391442367215554" width="395.52"><g id="textblocktransform"><svg viewBox="0 0 395.52 38.391442367215554" height="38.391442367215554" width="395.52" id="textblock"><g><svg viewBox="0 0 395.52 38.391442367215554" height="38.391442367215554" width="395.52"><g transform="matrix(1,0,0,1,0,0)"><svg width="395.52" viewBox="0 -36.04 394.33 38.29" height="38.391442367215554" data-palette-color="#f7c47c"><path d="M0.49-32.76L0.49-32.76 0-34.96 18.65-36.04Q19.87-35.99 20.7-35.16 21.53-34.33 21.53-33.35L21.53-33.35Q21.53-32.71 21.04-32.23 20.56-31.74 19.58-31.64L19.58-31.64 11.38-32.08Q12.6-14.84 13.18-0.73L13.18-0.73Q12.74 0.73 11.52 0.73L11.52 0.73Q10.64 0.73 9.81 0.02 8.98-0.68 8.79-1.71L8.79-1.71Q8.89-4.35 8.89-9.72L8.89-9.72Q8.89-11.72 8.86-15.72 8.84-19.73 8.84-21.73L8.84-21.73Q8.84-27.54 9.03-32.23L9.03-32.23Q3.52-32.62 0.49-32.76ZM23.78-35.16L23.78-35.16 26.32-34.57Q26.46-32.57 26.54-28.17 26.61-23.78 26.71-22.12L26.71-22.12Q29.34-24.9 33.05-24.9L33.05-24.9Q36.37-24.9 38.79-22.56 41.21-20.21 41.21-16.31L41.21-16.31 41.21-0.24Q40.57 0.05 39.6 0.05L39.6 0.05Q38.52 0.05 37.64-0.15L37.64-0.15Q37.64-0.54 37.67-1.34 37.69-2.15 37.69-2.54L37.69-2.54Q37.69-4.44 37.55-9.11 37.4-13.77 37.4-16.89L37.4-16.89Q36.67-21.39 32.86-21.39L32.86-21.39Q31.2-21.39 29.59-20.48 27.98-19.58 27.24-18.36L27.24-18.36Q27.39-15.28 27.44-9.08 27.49-2.88 27.59-0.15L27.59-0.15Q26.41 0.05 25.58 0.05L25.58 0.05Q24.36 0.05 23.53-0.24L23.53-0.24Q23.63-2.64 23.63-7.81L23.63-7.81Q23.63-10.11 23.58-16.24 23.53-22.36 23.56-26.78 23.58-31.2 23.78-35.16ZM64.89-4.74L64.89-4.74 65.38-2.59Q63.23-1.81 59-0.85 54.78 0.1 52.73 0.1L52.73 0.1Q50.63 0.1 49.07-1.29 47.5-2.69 46.72-4.86 45.94-7.03 45.58-9.16 45.21-11.28 45.21-13.33L45.21-13.33Q45.21-25.54 56.25-25.54L56.25-25.54Q58.88-25.54 60.88-23.85 62.89-22.17 62.89-19.48L62.89-19.48Q62.89-18.02 62.08-16.89 61.27-15.77 60.13-15.11 58.98-14.45 57.2-13.92 55.41-13.38 54.05-13.13 52.68-12.89 50.78-12.6 48.87-12.3 48.14-12.16L48.14-12.16Q48.19-10.74 48.31-9.67 48.43-8.59 48.8-7.35 49.16-6.1 49.78-5.3 50.39-4.49 51.46-3.96 52.53-3.42 54-3.42L54-3.42Q55.76-3.42 58.3-3.74 60.83-4.05 62.81-4.39 64.79-4.74 64.89-4.74ZM48.33-15.19L48.33-15.19Q54.98-17.09 59.22-19.19L59.22-19.19Q58.88-20.8 58.3-21.53 57.71-22.27 56.54-22.27L56.54-22.27Q53.56-22.27 51.14-20.21 48.73-18.16 48.33-15.19ZM103.65-32.23L103.65-32.23 101.7-29.98Q97.89-32.81 94.18-32.81L94.18-32.81Q91.74-32.81 89.98-31.64 88.22-30.47 87.32-28.81 86.42-27.15 85.9-24.61 85.39-22.07 85.27-20.21 85.15-18.36 85.15-15.87L85.15-15.87Q85.15-13.43 86.05-10.33 86.95-7.23 89.1-4.54 91.25-1.86 94.08-1.86L94.08-1.86Q97.16-1.86 103.51-5.08L103.51-5.08Q104.14-4.15 105.17-2L105.17-2Q99.01 2.25 94.18 2.25L94.18 2.25Q91.05 2.25 88.47 0.34 85.88-1.56 84.39-4.49 82.9-7.42 82.09-10.62 81.29-13.82 81.29-16.7L81.29-16.7Q81.29-19.87 81.78-22.88 82.27-25.88 83.44-28.91 84.61-31.93 86.98-33.79 89.35-35.64 92.62-35.64L92.62-35.64Q95.45-35.64 98.48-34.67 101.5-33.69 103.65-32.23ZM105.7-10.4L105.7-10.4Q105.7-12.35 106.12-14.75 106.53-17.14 107.36-19.78 108.19-22.41 109.85-24.17 111.51-25.93 113.71-25.93L113.71-25.93Q118.4-25.93 121.23-21.7 124.06-17.48 124.06-12.3L124.06-12.3Q124.06-10.11 123.6-7.93 123.13-5.76 122.16-3.66 121.18-1.56 119.35-0.17 117.52 1.22 115.08 1.42L115.08 1.42Q110.58 0.83 108.14-2.42 105.7-5.66 105.7-10.4ZM114-23.39L114-23.39Q112.29-23.19 111.12-20.26 109.95-17.33 109.61-14.58 109.26-11.82 109.26-9.72L109.26-9.72Q109.26-6.98 110.95-4.66 112.63-2.34 114.73-2.34L114.73-2.34Q116.25-2.34 117.47-3.52 118.69-4.69 119.4-6.42 120.1-8.15 120.47-9.91 120.84-11.67 120.84-13.04L120.84-13.04Q120.84-17.04 119.03-20.02 117.22-23 114-23.39ZM144.47-24.22L144.47-24.22 144.22-22.12Q142.17-22.41 140.71-22.41L140.71-22.41Q137.34-22.41 135.14-20.39 132.94-18.36 132.14-15.6 131.33-12.84 131.33-9.47L131.33-9.47Q131.33-7.91 131.53-6.69 131.72-5.47 132.24-4.3 132.75-3.13 133.85-2.47 134.95-1.81 136.56-1.81L136.56-1.81Q138.71-1.81 142.03-2.64L142.03-2.64Q143.05-3.03 143.64-3.03L143.64-3.03Q144.81-3.03 145.05-0.29L145.05-0.29Q140.76 1.07 137.09 1.07L137.09 1.07Q131.77 1.07 129.89-1.54 128.01-4.15 128.01-10.01L128.01-10.01Q128.01-13.43 128.48-15.99 128.94-18.55 130.11-20.78 131.28-23 133.51-24.17 135.73-25.34 138.95-25.34L138.95-25.34Q142.56-25.34 144.47-24.22ZM165.36 0L165.36 0 160.87-0.1Q159.06-1.9 155.92-5.93 152.77-9.96 151.94-10.89L151.94-10.89 151.94-0.83Q151.5 0.63 150.23 0.63L150.23 0.63Q149.35 0.63 148.54-0.07 147.74-0.78 147.54-1.81L147.54-1.81Q147.69-6.84 147.69-18.51 147.69-30.18 147.88-35.25L147.88-35.25 150.86-34.62Q150.91-32.67 151.03-26.61 151.15-20.56 151.25-17.58L151.25-17.58 163.12-26.27 163.95-24.07Q159.31-20.7 153.06-14.55L153.06-14.55Q154.38-13.13 158.89-7.64 163.41-2.15 165.36 0ZM180.64-23.63L180.64-23.63 181.18-21.44Q179.86-21.34 177.13-20.92 174.39-20.51 173.03-20.41L173.03-20.41Q173.27-18.7 173.32-15.92 173.37-13.13 173.44-11.11 173.52-9.08 173.88-7.06 174.25-5.03 175.4-3.96 176.54-2.88 178.5-2.88L178.5-2.88Q179.96-2.88 182.16-3.56L182.16-3.56Q183.09-1.76 183.52-0.93L183.52-0.93Q179.67 0.44 175.71 0.44L175.71 0.44Q174.25 0.44 173.17-0.44 172.1-1.32 171.51-2.64 170.93-3.96 170.56-5.98 170.19-8.01 170.1-9.81 170-11.62 170-13.96L170-13.96Q170-15.23 170.02-17.48 170.05-19.73 170.05-20.56L170.05-20.56Q169.56-20.51 167.75-20.48 165.95-20.46 165.65-20.46L165.65-20.46Q165.31-23.73 165.31-23.83L165.31-23.83Q165.65-23.73 166.44-23.73L166.44-23.73Q166.87-23.73 167.85-23.8 168.83-23.88 169.32-23.88L169.32-23.88Q169.51-23.88 169.83-23.85 170.15-23.83 170.24-23.83L170.24-23.83Q170.44-29.2 170.68-32.57L170.68-32.57 172.88-32.03Q172.93-30.86 172.95-29.52 172.98-28.17 173-26.54 173.03-24.9 173.03-24.02L173.03-24.02Q174.3-23.93 176.84-23.83 179.37-23.73 180.64-23.63ZM187.23-21.09L187.23-21.09 186.26-23.58Q187.53-24.85 189.48-25.61 191.43-26.37 193.34-26.37L193.34-26.37Q201.59-26.37 201.59-12.11L201.59-12.11Q201.59-10.16 201.37-6.35 201.15-2.54 201.15-0.63L201.15-0.63Q200.76 0.88 199.64 0.88L199.64 0.88Q198.76 0.88 198.02 0 197.29-0.88 197.29-1.95L197.29-1.95Q197.29-2.29 197.34-2.44L197.34-2.44Q194.31 0.49 190.9 0.49L190.9 0.49Q188.31 0.49 186.38-1.39 184.45-3.27 184.45-5.96L184.45-5.96Q184.45-10.5 187.99-14.16 191.53-17.82 196.02-17.82L196.02-17.82Q196.22-17.82 196.41-17.8 196.61-17.77 196.88-17.72 197.15-17.68 197.29-17.68L197.29-17.68Q196.9-23.39 192.75-23.39L192.75-23.39Q190.31-23.39 187.23-21.09ZM197.44-5.81L197.44-5.81Q197.54-9.23 197.54-10.99L197.54-10.99Q197.54-12.45 197.44-15.09L197.44-15.09 197.05-15.09Q193.58-15.04 190.72-12.5 187.87-9.96 187.87-6.35L187.87-6.35Q187.87-4.79 188.82-3.86 189.77-2.93 191.14-2.93L191.14-2.93Q193.29-2.93 197.44-5.81ZM206.62-25.1L206.62-25.1 208.86-24.61Q209.25-20.61 209.55-12.04 209.84-3.47 209.94-1.42L209.94-1.42Q209.5 0.1 208.23 0.1L208.23 0.1Q207.35 0.1 206.54-0.61 205.74-1.32 205.54-2.34L205.54-2.34Q205.64-4.35 205.93-12.77 206.23-21.19 206.62-25.1ZM207.3-33.84L207.3-33.84Q208.62-33.84 209.5-32.69 210.38-31.54 210.38-30.08L210.38-30.08Q210.38-29 209.86-28.34 209.35-27.69 208.47-27.69L208.47-27.69Q207.1-27.69 206.32-28.81 205.54-29.93 205.54-31.45L205.54-31.45Q205.54-32.52 206.01-33.18 206.47-33.84 207.3-33.84ZM214.38-2.34L215.45-33.5 217.7-33.01 218.77-1.42Q218.33 0.1 217.06 0.1L217.06 0.1Q216.18 0.1 215.38-0.61 214.57-1.32 214.38-2.34L214.38-2.34ZM235.91 0.15L235.91 0.15 235.81-2.25Q240.3-2.98 241.37-3.03L241.37-3.03Q241.42-4.69 241.42-8.01L241.42-8.01Q241.42-12.4 241.23-20.68 241.03-28.96 240.98-31.64L240.98-31.64 236.05-31.88 235.71-34.72Q237.71-34.67 241.91-34.67L241.91-34.67Q246.21-34.67 248.31-34.62L248.31-34.62 248.45-32.18Q247.62-31.84 246.11-31.76 244.6-31.69 244.21-31.64L244.21-31.64Q244.35-30.27 244.38-24.76 244.4-19.24 244.4-12.55 244.4-5.86 244.5-3.03L244.5-3.03Q245.28-2.88 247.48-2.69 249.67-2.49 250.21-2.39L250.21-2.39 250.11 0.15Q248.65 0.1 245.48 0.1L245.48 0.1Q243.82 0.1 240.54 0.12 237.27 0.15 235.91 0.15ZM256.51-19.53L256.51-19.53 256.7-0.2Q255.97 0.2 254.95 0.2L254.95 0.2Q254.16 0.2 253.19-0.05L253.19-0.05Q253.33-3.13 253.38-12.16 253.43-21.19 253.77-25.54L253.77-25.54 255.97-25.05 256.12-22.31Q258.71-25.05 262.07-25.05L262.07-25.05Q263.78-25.05 264.81-24.8 265.83-24.56 266.79-23.61 267.74-22.66 268.23-21.09 268.72-19.53 269.11-16.63 269.5-13.72 269.67-9.84 269.84-5.96 269.89-0.05L269.89-0.05Q269.59 0.05 268.76 0.05L268.76 0.05Q267.01 0.05 266.03-0.39L266.03-0.39Q265.83-1.17 265.83-2.98L265.83-2.98Q265.83-3.91 265.91-6.47 265.98-9.03 265.98-10.45L265.98-10.45Q265.98-12.79 265.81-14.55 265.64-16.31 265.17-18.02 264.71-19.73 263.76-20.65 262.81-21.58 261.39-21.58L261.39-21.58Q259.78-21.58 258.88-21.34 257.97-21.09 257.61-20.75 257.24-20.41 256.51-19.53ZM288.88-23.54L288.88-23.54 288.39-21.58Q283.65-23.54 281.02-23.54L281.02-23.54Q278.67-23.54 277.72-22.83 276.77-22.12 276.77-19.82L276.77-19.82Q276.77-17.97 278.11-16.75 279.45-15.53 281.36-14.82 283.26-14.11 285.19-13.31 287.12-12.5 288.46-10.94 289.81-9.38 289.81-7.08L289.81-7.08Q289.81-3.96 287.51-1.61 285.22 0.73 281.55 0.78L281.55 0.78Q278.87 0.78 276.53-0.34 274.18-1.46 272.81-3.17L272.81-3.17 274.23-4.64Q274.82-4.39 275.96-3.86 277.11-3.32 277.6-3.15 278.09-2.98 279.04-2.78 279.99-2.59 281.07-2.59L281.07-2.59Q283.36-2.59 284.83-3.61 286.29-4.64 286.29-6.49L286.29-6.49Q286.29-7.71 285.61-8.57 284.92-9.42 283.8-9.96 282.68-10.5 281.33-10.99 279.99-11.47 278.65-12.08 277.31-12.7 276.18-13.55 275.06-14.4 274.38-15.87 273.69-17.33 273.69-19.34L273.69-19.34Q273.69-22.27 275.28-24.24 276.87-26.22 279.75-26.22L279.75-26.22Q280.87-26.22 282.29-25.88 283.7-25.54 284.53-25.24 285.36-24.95 287-24.29 288.63-23.63 288.88-23.54ZM306.11-23.63L306.11-23.63 306.65-21.44Q305.33-21.34 302.6-20.92 299.86-20.51 298.5-20.41L298.5-20.41Q298.74-18.7 298.79-15.92 298.84-13.13 298.91-11.11 298.98-9.08 299.35-7.06 299.72-5.03 300.86-3.96 302.01-2.88 303.96-2.88L303.96-2.88Q305.43-2.88 307.63-3.56L307.63-3.56Q308.55-1.76 308.99-0.93L308.99-0.93Q305.14 0.44 301.18 0.44L301.18 0.44Q299.72 0.44 298.64-0.44 297.57-1.32 296.98-2.64 296.4-3.96 296.03-5.98 295.66-8.01 295.57-9.81 295.47-11.62 295.47-13.96L295.47-13.96Q295.47-15.23 295.49-17.48 295.52-19.73 295.52-20.56L295.52-20.56Q295.03-20.51 293.22-20.48 291.42-20.46 291.12-20.46L291.12-20.46Q290.78-23.73 290.78-23.83L290.78-23.83Q291.12-23.73 291.9-23.73L291.9-23.73Q292.34-23.73 293.32-23.8 294.3-23.88 294.78-23.88L294.78-23.88Q294.98-23.88 295.3-23.85 295.61-23.83 295.71-23.83L295.71-23.83Q295.91-29.2 296.15-32.57L296.15-32.57 298.35-32.03Q298.4-30.86 298.42-29.52 298.45-28.17 298.47-26.54 298.5-24.9 298.5-24.02L298.5-24.02Q299.76-23.93 302.3-23.83 304.84-23.73 306.11-23.63ZM312.02-25.1L312.02-25.1 314.26-24.61Q314.65-20.61 314.95-12.04 315.24-3.47 315.34-1.42L315.34-1.42Q314.9 0.1 313.63 0.1L313.63 0.1Q312.75 0.1 311.94-0.61 311.14-1.32 310.94-2.34L310.94-2.34Q311.04-4.35 311.33-12.77 311.63-21.19 312.02-25.1ZM312.7-33.84L312.7-33.84Q314.02-33.84 314.9-32.69 315.78-31.54 315.78-30.08L315.78-30.08Q315.78-29 315.27-28.34 314.75-27.69 313.87-27.69L313.87-27.69Q312.51-27.69 311.73-28.81 310.94-29.93 310.94-31.45L310.94-31.45Q310.94-32.52 311.41-33.18 311.87-33.84 312.7-33.84ZM333.11-23.63L333.11-23.63 333.65-21.44Q332.33-21.34 329.59-20.92 326.86-20.51 325.49-20.41L325.49-20.41Q325.74-18.7 325.79-15.92 325.83-13.13 325.91-11.11 325.98-9.08 326.35-7.06 326.71-5.03 327.86-3.96 329.01-2.88 330.96-2.88L330.96-2.88Q332.43-2.88 334.62-3.56L334.62-3.56Q335.55-1.76 335.99-0.93L335.99-0.93Q332.13 0.44 328.18 0.44L328.18 0.44Q326.71 0.44 325.64-0.44 324.56-1.32 323.98-2.64 323.39-3.96 323.03-5.98 322.66-8.01 322.56-9.81 322.46-11.62 322.46-13.96L322.46-13.96Q322.46-15.23 322.49-17.48 322.51-19.73 322.51-20.56L322.51-20.56Q322.03-20.51 320.22-20.48 318.41-20.46 318.12-20.46L318.12-20.46Q317.78-23.73 317.78-23.83L317.78-23.83Q318.12-23.73 318.9-23.73L318.9-23.73Q319.34-23.73 320.32-23.8 321.29-23.88 321.78-23.88L321.78-23.88Q321.98-23.88 322.29-23.85 322.61-23.83 322.71-23.83L322.71-23.83Q322.9-29.2 323.15-32.57L323.15-32.57 325.35-32.03Q325.39-30.86 325.42-29.52 325.44-28.17 325.47-26.54 325.49-24.9 325.49-24.02L325.49-24.02Q326.76-23.93 329.3-23.83 331.84-23.73 333.11-23.63ZM350.68-24.51L350.68-24.51 353.03-24.07 353.03-23.58Q353.03-20.26 353.44-12.35 353.86-4.44 354.2-0.15L354.2-0.15Q353.22 0.24 352.35 0.24L352.35 0.24Q351.56 0.24 350.59 0L350.59 0 350.2-1.27Q347.07 0.49 344.24 0.49L344.24 0.49Q342.14 0.49 340.6-0.49 339.06-1.46 338.23-2.91 337.4-4.35 336.92-6.47 336.43-8.59 336.31-10.33 336.18-12.06 336.18-14.21L336.18-14.21Q336.18-20.46 336.96-25.68L336.96-25.68 339.16-25.2Q339.5-23.58 339.5-21.68L339.5-21.68Q339.5-20.61 339.38-17.97 339.26-15.33 339.26-13.96L339.26-13.96Q339.26-11.57 339.48-9.84 339.7-8.11 340.31-6.47 340.92-4.83 342.19-3.96 343.46-3.08 345.36-3.08L345.36-3.08Q347.51-3.08 350-4.05L350-4.05Q350.1-5.86 350.2-13.31 350.29-20.75 350.68-24.51ZM371.48-23.63L371.48-23.63 372.02-21.44Q370.7-21.34 367.97-20.92 365.23-20.51 363.87-20.41L363.87-20.41Q364.11-18.7 364.16-15.92 364.21-13.13 364.28-11.11 364.35-9.08 364.72-7.06 365.09-5.03 366.23-3.96 367.38-2.88 369.33-2.88L369.33-2.88Q370.8-2.88 373-3.56L373-3.56Q373.92-1.76 374.36-0.93L374.36-0.93Q370.51 0.44 366.55 0.44L366.55 0.44Q365.09 0.44 364.01-0.44 362.94-1.32 362.35-2.64 361.77-3.96 361.4-5.98 361.03-8.01 360.94-9.81 360.84-11.62 360.84-13.96L360.84-13.96Q360.84-15.23 360.86-17.48 360.89-19.73 360.89-20.56L360.89-20.56Q360.4-20.51 358.59-20.48 356.79-20.46 356.49-20.46L356.49-20.46Q356.15-23.73 356.15-23.83L356.15-23.83Q356.49-23.73 357.27-23.73L357.27-23.73Q357.71-23.73 358.69-23.8 359.67-23.88 360.16-23.88L360.16-23.88Q360.35-23.88 360.67-23.85 360.99-23.83 361.08-23.83L361.08-23.83Q361.28-29.2 361.52-32.57L361.52-32.57 363.72-32.03Q363.77-30.86 363.79-29.52 363.82-28.17 363.84-26.54 363.87-24.9 363.87-24.02L363.87-24.02Q365.14-23.93 367.67-23.83 370.21-23.73 371.48-23.63ZM393.84-4.74L393.84-4.74 394.33-2.59Q392.18-1.81 387.96-0.85 383.74 0.1 381.69 0.1L381.69 0.1Q379.59 0.1 378.02-1.29 376.46-2.69 375.68-4.86 374.9-7.03 374.53-9.16 374.17-11.28 374.17-13.33L374.17-13.33Q374.17-25.54 385.2-25.54L385.2-25.54Q387.84-25.54 389.84-23.85 391.84-22.17 391.84-19.48L391.84-19.48Q391.84-18.02 391.04-16.89 390.23-15.77 389.08-15.11 387.94-14.45 386.15-13.92 384.37-13.38 383-13.13 381.64-12.89 379.73-12.6 377.83-12.3 377.1-12.16L377.1-12.16Q377.14-10.74 377.27-9.67 377.39-8.59 377.76-7.35 378.12-6.1 378.73-5.3 379.34-4.49 380.42-3.96 381.49-3.42 382.96-3.42L382.96-3.42Q384.71-3.42 387.25-3.74 389.79-4.05 391.77-4.39 393.75-4.74 393.84-4.74ZM377.29-15.19L377.29-15.19Q383.93-17.09 388.18-19.19L388.18-19.19Q387.84-20.8 387.25-21.53 386.67-22.27 385.49-22.27L385.49-22.27Q382.52-22.27 380.1-20.21 377.68-18.16 377.29-15.19Z" opacity="1" transform="matrix(1,0,0,1,0,0)" fill="#000000" class="wordmark-text-0" data-fill-palette-color="primary" id="text-0"></path></svg></g></svg></g></svg></g></svg></g><g transform="matrix(1,0,0,1,128.30988075770705,0)"><svg viewBox="0 0 138.90023848458586 138.90023848458586" height="138.90023848458586" width="138.90023848458586"><g><svg viewBox="0 0 138.90023848458586 138.90023848458586" height="138.90023848458586" width="138.90023848458586"><g transform="matrix(1,0,0,1,46.376104204873016,36.71101906199982)"><svg viewBox="0 0 46.148030074839824 65.47820036058621" height="65.47820036058621" width="46.148030074839824"><g><svg xmlns="http://www.w3.org/2000/svg" xmlns:xlink="http://www.w3.org/1999/xlink" version="1.1" x="0" y="0" viewBox="18.781999999999996 5.116529100000001 63.512000000000015 90.11547089999999" enable-background="new 0 0 100 100" xml:space="preserve" height="65.47820036058621" width="46.148030074839824" class="icon-cg-0" data-fill-palette-color="accent" id="cg-0"><path d="M35.095 65.335c-0.253 0-0.51-0.025-0.762-0.073-4.033-0.781-5.737-7.131-5.064-18.873 0.492-8.576 2.118-17.045 2.134-17.13l0.089-0.459 19.086 3.695-0.09 0.46C50.227 34.277 44.011 65.335 35.095 65.335zM32.236 29.896c-0.342 1.874-1.612 9.177-2.033 16.555-0.632 11.037 0.858 17.225 4.309 17.893 0.196 0.038 0.387 0.057 0.584 0.057 6.652 0 12.54-22.06 14.383-31.165L32.236 29.896z" fill="#000000" data-fill-palette-color="accent"></path><rect x="30.606" y="64.567" transform="matrix(0.9818 0.1901 -0.1901 0.9818 15.3167 -4.6615)" width="2.707" height="25.903" fill="#000000" data-fill-palette-color="accent"></rect><path d="M39.016 95.232l-20.234-3.918 0.113-0.475c0.069-0.29 0.625-1.742 4.747-1.742 1.622 0 3.622 0.227 5.945 0.677 9.62 1.863 9.617 4.491 9.518 4.999L39.016 95.232zM20.265 90.648l17.676 3.423c-0.56-0.766-2.411-2.193-8.532-3.378-2.264-0.438-4.204-0.66-5.767-0.66C21.729 90.032 20.754 90.359 20.265 90.648z" fill="#000000" data-fill-palette-color="accent"></path><g fill="#006d77" data-fill-palette-color="accent"><path d="M34.902 55.346c-0.051 0-0.102-0.005-0.154-0.016-0.212-0.041-0.396-0.162-0.517-0.342-0.121-0.179-0.165-0.394-0.124-0.606 0.083-0.43 0.5-0.729 0.948-0.64 0.212 0.041 0.396 0.162 0.517 0.342 0.121 0.179 0.165 0.395 0.124 0.606C35.622 55.07 35.288 55.346 34.902 55.346zM34.901 54.194c-0.163 0-0.304 0.117-0.335 0.278-0.018 0.09 0.001 0.18 0.052 0.256 0.051 0.076 0.129 0.127 0.218 0.144 0.184 0.03 0.365-0.089 0.4-0.271 0.018-0.09-0.001-0.18-0.052-0.256-0.051-0.076-0.128-0.127-0.218-0.144C34.944 54.197 34.923 54.194 34.901 54.194z" fill="#000000" data-fill-palette-color="accent"></path></g><g fill="#006d77" data-fill-palette-color="accent"><path d="M41.991 44.751c-0.076 0-0.153-0.007-0.231-0.022-0.316-0.061-0.59-0.242-0.77-0.509-0.18-0.267-0.246-0.589-0.184-0.905 0.124-0.642 0.754-1.085 1.413-0.955 0.316 0.061 0.59 0.242 0.77 0.509 0.18 0.267 0.246 0.589 0.184 0.905C43.064 44.34 42.566 44.751 41.991 44.751zM41.988 42.806c-0.352 0-0.657 0.251-0.723 0.598-0.038 0.194 0.002 0.39 0.113 0.554 0.111 0.163 0.278 0.274 0.471 0.311 0.409 0.084 0.79-0.191 0.865-0.584 0.038-0.194-0.002-0.39-0.113-0.554-0.111-0.163-0.278-0.274-0.471-0.311C42.082 42.811 42.035 42.806 41.988 42.806z" fill="#000000" data-fill-palette-color="accent"></path></g><g fill="#006d77" data-fill-palette-color="accent"><path d="M36.559 36.787c-0.06 0-0.121-0.005-0.183-0.017-0.516-0.1-0.855-0.602-0.755-1.118 0.099-0.507 0.591-0.86 1.118-0.756 0.516 0.1 0.855 0.602 0.756 1.118C37.408 36.462 37.014 36.787 36.559 36.787zM36.557 35.346c-0.232 0-0.433 0.166-0.477 0.395-0.051 0.263 0.121 0.519 0.385 0.57 0.264 0.057 0.52-0.126 0.57-0.385 0.051-0.263-0.122-0.519-0.385-0.57C36.619 35.349 36.588 35.346 36.557 35.346z" fill="#000000" data-fill-palette-color="accent"></path></g><g fill="#006d77" data-fill-palette-color="accent"><circle fill="#000000" cx="38.057" cy="56.935" r="0.72" data-fill-palette-color="accent"></circle><path d="M38.058 57.89c-0.06 0-0.121-0.006-0.183-0.018-0.516-0.1-0.855-0.601-0.755-1.118 0.098-0.507 0.59-0.858 1.118-0.755 0.516 0.1 0.855 0.602 0.755 1.119C38.907 57.565 38.514 57.89 38.058 57.89zM38.056 56.448c-0.232 0-0.432 0.166-0.476 0.395-0.051 0.264 0.121 0.52 0.385 0.571 0.27 0.047 0.521-0.126 0.57-0.385 0.051-0.263-0.121-0.52-0.385-0.571C38.118 56.451 38.087 56.448 38.056 56.448z" fill="#000000" data-fill-palette-color="accent"></path></g><g fill="#006d77" data-fill-palette-color="accent"><path d="M44.286 42.519c-0.051 0-0.103-0.005-0.155-0.015-0.212-0.041-0.395-0.162-0.516-0.342-0.121-0.179-0.165-0.394-0.124-0.606 0.083-0.43 0.506-0.728 0.948-0.641 0.438 0.085 0.726 0.51 0.641 0.948C45.005 42.243 44.672 42.519 44.286 42.519zM44.284 41.368c-0.163 0-0.304 0.116-0.335 0.277-0.017 0.09 0.001 0.181 0.052 0.256 0.051 0.075 0.129 0.126 0.218 0.144 0.191 0.042 0.366-0.088 0.4-0.27 0.036-0.184-0.085-0.364-0.27-0.4C44.328 41.37 44.306 41.368 44.284 41.368z" fill="#000000" data-fill-palette-color="accent"></path></g><path d="M65.982 64.884C65.981 64.884 65.981 64.884 65.982 64.884c-8.917-0.003-15.133-31.058-15.393-32.38l-0.09-0.46 19.086-3.695 0.09 0.459c0.016 0.085 1.642 8.554 2.133 17.13 0.673 11.742-1.03 18.092-5.064 18.873C66.491 64.859 66.235 64.884 65.982 64.884zM51.599 32.783c1.843 9.104 7.731 31.163 14.383 31.165 0 0 0 0 0.001 0 0.193 0 0.389-0.019 0.584-0.057 3.45-0.668 4.94-6.855 4.309-17.893-0.423-7.377-1.691-14.681-2.034-16.555L51.599 32.783z" fill="#000000" data-fill-palette-color="accent"></path><rect x="67.763" y="64.115" transform="matrix(-0.9818 0.1901 -0.1901 -0.9818 151.6207 139.5923)" width="2.707" height="25.903" fill="#000000" data-fill-palette-color="accent"></rect><path d="M62.06 94.781l-0.09-0.459c-0.098-0.508-0.1-3.135 9.519-4.998 2.323-0.449 4.324-0.678 5.947-0.678 4.12 0 4.675 1.451 4.745 1.742l0.113 0.475L62.06 94.781zM77.436 89.581c-1.564 0-3.504 0.223-5.769 0.661-6.12 1.185-7.972 2.611-8.532 3.377l17.681-3.424C80.331 89.911 79.356 89.581 77.436 89.581z" fill="#000000" data-fill-palette-color="accent"></path><g fill="#006d77" data-fill-palette-color="accent"><path d="M64.518 53.604L64.518 53.604c-0.386 0-0.721-0.276-0.795-0.656-0.085-0.438 0.203-0.864 0.64-0.948 0.437-0.085 0.866 0.209 0.949 0.639 0.041 0.213-0.003 0.428-0.123 0.607-0.121 0.18-0.305 0.3-0.517 0.342C64.62 53.599 64.568 53.604 64.518 53.604zM64.52 52.453c-0.022 0-0.044 0.002-0.067 0.006-0.185 0.037-0.307 0.216-0.271 0.4 0.036 0.182 0.209 0.306 0.401 0.271 0.09-0.017 0.167-0.068 0.218-0.144 0.051-0.076 0.07-0.167 0.053-0.257C64.823 52.569 64.683 52.453 64.52 52.453z" fill="#000000" data-fill-palette-color="accent"></path></g><path d="M58.945 44.515c-0.634 0-1.181-0.452-1.301-1.075-0.068-0.348 0.005-0.701 0.203-0.994 0.198-0.294 0.499-0.492 0.846-0.56 0.731-0.14 1.419 0.345 1.554 1.05 0.068 0.348-0.005 0.701-0.203 0.994-0.198 0.294-0.499 0.492-0.847 0.56C59.113 44.507 59.028 44.515 58.945 44.515zM58.947 42.33c-0.055 0-0.11 0.005-0.164 0.016-0.226 0.043-0.42 0.172-0.548 0.362-0.129 0.19-0.175 0.419-0.132 0.643 0.088 0.457 0.534 0.773 1.006 0.68 0.226-0.043 0.42-0.172 0.549-0.362 0.129-0.19 0.175-0.418 0.132-0.643C59.711 42.622 59.357 42.33 58.947 42.33z" fill="#000000" data-fill-palette-color="accent"></path><path d="M62.264 42.089L62.264 42.089c-0.456 0-0.849-0.325-0.936-0.773-0.048-0.251 0.003-0.505 0.146-0.716 0.142-0.211 0.359-0.354 0.61-0.403 0.515-0.103 1.018 0.248 1.117 0.756 0.049 0.25-0.003 0.504-0.146 0.716-0.142 0.211-0.359 0.354-0.609 0.403C62.385 42.083 62.323 42.089 62.264 42.089zM62.266 40.647c-0.031 0-0.062 0.003-0.093 0.009-0.128 0.025-0.238 0.097-0.311 0.205-0.073 0.108-0.1 0.237-0.075 0.365 0.045 0.228 0.246 0.394 0.478 0.394l0 0c0.03 0 0.061-0.003 0.092-0.009 0.128-0.025 0.238-0.098 0.311-0.205 0.073-0.108 0.1-0.237 0.075-0.364C62.698 40.813 62.498 40.647 62.266 40.647z" fill="#000000" data-fill-palette-color="accent"></path><g fill="#006d77" data-fill-palette-color="accent"><path d="M63.018 57.438c-0.455 0-0.848-0.325-0.935-0.773-0.1-0.517 0.238-1.018 0.754-1.119 0.531-0.103 1.021 0.249 1.119 0.755 0.1 0.516-0.238 1.018-0.755 1.118C63.139 57.432 63.078 57.438 63.018 57.438zM63.019 55.997c-0.031 0-0.062 0.003-0.093 0.008-0.263 0.051-0.436 0.308-0.385 0.571 0.05 0.258 0.307 0.431 0.57 0.385 0.264-0.051 0.437-0.307 0.386-0.57C63.452 56.163 63.251 55.997 63.019 55.997z" fill="#000000" data-fill-palette-color="accent"></path></g><path d="M59.087 40.917L59.087 40.917c-0.386 0-0.721-0.275-0.795-0.655-0.085-0.439 0.203-0.864 0.64-0.949 0.444-0.088 0.867 0.211 0.949 0.641 0.085 0.438-0.203 0.863-0.64 0.948C59.189 40.912 59.137 40.917 59.087 40.917zM59.088 39.766c-0.022 0-0.044 0.002-0.066 0.006-0.185 0.036-0.307 0.216-0.271 0.4 0.032 0.16 0.173 0.277 0.336 0.277l0 0c0.021 0 0.043-0.002 0.065-0.006 0.185-0.036 0.307-0.216 0.271-0.4C59.392 39.882 59.25 39.766 59.088 39.766z" fill="#000000" data-fill-palette-color="accent"></path><g fill="#006d77" data-fill-palette-color="accent"><path d="M68.107 57.453c-0.648 0-1.209-0.464-1.333-1.101-0.142-0.736 0.341-1.451 1.076-1.593 0.758-0.153 1.454 0.355 1.593 1.077 0.142 0.735-0.341 1.449-1.076 1.592C68.278 57.445 68.192 57.453 68.107 57.453zM68.108 55.201c-0.056 0-0.113 0.005-0.17 0.016-0.483 0.093-0.8 0.563-0.707 1.045 0.093 0.475 0.563 0.799 1.045 0.707 0.483-0.094 0.8-0.563 0.707-1.045C68.902 55.505 68.535 55.201 68.108 55.201z" fill="#000000" data-fill-palette-color="accent"></path></g><g fill="#006d77" data-fill-palette-color="accent"><circle fill="#000000" cx="66.751" cy="32.262" r="0.58" data-fill-palette-color="accent"></circle><path d="M66.75 33.071L66.75 33.071c-0.386 0-0.721-0.276-0.794-0.656-0.041-0.212 0.003-0.428 0.123-0.607 0.121-0.179 0.305-0.3 0.517-0.342 0.446-0.086 0.866 0.211 0.948 0.641 0.085 0.438-0.203 0.863-0.64 0.948C66.853 33.067 66.801 33.071 66.75 33.071zM66.751 31.92c-0.021 0-0.043 0.002-0.065 0.006-0.09 0.017-0.167 0.068-0.218 0.144-0.051 0.076-0.07 0.167-0.053 0.257 0.031 0.16 0.172 0.277 0.335 0.277l0 0c0.022 0 0.043-0.002 0.065-0.006 0.185-0.036 0.307-0.216 0.271-0.4C67.055 32.036 66.915 31.92 66.751 31.92z" fill="#000000" data-fill-palette-color="accent"></path></g><rect x="36.794" y="23.289" transform="matrix(0.5027 0.8645 -0.8645 0.5027 41.7514 -25.2965)" width="12.136" height="0.701" fill="#000000" data-fill-palette-color="accent"></rect><rect x="36.146" y="16.415" transform="matrix(0.1255 0.9921 -0.9921 0.1255 58.4729 -32.804)" width="23.397" height="0.701" fill="#000000" data-fill-palette-color="accent"></rect><rect x="64.696" y="17.85" transform="matrix(0.422 0.9066 -0.9066 0.422 60.8095 -44.1701)" width="0.701" height="15.513" fill="#000000" data-fill-palette-color="accent"></rect><rect x="49.37" y="38.505" transform="matrix(0.998 0.0625 -0.0625 0.998 2.9132 -3.0175)" width="0.702" height="13.165" fill="#000000" data-fill-palette-color="accent"></rect><rect x="26.951" y="24.921" transform="matrix(0.8645 0.5027 -0.5027 0.8645 17.5749 -14.6411)" width="17.976" height="0.701" fill="#000000" data-fill-palette-color="accent"></rect><rect x="53.209" y="15.027" transform="matrix(0.963 0.2694 -0.2694 0.963 7.5709 -13.6612)" width="0.702" height="11.454" fill="#000000" data-fill-palette-color="accent"></rect><rect x="47.965" y="47.313" transform="matrix(0.2129 0.9771 -0.9771 0.2129 88.1162 -14.0591)" width="9.638" height="0.701" fill="#000000" data-fill-palette-color="accent"></rect><rect x="59.594" y="10.017" transform="matrix(0.8031 0.5958 -0.5958 0.8031 24.0044 -31.6839)" width="0.701" height="20.926" fill="#000000" data-fill-palette-color="accent"></rect><g fill="#006d77" data-fill-palette-color="accent"><circle fill="#000000" cx="35.7" cy="58.878" r="0.58" data-fill-palette-color="accent"></circle><path d="M35.701 59.688c-0.051 0-0.102-0.005-0.154-0.016-0.438-0.086-0.726-0.511-0.641-0.949 0.084-0.43 0.507-0.726 0.948-0.64 0.438 0.084 0.726 0.51 0.641 0.949C36.422 59.412 36.087 59.688 35.701 59.688zM35.7 58.535c-0.163 0-0.304 0.117-0.335 0.278-0.036 0.184 0.086 0.364 0.271 0.401 0.179 0.032 0.364-0.09 0.4-0.271 0.036-0.185-0.085-0.365-0.27-0.401C35.744 58.538 35.722 58.535 35.7 58.535z" fill="#000000" data-fill-palette-color="accent"></path></g><g fill="#006d77" data-fill-palette-color="accent"><path d="M34.27 33.847c-0.051 0-0.103-0.005-0.154-0.015-0.438-0.085-0.726-0.51-0.641-0.948 0.084-0.43 0.505-0.727 0.948-0.641 0.438 0.085 0.726 0.511 0.641 0.948C34.991 33.571 34.657 33.847 34.27 33.847zM34.27 32.696c-0.163 0-0.304 0.116-0.335 0.277-0.036 0.184 0.085 0.364 0.27 0.4 0.187 0.041 0.366-0.088 0.4-0.27 0.036-0.185-0.086-0.365-0.271-0.4C34.313 32.698 34.291 32.696 34.27 32.696z" fill="#000000" data-fill-palette-color="accent"></path></g></svg></g></svg></g><g><path d="M2.021 51.91v0l-0.702-0.068 1.475-5.68c0.086-0.245 0.238-0.423 0.455-0.535 0.224-0.11 0.431-0.134 0.621-0.073v0c0.127 0.041 0.224 0.128 0.293 0.263 0.064 0.126 0.074 0.29 0.03 0.492v0l-0.923 2.407c3.518 0.861 6.702 1.688 9.55 2.481v0c0.263 0.183 0.355 0.394 0.278 0.635v0c-0.057 0.177-0.182 0.326-0.374 0.445-0.199 0.118-0.406 0.163-0.621 0.136v0c-0.519-0.188-1.314-0.455-2.384-0.8v0c-0.399-0.129-0.998-0.318-1.798-0.569-0.8-0.251-1.399-0.441-1.799-0.569v0c-1.159-0.374-2.198-0.729-3.116-1.068v0c-0.435 1.069-0.764 1.903-0.985 2.503z" fill="#000000" data-fill-palette-color="accent"></path><path d="M4.688 42.082v0l0.512-0.642c0.391 0.154 1.006 0.418 1.845 0.79 0.843 0.381 1.425 0.637 1.746 0.766v0c-0.295-0.749-0.277-1.476 0.054-2.18v0c0.294-0.626 0.772-1.063 1.433-1.312 0.661-0.248 1.361-0.198 2.102 0.15v0l4.561 2.144c0.004 0.149-0.037 0.313-0.122 0.494v0c-0.096 0.205-0.205 0.381-0.326 0.531v0c-0.072-0.034-0.182-0.089-0.33-0.167-0.154-0.08-0.267-0.136-0.339-0.17v0c-0.361-0.17-0.992-0.448-1.891-0.834-0.89-0.389-1.634-0.724-2.23-1.004v0c-0.917-0.255-1.544-0.024-1.881 0.693v0c-0.15 0.319-0.211 0.669-0.184 1.049 0.03 0.389 0.127 0.707 0.291 0.953v0c0.595 0.25 1.483 0.646 2.663 1.186 1.18 0.54 2.033 0.923 2.559 1.148v0c-0.063 0.243-0.131 0.442-0.204 0.598v0c-0.11 0.235-0.232 0.416-0.366 0.545v0c-0.443-0.23-1.155-0.576-2.137-1.038v0c-0.434-0.204-1.233-0.576-2.398-1.116-1.168-0.534-2.169-1.001-3.003-1.4-0.834-0.399-1.619-0.794-2.355-1.184z" fill="#000000" data-fill-palette-color="accent"></path><path d="M20.541 33.587v0l0.655 0.24c-0.116 0.466-0.334 1.123-0.655 1.971-0.321 0.849-0.598 1.45-0.833 1.806v0c-0.242 0.367-0.577 0.608-1.005 0.725-0.424 0.111-0.869 0.108-1.334-0.008-0.469-0.11-0.91-0.258-1.322-0.442-0.416-0.179-0.805-0.387-1.166-0.626v0c-2.132-1.407-2.563-3.074-1.291-5.001v0c0.304-0.461 0.719-0.769 1.244-0.925 0.525-0.156 1.024-0.078 1.496 0.234v0c0.255 0.169 0.435 0.386 0.537 0.653 0.108 0.271 0.152 0.543 0.131 0.816-0.019 0.282-0.084 0.61-0.194 0.984-0.111 0.373-0.223 0.694-0.336 0.962-0.119 0.264-0.263 0.58-0.433 0.946-0.164 0.37-0.278 0.626-0.34 0.768v0c0.257 0.154 0.488 0.282 0.691 0.384 0.194 0.104 0.424 0.196 0.691 0.277 0.261 0.076 0.495 0.107 0.703 0.093 0.214-0.01 0.431-0.079 0.65-0.205 0.213-0.13 0.404-0.323 0.573-0.578v0c0.202-0.305 0.421-0.699 0.659-1.18 0.238-0.481 0.442-0.912 0.614-1.292 0.166-0.385 0.255-0.585 0.265-0.602zM14.937 36.118v0c0.433-1.381 0.711-2.564 0.836-3.55v0c-0.324-0.126-0.582-0.181-0.776-0.165-0.197 0.021-0.362 0.132-0.494 0.332v0c-0.344 0.522-0.475 1.113-0.393 1.773 0.077 0.657 0.353 1.193 0.827 1.61z" fill="#000000" data-fill-palette-color="accent"></path><path d="M25.498 16.111v0l0.012 0.933c-0.984 0.095-1.764 0.404-2.339 0.928v0c-0.379 0.345-0.621 0.731-0.726 1.16-0.11 0.433-0.117 0.84-0.023 1.221 0.09 0.386 0.275 0.811 0.555 1.277 0.28 0.465 0.542 0.852 0.786 1.16 0.24 0.303 0.535 0.647 0.884 1.031v0c0.345 0.379 0.808 0.745 1.389 1.097 0.577 0.357 1.22 0.59 1.932 0.699 0.715 0.114 1.292-0.029 1.729-0.427v0c0.477-0.434 0.977-1.348 1.5-2.742v0c0.228 0.053 0.576 0.173 1.043 0.36v0c-0.355 1.528-0.906 2.633-1.654 3.314v0c-0.487 0.443-1.064 0.699-1.732 0.766-0.672 0.072-1.327-0.015-1.965-0.262-0.648-0.247-1.259-0.559-1.836-0.935-0.575-0.385-1.067-0.802-1.474-1.249v0c-0.448-0.492-0.845-1.003-1.192-1.533-0.347-0.539-0.642-1.125-0.885-1.758-0.243-0.633-0.315-1.261-0.215-1.883 0.109-0.621 0.417-1.163 0.924-1.623v0c0.438-0.399 0.96-0.734 1.566-1.007 0.606-0.273 1.18-0.448 1.721-0.527z" fill="#000000" data-fill-palette-color="accent"></path><path d="M32.117 19.684v0c-0.233-0.34-0.455-0.741-0.666-1.202-0.211-0.461-0.4-0.968-0.57-1.521-0.169-0.553-0.214-1.083-0.133-1.59 0.079-0.497 0.307-0.876 0.686-1.135v0c0.812-0.556 1.713-0.637 2.702-0.241 0.989 0.396 1.789 1.041 2.402 1.936v0c0.259 0.379 0.476 0.783 0.649 1.212 0.183 0.431 0.313 0.887 0.391 1.366 0.078 0.479 0.043 0.946-0.105 1.402-0.157 0.454-0.433 0.845-0.83 1.173v0c-0.845 0.426-1.671 0.503-2.477 0.233-0.806-0.271-1.489-0.815-2.049-1.633zM31.96 14.844v0c-0.268 0.232-0.331 0.67-0.189 1.315 0.143 0.644 0.347 1.226 0.614 1.744 0.267 0.519 0.524 0.96 0.772 1.322v0c0.323 0.472 0.768 0.809 1.333 1.011 0.565 0.202 1.029 0.178 1.392-0.07v0c0.264-0.18 0.43-0.444 0.499-0.79 0.075-0.35 0.071-0.714-0.01-1.093-0.086-0.385-0.199-0.75-0.341-1.097-0.146-0.343-0.3-0.633-0.462-0.87v0c-0.474-0.692-1.041-1.19-1.701-1.495-0.666-0.302-1.302-0.294-1.907 0.023z" fill="#000000" data-fill-palette-color="accent"></path><path d="M42.284 8.737v0l0.222 0.625c-0.408 0.137-0.749 0.273-1.022 0.41v0c-0.631 0.315-1.061 0.764-1.291 1.347-0.221 0.586-0.276 1.175-0.166 1.768 0.11 0.592 0.322 1.204 0.637 1.835v0c0.146 0.292 0.293 0.542 0.442 0.75 0.152 0.214 0.33 0.408 0.535 0.58 0.205 0.173 0.442 0.267 0.709 0.282 0.265 0.024 0.549-0.04 0.853-0.191v0c0.405-0.202 0.878-0.535 1.42-0.999v0c0.155-0.167 0.289-0.278 0.402-0.335v0c0.22-0.11 0.479 0.081 0.776 0.572v0c-0.676 0.657-1.356 1.157-2.041 1.498v0c-1 0.499-1.798 0.592-2.392 0.28-0.598-0.319-1.17-1.026-1.717-2.121v0c-0.321-0.643-0.556-1.225-0.704-1.746-0.157-0.524-0.23-1.049-0.218-1.575 0.012-0.527 0.172-1.004 0.479-1.433 0.307-0.428 0.761-0.792 1.362-1.092v0c0.679-0.339 1.25-0.49 1.714-0.455z" fill="#000000" data-fill-palette-color="accent"></path><path d="M53.22 12.834v0l-1.339 0.433c-0.483-0.234-1.173-0.643-2.073-1.226-0.905-0.581-1.471-0.934-1.698-1.059v0l1.036 2.989c0.018 0.318-0.098 0.52-0.349 0.607v0c-0.176 0.061-0.367 0.05-0.572-0.034-0.214-0.088-0.374-0.226-0.481-0.414v0c-0.313-1.004-0.869-2.66-1.669-4.967-0.802-2.313-1.358-3.98-1.669-4.998v0l0.952-0.119c0.141 0.388 0.432 1.174 0.871 2.36 0.441 1.192 0.774 2.08 0.997 2.664v0l2.622-3.802 0.471 0.565c-0.687 0.984-1.435 2.3-2.245 3.947v0c0.356 0.194 1.167 0.676 2.435 1.448 1.276 0.776 2.18 1.311 2.711 1.606z" fill="#000000" data-fill-palette-color="accent"></path><path d="M57.827 4.244v0l0.306 0.64c-0.27 0.076-0.676 0.215-1.219 0.415-0.543 0.201-0.952 0.343-1.226 0.427v0c0.124 0.335 0.248 0.788 0.373 1.36 0.132 0.571 0.246 1.06 0.344 1.468 0.099 0.414 0.231 0.822 0.396 1.222 0.158 0.402 0.377 0.69 0.658 0.863 0.279 0.166 0.621 0.208 1.024 0.124v0c0.3-0.062 0.66-0.208 1.082-0.437v0c0.266 0.332 0.462 0.574 0.588 0.724v0c-0.73 0.443-1.503 0.749-2.318 0.917v0c-0.3 0.062-0.579 0.025-0.838-0.111-0.251-0.131-0.467-0.321-0.648-0.57-0.173-0.243-0.341-0.565-0.505-0.965-0.158-0.402-0.285-0.787-0.382-1.154-0.096-0.367-0.194-0.792-0.294-1.275v0c-0.054-0.261-0.128-0.619-0.222-1.075-0.089-0.464-0.151-0.781-0.187-0.95v0c-0.096 0.027-0.33 0.082-0.699 0.166-0.37 0.083-0.584 0.131-0.643 0.143v0c-0.211-0.656-0.318-0.994-0.322-1.014v0c0.076 0.005 0.192-0.009 0.348-0.041v0c0.091-0.019 0.236-0.056 0.436-0.111 0.198-0.061 0.346-0.102 0.443-0.122v0c0.039-0.008 0.092-0.016 0.158-0.023 0.067-0.007 0.11-0.012 0.13-0.016v0c-0.189-1.109-0.329-2.015-0.42-2.716v0l0.709 0.026c0.063 0.238 0.126 0.494 0.189 0.766 0.057 0.274 0.123 0.579 0.2 0.917 0.075 0.331 0.132 0.588 0.169 0.77v0c0.265-0.034 0.66-0.096 1.185-0.184 0.525-0.088 0.92-0.15 1.185-0.184z" fill="#000000" data-fill-palette-color="accent"></path><path d="M62.281 4.418v0l-0.365-0.75c0.242-0.288 0.559-0.529 0.949-0.723 0.397-0.195 0.791-0.309 1.183-0.342v0c1.723-0.149 2.714 1.265 2.97 4.241v0c0.035 0.404 0.064 1.006 0.086 1.806 0.022 0.799 0.051 1.398 0.085 1.795v0c-0.052 0.325-0.194 0.498-0.426 0.518v0c-0.186 0.016-0.363-0.062-0.531-0.235-0.169-0.172-0.262-0.368-0.281-0.586v0c-0.006-0.073-0.008-0.126-0.004-0.16v0c-0.577 0.664-1.22 1.027-1.93 1.088v0c-0.544 0.047-1.034-0.108-1.472-0.464-0.431-0.357-0.672-0.817-0.72-1.38v0c-0.081-0.941 0.213-1.828 0.882-2.661 0.677-0.826 1.482-1.28 2.417-1.361v0c0.04-0.003 0.08-0.004 0.12 0 0.04 0.003 0.091 0.006 0.151 0.007 0.054 0.009 0.098 0.012 0.131 0.009v0c-0.183-1.186-0.708-1.742-1.577-1.667v0c-0.51 0.044-1.067 0.333-1.668 0.865zM65.896 8.924v0c-0.041-0.711-0.078-1.252-0.11-1.623v0c-0.026-0.305-0.073-0.732-0.141-1.28v0l-0.129 0.011c-0.721 0.076-1.357 0.404-1.909 0.986-0.551 0.575-0.794 1.241-0.729 1.997v0c0.028 0.325 0.15 0.578 0.366 0.759 0.215 0.175 0.466 0.25 0.751 0.226v0c0.451-0.039 1.084-0.397 1.901-1.076z" fill="#000000" data-fill-palette-color="accent"></path><path d="M70.605 2.742v0l0.707 0.159c0.069 0.839 0.121 2.158 0.157 3.954 0.036 1.797 0.061 2.909 0.075 3.335v0c-0.091 0.318-0.269 0.475-0.536 0.472v0c-0.186-0.003-0.362-0.078-0.526-0.227-0.171-0.149-0.275-0.333-0.312-0.553v0c0.026-0.419 0.08-1.509 0.164-3.271 0.09-1.762 0.181-3.052 0.271-3.869zM70.852 0v0c0.279 0.004 0.511 0.127 0.694 0.369 0.176 0.242 0.263 0.516 0.258 0.822v0c-0.003 0.226-0.059 0.408-0.167 0.546-0.108 0.138-0.256 0.206-0.442 0.204v0c-0.286-0.004-0.507-0.127-0.664-0.368-0.163-0.235-0.243-0.512-0.238-0.832v0c0.003-0.226 0.055-0.405 0.157-0.537 0.095-0.138 0.229-0.207 0.402-0.204z" fill="#000000" data-fill-palette-color="accent"></path><path d="M74.674 10.1l1.186-9.714 0.693 0.211-0.532 9.911c-0.114 0.311-0.303 0.454-0.569 0.432v0c-0.186-0.016-0.355-0.104-0.508-0.265-0.16-0.161-0.25-0.352-0.27-0.575z" fill="#000000" data-fill-palette-color="accent"></path><path d="M84.357 12.556v0l0.184-0.737c0.943 0.116 1.525 0.203 1.744 0.26v0c0.112-0.335 0.264-0.834 0.458-1.498v0c0.257-0.881 0.607-2.162 1.049-3.842 0.447-1.672 0.746-2.78 0.899-3.325v0l-1.472-0.513 0.153-0.881c0.399 0.13 1.019 0.319 1.862 0.565v0c0.862 0.252 1.503 0.442 1.923 0.572v0l-0.168 0.752c-0.187 0.022-0.435-0.006-0.745-0.083-0.312-0.07-0.507-0.114-0.586-0.129v0c-0.048 0.284-0.232 0.983-0.549 2.095-0.323 1.105-0.681 2.331-1.075 3.679-0.394 1.348-0.664 2.308-0.811 2.882v0c0.152 0.072 0.443 0.192 0.873 0.359 0.428 0.173 0.693 0.286 0.796 0.337v0l-0.253 0.758c-0.29-0.099-0.754-0.241-1.393-0.428v0c-0.332-0.097-0.828-0.238-1.487-0.424-0.66-0.186-1.127-0.319-1.402-0.399z" fill="#000000" data-fill-palette-color="accent"></path><path d="M94.322 9.392v0l-2.322 5.617c-0.172 0.014-0.359-0.023-0.562-0.108v0c-0.147-0.062-0.305-0.159-0.474-0.289v0c0.281-0.575 0.795-1.733 1.543-3.476 0.751-1.734 1.336-3.007 1.754-3.82v0l0.581 0.421-0.299 0.805c0.726-0.313 1.413-0.332 2.062-0.056v0c0.331 0.141 0.585 0.274 0.763 0.4 0.175 0.132 0.315 0.329 0.421 0.592 0.106 0.262 0.141 0.562 0.105 0.901-0.03 0.342-0.127 0.81-0.294 1.404-0.163 0.588-0.386 1.264-0.666 2.027-0.287 0.76-0.666 1.712-1.138 2.856v0c-0.072-0.002-0.187-0.036-0.347-0.104v0c-0.337-0.143-0.582-0.298-0.735-0.464v0c0.028-0.169 0.117-0.428 0.265-0.777v0c0.075-0.178 0.225-0.512 0.448-1.002 0.227-0.482 0.398-0.861 0.516-1.137v0c0.193-0.453 0.342-0.856 0.448-1.208 0.113-0.35 0.193-0.71 0.242-1.079 0.055-0.367 0.028-0.678-0.08-0.934-0.108-0.256-0.3-0.442-0.576-0.559v0c-0.306-0.13-0.557-0.212-0.752-0.245-0.192-0.024-0.339-0.018-0.442 0.019-0.096 0.039-0.25 0.111-0.461 0.216z" fill="#000000" data-fill-palette-color="accent"></path><path d="M105.965 14.011v0l-0.445 0.456c-0.642-0.861-1.201-1.432-1.676-1.713v0c-0.423-0.251-0.758-0.365-1.004-0.341-0.25 0.03-0.497 0.251-0.742 0.663v0c-0.197 0.332-0.241 0.681-0.133 1.047 0.117 0.363 0.308 0.713 0.574 1.048 0.269 0.33 0.532 0.668 0.791 1.014 0.261 0.356 0.428 0.745 0.502 1.168 0.08 0.426-0.003 0.846-0.247 1.258v0c-0.336 0.567-0.837 0.935-1.502 1.105-0.663 0.179-1.327 0.079-1.992-0.3v0c-0.486-0.288-0.877-0.66-1.173-1.113-0.305-0.451-0.488-0.905-0.552-1.36v0l0.612-0.171c0.082 0.11 0.197 0.275 0.345 0.495 0.152 0.214 0.26 0.363 0.326 0.448 0.075 0.083 0.188 0.192 0.339 0.329 0.148 0.142 0.316 0.269 0.505 0.381v0c0.418 0.248 0.814 0.355 1.189 0.322 0.372-0.027 0.656-0.206 0.854-0.538v0c0.132-0.223 0.181-0.449 0.147-0.679-0.029-0.226-0.114-0.447-0.257-0.663-0.152-0.214-0.321-0.438-0.507-0.671-0.189-0.228-0.375-0.47-0.556-0.725-0.172-0.257-0.315-0.519-0.427-0.787-0.114-0.277-0.152-0.585-0.113-0.925 0.03-0.338 0.152-0.687 0.366-1.048v0c0.312-0.526 0.717-0.882 1.214-1.067 0.497-0.185 1.005-0.123 1.526 0.185v0c0.2 0.119 0.412 0.283 0.635 0.493 0.214 0.212 0.384 0.39 0.508 0.534 0.115 0.145 0.284 0.362 0.508 0.649 0.226 0.297 0.354 0.465 0.385 0.506z" fill="#000000" data-fill-palette-color="accent"></path><path d="M112.262 18.641v0l-0.29 0.647c-0.233-0.156-0.601-0.376-1.105-0.66-0.504-0.284-0.877-0.503-1.12-0.658v0c-0.175 0.311-0.44 0.699-0.794 1.165-0.35 0.47-0.648 0.874-0.896 1.213-0.251 0.344-0.477 0.708-0.676 1.093-0.204 0.381-0.282 0.734-0.232 1.059 0.054 0.32 0.243 0.608 0.569 0.862v0c0.241 0.188 0.586 0.369 1.034 0.54v0c-0.081 0.418-0.138 0.723-0.172 0.918v0c-0.811-0.27-1.544-0.66-2.199-1.172v0c-0.241-0.188-0.394-0.425-0.458-0.712-0.063-0.277-0.058-0.564 0.015-0.862 0.073-0.289 0.21-0.626 0.408-1.01 0.204-0.381 0.415-0.727 0.633-1.038 0.218-0.311 0.478-0.661 0.781-1.05v0c0.164-0.21 0.389-0.498 0.675-0.865 0.296-0.368 0.497-0.621 0.603-0.757v0c-0.083-0.056-0.276-0.198-0.578-0.427-0.303-0.228-0.478-0.36-0.526-0.397v0c0.364-0.585 0.552-0.886 0.564-0.901v0c0.045 0.061 0.131 0.14 0.257 0.238v0c0.073 0.057 0.196 0.144 0.367 0.261 0.175 0.111 0.302 0.197 0.38 0.258v0c0.031 0.025 0.071 0.06 0.12 0.106 0.048 0.046 0.08 0.075 0.096 0.088v0c0.723-0.862 1.323-1.555 1.799-2.078v0l0.438 0.558c-0.141 0.202-0.295 0.416-0.461 0.64-0.172 0.22-0.362 0.469-0.57 0.746-0.203 0.272-0.363 0.481-0.477 0.627v0c0.198 0.179 0.5 0.441 0.908 0.784 0.407 0.343 0.71 0.605 0.907 0.784z" fill="#000000" data-fill-palette-color="accent"></path><path d="M115.687 21.008v0l0.416 0.593c-0.513 0.668-1.361 1.679-2.542 3.033-1.181 1.355-1.91 2.195-2.185 2.52v0c-0.281 0.175-0.519 0.171-0.714-0.01v0c-0.136-0.127-0.215-0.301-0.237-0.521-0.027-0.225 0.02-0.431 0.141-0.62v0c0.3-0.293 1.074-1.064 2.32-2.312 1.251-1.244 2.185-2.138 2.801-2.683zM117.712 19.143v0c0.204 0.191 0.293 0.437 0.266 0.74-0.032 0.298-0.152 0.558-0.361 0.782v0c-0.154 0.165-0.318 0.263-0.491 0.293-0.173 0.03-0.328-0.019-0.465-0.147v0c-0.209-0.195-0.291-0.435-0.244-0.718 0.037-0.284 0.165-0.542 0.383-0.776v0c0.154-0.165 0.313-0.263 0.477-0.292 0.163-0.039 0.308 0.001 0.435 0.118z" fill="#000000" data-fill-palette-color="accent"></path><path d="M121.46 27.918v0l-0.41 0.579c-0.198-0.198-0.517-0.486-0.956-0.862-0.44-0.376-0.763-0.664-0.97-0.863v0c-0.232 0.271-0.567 0.6-1.006 0.988-0.434 0.393-0.806 0.731-1.114 1.016-0.313 0.289-0.605 0.602-0.875 0.941-0.274 0.334-0.419 0.665-0.433 0.994-0.009 0.325 0.121 0.643 0.39 0.955v0c0.2 0.232 0.503 0.475 0.909 0.732v0c-0.161 0.394-0.276 0.683-0.346 0.866v0c-0.743-0.422-1.386-0.948-1.93-1.577v0c-0.2-0.232-0.304-0.494-0.311-0.787-0.008-0.284 0.053-0.565 0.182-0.843 0.128-0.269 0.327-0.573 0.597-0.911 0.274-0.334 0.548-0.632 0.822-0.896 0.274-0.263 0.597-0.556 0.97-0.877v0c0.201-0.174 0.478-0.413 0.83-0.718 0.362-0.304 0.608-0.512 0.739-0.626v0c-0.07-0.071-0.232-0.248-0.485-0.53-0.253-0.283-0.399-0.447-0.438-0.492v0c0.471-0.503 0.713-0.762 0.729-0.775v0c0.033 0.068 0.101 0.163 0.205 0.284v0c0.061 0.07 0.164 0.179 0.309 0.327 0.15 0.143 0.258 0.252 0.323 0.327v0c0.026 0.03 0.058 0.073 0.097 0.128 0.038 0.055 0.064 0.09 0.077 0.104v0c0.877-0.705 1.599-1.268 2.168-1.689v0l0.322 0.632c-0.178 0.171-0.37 0.35-0.577 0.539-0.211 0.183-0.446 0.39-0.703 0.621-0.252 0.227-0.449 0.401-0.59 0.523v0c0.159 0.214 0.405 0.529 0.738 0.945 0.333 0.416 0.579 0.731 0.737 0.945z" fill="#000000" data-fill-palette-color="accent"></path><path d="M126.297 34.123v0l0.303 0.688-0.132 0.09c-0.571 0.391-1.514 1.091-2.831 2.1-1.317 1.009-2.325 1.797-3.025 2.366v0c-0.188-0.121-0.333-0.256-0.434-0.404v0c-0.094-0.137-0.178-0.306-0.251-0.506v0l0.262-0.325c-0.671-0.331-1.173-0.74-1.509-1.228v0c-0.248-0.362-0.383-0.734-0.402-1.116-0.011-0.38 0.059-0.726 0.207-1.038 0.151-0.321 0.382-0.649 0.693-0.983 0.311-0.335 0.607-0.614 0.889-0.84 0.287-0.229 0.614-0.47 0.981-0.722v0c1.081-0.742 2.118-1.352 3.112-1.832v0l0.266 0.652c-0.238 0.252-0.522 0.491-0.851 0.717v0c-0.181 0.124-0.507 0.332-0.977 0.623-0.47 0.29-0.824 0.517-1.06 0.678v0c-0.417 0.286-0.76 0.55-1.03 0.792-0.275 0.245-0.517 0.516-0.726 0.812-0.214 0.3-0.322 0.612-0.325 0.937 0.002 0.321 0.117 0.646 0.342 0.976v0c0.256 0.373 0.616 0.715 1.08 1.026v0c0.319-0.194 1.128-0.726 2.429-1.593 1.295-0.864 2.292-1.488 2.989-1.87z" fill="#000000" data-fill-palette-color="accent"></path><path d="M130.353 42.167v0l-0.541 0.459c-0.142-0.241-0.38-0.599-0.712-1.073-0.332-0.474-0.574-0.833-0.725-1.077v0c-0.292 0.205-0.699 0.44-1.22 0.708-0.518 0.273-0.962 0.508-1.332 0.707-0.375 0.202-0.736 0.433-1.081 0.694-0.349 0.255-0.571 0.54-0.667 0.855-0.09 0.312-0.043 0.653 0.141 1.023v0c0.136 0.274 0.369 0.585 0.699 0.934v0c-0.254 0.342-0.437 0.593-0.551 0.753v0c-0.615-0.593-1.107-1.262-1.477-2.007v0c-0.136-0.274-0.172-0.554-0.106-0.839 0.063-0.277 0.191-0.534 0.385-0.771 0.191-0.229 0.459-0.474 0.805-0.735 0.349-0.255 0.688-0.476 1.019-0.663 0.331-0.187 0.716-0.39 1.157-0.609v0c0.238-0.119 0.566-0.282 0.983-0.489 0.426-0.204 0.716-0.345 0.871-0.423v0c-0.05-0.086-0.163-0.298-0.338-0.634-0.175-0.337-0.276-0.532-0.302-0.586v0c0.581-0.371 0.88-0.561 0.898-0.569v0c0.015 0.074 0.058 0.183 0.129 0.326v0c0.042 0.083 0.114 0.214 0.218 0.393 0.11 0.176 0.187 0.308 0.231 0.398v0c0.018 0.036 0.039 0.085 0.063 0.147 0.024 0.063 0.04 0.103 0.048 0.121v0c1.024-0.465 1.864-0.831 2.52-1.098v0l0.155 0.693c-0.214 0.122-0.445 0.248-0.693 0.378-0.25 0.124-0.529 0.267-0.835 0.426-0.301 0.157-0.535 0.277-0.702 0.361v0c0.101 0.247 0.261 0.613 0.48 1.098 0.219 0.485 0.379 0.852 0.48 1.099z" fill="#000000" data-fill-palette-color="accent"></path><path d="M128.143 52.927v0l-0.584 0.381c-0.304-0.371-0.7-0.939-1.189-1.703-0.489-0.764-0.805-1.347-0.95-1.748v0c-0.149-0.413-0.143-0.826 0.02-1.238 0.164-0.406 0.432-0.761 0.803-1.065 0.369-0.31 0.751-0.576 1.145-0.796 0.392-0.227 0.791-0.413 1.198-0.56v0c2.403-0.869 3.997-0.217 4.782 1.954v0c0.188 0.519 0.187 1.036-0.002 1.55-0.189 0.514-0.55 0.867-1.082 1.059v0c-0.288 0.104-0.57 0.117-0.845 0.04-0.282-0.075-0.526-0.202-0.732-0.382-0.215-0.184-0.439-0.432-0.673-0.744-0.233-0.312-0.423-0.593-0.57-0.844-0.141-0.253-0.308-0.557-0.5-0.913-0.198-0.353-0.336-0.597-0.413-0.731v0c-0.277 0.114-0.517 0.222-0.721 0.324-0.2 0.093-0.411 0.223-0.634 0.389-0.217 0.163-0.382 0.333-0.496 0.508-0.12 0.178-0.194 0.392-0.223 0.643-0.023 0.249 0.017 0.517 0.121 0.805v0c0.124 0.344 0.308 0.755 0.552 1.233 0.244 0.478 0.467 0.9 0.669 1.265 0.209 0.363 0.317 0.554 0.324 0.573zM129.463 46.921v0c0.848 1.172 1.63 2.103 2.347 2.791v0c0.294-0.184 0.493-0.359 0.596-0.523 0.101-0.171 0.111-0.369 0.029-0.594v0c-0.213-0.588-0.608-1.046-1.187-1.375-0.572-0.331-1.167-0.43-1.785-0.299z" fill="#000000" data-fill-palette-color="accent"></path><path d="M13.873 85.263v0l0.625-0.37 2.173 5.58c0.067 0.251 0.043 0.49-0.073 0.716-0.109 0.224-0.265 0.369-0.468 0.435v0c-0.127 0.041-0.257 0.027-0.391-0.042-0.128-0.071-0.236-0.2-0.324-0.388v0l-0.678-2.549c-3.419 1.386-6.544 2.6-9.375 3.641v0c-0.333 0.01-0.539-0.109-0.618-0.356v0c-0.057-0.177-0.041-0.375 0.049-0.593 0.092-0.212 0.236-0.373 0.43-0.485v0c0.544-0.155 1.361-0.409 2.45-0.761v0c0.405-0.131 1.016-0.329 1.833-0.593 0.815-0.271 1.424-0.471 1.829-0.603v0c1.184-0.383 2.257-0.709 3.219-0.978v0c-0.28-1.147-0.507-2.032-0.681-2.654z" fill="#000000" data-fill-palette-color="accent"></path><path d="M17.347 92.978v0l0.177 0.821c-0.374 0.206-0.981 0.518-1.821 0.936-0.843 0.412-1.42 0.702-1.73 0.87v0c0.777 0.259 1.334 0.747 1.672 1.463v0c0.304 0.644 0.339 1.304 0.106 1.98-0.236 0.685-0.73 1.205-1.482 1.56v0l-4.658 2.196c-0.117-0.092-0.221-0.234-0.312-0.427v0c-0.096-0.205-0.163-0.401-0.2-0.589v0c0.072-0.034 0.187-0.088 0.343-0.162 0.159-0.068 0.278-0.12 0.356-0.157v0c0.367-0.173 0.995-0.487 1.883-0.943 0.885-0.447 1.632-0.814 2.24-1.1v0c0.798-0.553 1.025-1.197 0.679-1.931v0c-0.15-0.319-0.387-0.594-0.709-0.824-0.322-0.231-0.633-0.36-0.933-0.388v0c-0.584 0.305-1.473 0.746-2.665 1.323-1.195 0.571-2.053 0.99-2.573 1.257v0c-0.147-0.203-0.259-0.385-0.336-0.548v0c-0.111-0.235-0.174-0.447-0.191-0.638v0c0.472-0.2 1.207-0.536 2.207-1.007v0c0.445-0.21 1.259-0.597 2.442-1.163 1.174-0.568 2.189-1.051 3.047-1.447 0.857-0.397 1.677-0.757 2.458-1.082z" fill="#000000" data-fill-palette-color="accent"></path><path d="M16.195 110.484v0l-0.486 0.513c-0.392-0.291-0.924-0.757-1.595-1.397-0.662-0.639-1.115-1.141-1.358-1.508v0c-0.25-0.377-0.342-0.787-0.275-1.23 0.06-0.439 0.239-0.856 0.535-1.252 0.296-0.396 0.611-0.752 0.945-1.068 0.333-0.316 0.683-0.596 1.049-0.838v0c2.175-1.44 3.914-1.175 5.218 0.794v0c0.309 0.466 0.432 0.978 0.371 1.537-0.064 0.553-0.335 0.988-0.812 1.304v0c-0.261 0.173-0.539 0.253-0.834 0.241-0.295-0.012-0.572-0.08-0.83-0.204-0.249-0.123-0.527-0.314-0.834-0.573-0.304-0.254-0.559-0.488-0.765-0.703-0.206-0.215-0.446-0.475-0.72-0.78-0.28-0.302-0.474-0.512-0.584-0.63v0c-0.248 0.18-0.459 0.344-0.633 0.491-0.179 0.151-0.358 0.333-0.536 0.546-0.181 0.208-0.308 0.415-0.378 0.622-0.071 0.206-0.091 0.435-0.061 0.686 0.034 0.257 0.138 0.515 0.311 0.776v0c0.206 0.311 0.487 0.675 0.843 1.093 0.353 0.413 0.678 0.776 0.974 1.091 0.292 0.309 0.444 0.472 0.455 0.489zM16.065 104.214v0c1.121 0.958 2.117 1.691 2.988 2.199v0c0.248-0.252 0.406-0.472 0.473-0.66 0.058-0.19 0.017-0.39-0.123-0.602v0c-0.349-0.527-0.85-0.886-1.502-1.075-0.653-0.19-1.265-0.144-1.836 0.138z" fill="#000000" data-fill-palette-color="accent"></path><path d="M33.783 116.028v0l-0.949 0.109c-0.194-0.994-0.587-1.759-1.178-2.295v0c-0.384-0.349-0.802-0.557-1.253-0.624-0.441-0.068-0.854-0.034-1.238 0.102-0.38 0.132-0.79 0.361-1.231 0.689-0.45 0.328-0.82 0.631-1.108 0.909-0.283 0.273-0.604 0.606-0.962 1v0c-0.353 0.389-0.68 0.893-0.979 1.51-0.304 0.622-0.478 1.3-0.523 2.032-0.044 0.732 0.158 1.302 0.606 1.709v0c0.488 0.443 1.465 0.866 2.93 1.271v0c-0.036 0.237-0.126 0.6-0.272 1.087v0c-1.579-0.211-2.752-0.665-3.521-1.362v0c-0.493-0.447-0.807-1.006-0.944-1.678-0.136-0.672-0.113-1.346 0.072-2.024 0.184-0.678 0.442-1.329 0.774-1.953 0.332-0.624 0.704-1.162 1.115-1.615v0c0.456-0.503 0.94-0.957 1.453-1.364 0.508-0.402 1.072-0.761 1.693-1.079 0.621-0.308 1.25-0.438 1.888-0.388 0.643 0.044 1.223 0.301 1.741 0.77v0c0.448 0.407 0.842 0.903 1.181 1.49 0.34 0.596 0.575 1.164 0.705 1.704z" fill="#000000" data-fill-palette-color="accent"></path><path d="M31.187 122.78v0c0.236-0.346 0.537-0.705 0.903-1.075 0.36-0.374 0.772-0.742 1.235-1.103 0.462-0.37 0.946-0.607 1.453-0.712 0.505-0.115 0.953-0.039 1.342 0.227v0c0.824 0.562 1.232 1.388 1.223 2.477-0.006 1.083-0.322 2.084-0.948 3.002v0c-0.262 0.385-0.566 0.741-0.911 1.07-0.345 0.329-0.728 0.619-1.15 0.87-0.425 0.258-0.885 0.399-1.378 0.426-0.489 0.021-0.962-0.101-1.419-0.364v0c-0.724-0.639-1.104-1.393-1.138-2.263-0.044-0.868 0.218-1.719 0.788-2.555zM35.734 120.844v0c-0.325-0.173-0.768-0.073-1.33 0.301-0.556 0.378-1.031 0.791-1.425 1.239-0.39 0.442-0.713 0.851-0.968 1.225v0c-0.33 0.484-0.485 1.03-0.465 1.639 0.016 0.615 0.208 1.048 0.575 1.299v0c0.269 0.184 0.582 0.244 0.94 0.181 0.362-0.059 0.707-0.198 1.034-0.418 0.336-0.222 0.643-0.464 0.918-0.726 0.28-0.268 0.502-0.523 0.667-0.766v0c0.48-0.704 0.738-1.43 0.774-2.178 0.041-0.745-0.199-1.344-0.72-1.796z" fill="#000000" data-fill-palette-color="accent"></path><path d="M45.597 126.036v0l-0.369 0.564c-0.367-0.249-0.69-0.443-0.97-0.582v0c-0.644-0.32-1.273-0.391-1.889-0.214-0.609 0.18-1.123 0.497-1.542 0.951-0.415 0.447-0.784 0.996-1.106 1.645v0c-0.148 0.298-0.262 0.572-0.342 0.822-0.074 0.253-0.119 0.517-0.136 0.791-0.017 0.274 0.051 0.527 0.203 0.758 0.146 0.229 0.375 0.42 0.684 0.574v0c0.411 0.204 0.973 0.383 1.685 0.535v0c0.232 0.026 0.405 0.067 0.518 0.124v0c0.226 0.112 0.233 0.443 0.02 0.991v0c-0.953-0.146-1.78-0.394-2.483-0.743v0c-1.019-0.506-1.583-1.098-1.692-1.777-0.115-0.681 0.107-1.585 0.666-2.711v0c0.323-0.65 0.651-1.199 0.986-1.649 0.332-0.444 0.716-0.822 1.153-1.133 0.434-0.32 0.92-0.483 1.458-0.49 0.536-0.016 1.113 0.129 1.733 0.437v0c0.691 0.343 1.165 0.712 1.423 1.107z" fill="#000000" data-fill-palette-color="accent"></path><path d="M50.699 136.095v0l-1.359-0.499c-0.239-0.49-0.536-1.254-0.89-2.291-0.356-1.03-0.587-1.669-0.691-1.916v0l-1.049 3.048c-0.19 0.265-0.411 0.355-0.663 0.268v0c-0.182-0.063-0.332-0.192-0.447-0.386-0.107-0.199-0.148-0.41-0.12-0.632v0c0.382-1.008 0.978-2.689 1.788-5.042 0.812-2.359 1.413-4.045 1.804-5.058v0l0.841 0.501c-0.124 0.401-0.386 1.215-0.788 2.441-0.397 1.235-0.686 2.156-0.866 2.763v0l4.501-1.396 0.015 0.755c-1.171 0.357-2.6 0.942-4.287 1.754v0c0.167 0.374 0.515 1.275 1.043 2.702 0.531 1.421 0.92 2.417 1.168 2.988z" fill="#000000" data-fill-palette-color="accent"></path><path d="M59.341 130.248v0l0.036 0.72c-0.286-0.031-0.721-0.063-1.306-0.094-0.591-0.033-1.032-0.068-1.322-0.107v0c-0.021 0.369-0.089 0.848-0.202 1.436-0.106 0.583-0.195 1.087-0.269 1.513-0.067 0.428-0.108 0.861-0.123 1.299-0.008 0.44 0.085 0.798 0.279 1.076 0.196 0.271 0.496 0.448 0.9 0.531v0c0.313 0.064 0.711 0.074 1.196 0.03v0c0.118 0.418 0.206 0.721 0.262 0.91v0c-0.867 0.121-1.714 0.098-2.542-0.072v0c-0.306-0.063-0.552-0.208-0.736-0.436-0.191-0.229-0.319-0.497-0.386-0.802-0.068-0.299-0.094-0.668-0.08-1.106 0.008-0.44 0.042-0.851 0.1-1.233 0.058-0.382 0.137-0.821 0.238-1.316v0c0.053-0.261 0.129-0.629 0.226-1.105 0.103-0.468 0.171-0.787 0.206-0.956v0c-0.106-0.015-0.348-0.058-0.727-0.129-0.379-0.071-0.598-0.112-0.657-0.124v0c0.068-0.699 0.104-1.058 0.108-1.078v0c0.068 0.034 0.183 0.068 0.346 0.101v0c0.091 0.019 0.243 0.04 0.456 0.063 0.205 0.028 0.359 0.053 0.463 0.074v0c0.039 0.008 0.091 0.022 0.155 0.042 0.064 0.02 0.106 0.032 0.125 0.036v0c0.276-1.118 0.513-2.024 0.709-2.717v0l0.65 0.306c-0.038 0.25-0.085 0.516-0.142 0.796-0.051 0.282-0.108 0.596-0.173 0.942-0.063 0.34-0.113 0.602-0.15 0.785v0c0.263 0.074 0.656 0.178 1.179 0.312 0.531 0.129 0.924 0.23 1.181 0.303z" fill="#000000" data-fill-palette-color="accent"></path><path d="M62.817 131.544v0l-0.251-0.822c0.294-0.242 0.657-0.429 1.089-0.56 0.431-0.124 0.849-0.169 1.253-0.135v0c1.757 0.148 2.508 1.74 2.252 4.777v0c-0.035 0.418-0.11 1.029-0.225 1.834-0.115 0.805-0.189 1.413-0.223 1.824v0c-0.113 0.311-0.289 0.456-0.528 0.436v0c-0.186-0.016-0.35-0.123-0.494-0.322-0.137-0.198-0.196-0.414-0.175-0.645v0c0.006-0.073 0.014-0.122 0.022-0.149v0c-0.696 0.569-1.408 0.823-2.137 0.762v0c-0.55-0.046-1.014-0.289-1.391-0.728-0.378-0.432-0.542-0.934-0.495-1.504v0c0.082-0.968 0.533-1.811 1.355-2.53 0.821-0.712 1.709-1.028 2.664-0.948v0c0.04 0.003 0.083 0.007 0.129 0.011 0.039 0.01 0.088 0.024 0.147 0.043 0.052 0.011 0.095 0.018 0.128 0.02v0c0.016-1.221-0.417-1.868-1.298-1.942v0c-0.517-0.044-1.124 0.149-1.822 0.578zM65.668 136.702v0c0.081-0.721 0.137-1.27 0.169-1.649v0c0.026-0.312 0.053-0.75 0.081-1.315v0l-0.13-0.011c-0.737-0.049-1.433 0.17-2.088 0.656-0.656 0.492-1.016 1.123-1.081 1.892v0c-0.028 0.332 0.053 0.605 0.242 0.821 0.182 0.216 0.419 0.336 0.71 0.361v0c0.457 0.039 1.156-0.213 2.097-0.755z" fill="#000000" data-fill-palette-color="accent"></path><path d="M70.601 130.656v0l0.721 0.139c0.099 0.857 0.193 2.2 0.28 4.028 0.087 1.835 0.145 2.972 0.171 3.411v0c-0.088 0.321-0.266 0.483-0.532 0.487v0c-0.193 0.003-0.377-0.071-0.552-0.221-0.169-0.144-0.278-0.325-0.327-0.544v0c0.013-0.433 0.04-1.548 0.079-3.345 0.033-1.804 0.086-3.122 0.16-3.955zM70.778 127.849v0c0.279-0.004 0.514 0.115 0.705 0.359 0.197 0.243 0.297 0.521 0.302 0.833v0c0.003 0.226-0.05 0.413-0.162 0.562-0.104 0.141-0.253 0.213-0.446 0.216v0c-0.293 0.004-0.524-0.112-0.694-0.349-0.17-0.237-0.257-0.518-0.262-0.844v0c-0.004-0.233 0.044-0.42 0.141-0.561 0.098-0.141 0.236-0.213 0.416-0.216z" fill="#000000" data-fill-palette-color="accent"></path><path d="M75.297 137.711l-0.523-9.982 0.729 0.096 1.222 10.062c-0.065 0.326-0.23 0.501-0.495 0.524v0c-0.192 0.017-0.381-0.043-0.567-0.181-0.178-0.131-0.3-0.304-0.366-0.519z" fill="#000000" data-fill-palette-color="accent"></path><path d="M86.649 136.552v0l-0.244-0.73c0.875-0.421 1.42-0.667 1.636-0.737v0c-0.088-0.349-0.23-0.862-0.428-1.538v0c-0.263-0.901-0.661-2.195-1.194-3.883-0.54-1.686-0.893-2.803-1.06-3.35v0l-1.546 0.367-0.359-0.841c0.417-0.115 1.057-0.298 1.919-0.549v0c0.881-0.257 1.538-0.441 1.97-0.553v0l0.265 0.733c-0.152 0.121-0.382 0.236-0.689 0.346-0.303 0.102-0.494 0.172-0.573 0.209v0c0.114 0.272 0.339 0.972 0.675 2.101 0.336 1.129 0.704 2.38 1.104 3.753 0.4 1.373 0.695 2.348 0.883 2.923v0c0.167-0.021 0.481-0.074 0.941-0.16 0.465-0.094 0.754-0.147 0.869-0.159v0l0.2 0.794c-0.304 0.075-0.782 0.207-1.433 0.397v0c-0.339 0.099-0.842 0.249-1.511 0.451-0.669 0.202-1.144 0.344-1.425 0.426z" fill="#000000" data-fill-palette-color="accent"></path><path d="M92.67 127.888v0l2.476 5.682c-0.11 0.133-0.266 0.243-0.468 0.328v0c-0.153 0.065-0.338 0.115-0.555 0.149v0c-0.224-0.613-0.708-1.814-1.452-3.601-0.747-1.779-1.268-3.108-1.562-3.988v0l0.711-0.139 0.38 0.792c0.286-0.757 0.759-1.276 1.421-1.556v0c0.337-0.143 0.617-0.233 0.839-0.27 0.223-0.037 0.467 0.001 0.731 0.113 0.268 0.103 0.513 0.288 0.735 0.556 0.231 0.271 0.506 0.674 0.827 1.209 0.315 0.538 0.654 1.183 1.016 1.933 0.355 0.753 0.785 1.705 1.288 2.858v0c-0.051 0.05-0.156 0.11-0.315 0.177v0c-0.349 0.148-0.638 0.217-0.867 0.205v0c-0.102-0.138-0.228-0.384-0.379-0.739v0c-0.075-0.178-0.215-0.523-0.418-1.037-0.201-0.507-0.361-0.902-0.481-1.184v0c-0.195-0.459-0.38-0.854-0.556-1.184-0.185-0.334-0.395-0.649-0.63-0.947-0.235-0.298-0.482-0.497-0.741-0.596-0.268-0.103-0.54-0.096-0.815 0.02v0c-0.319 0.135-0.556 0.265-0.713 0.39-0.159 0.118-0.262 0.227-0.306 0.325-0.045 0.099-0.1 0.267-0.166 0.504z" fill="#000000" data-fill-palette-color="accent"></path><path d="M102.614 121.288v0l0.192 0.617c-1.084 0.155-1.869 0.376-2.355 0.664v0c-0.429 0.254-0.694 0.5-0.794 0.737-0.103 0.231-0.029 0.558 0.222 0.982v0c0.203 0.343 0.497 0.552 0.882 0.626 0.378 0.077 0.781 0.079 1.208 0.004 0.427-0.075 0.862-0.143 1.306-0.205 0.44-0.067 0.869-0.028 1.288 0.118 0.416 0.14 0.749 0.422 1 0.846v0c0.339 0.572 0.424 1.199 0.254 1.88-0.16 0.683-0.576 1.227-1.248 1.632v0c-0.492 0.292-1.014 0.462-1.566 0.51-0.557 0.052-1.055-0.005-1.493-0.171v0l0.156-0.638c0.136-0.019 0.339-0.042 0.608-0.07 0.264-0.025 0.452-0.047 0.563-0.067 0.109-0.026 0.261-0.069 0.456-0.131 0.198-0.071 0.394-0.164 0.589-0.279v0c0.424-0.251 0.714-0.551 0.871-0.899 0.157-0.348 0.134-0.694-0.069-1.037v0c-0.132-0.223-0.307-0.375-0.525-0.455-0.221-0.086-0.463-0.116-0.727-0.091-0.264 0.025-0.546 0.064-0.846 0.118-0.3 0.054-0.606 0.1-0.916 0.137-0.314 0.031-0.62 0.031-0.918-0.002-0.301-0.038-0.594-0.155-0.879-0.349-0.285-0.194-0.536-0.475-0.754-0.841v0c-0.319-0.538-0.441-1.077-0.365-1.616 0.078-0.534 0.381-0.956 0.907-1.269v0c0.206-0.122 0.459-0.23 0.76-0.322 0.295-0.09 0.535-0.154 0.72-0.195 0.183-0.031 0.461-0.076 0.836-0.135 0.375-0.059 0.587-0.093 0.637-0.099z" fill="#000000" data-fill-palette-color="accent"></path><path d="M108.162 117.094v0l0.572 0.441c-0.209 0.197-0.516 0.507-0.919 0.931-0.409 0.428-0.722 0.74-0.941 0.936v0c0.267 0.256 0.587 0.618 0.96 1.086 0.375 0.459 0.7 0.855 0.977 1.188 0.282 0.329 0.584 0.641 0.908 0.937 0.329 0.292 0.662 0.454 0.999 0.487 0.333 0.027 0.663-0.086 0.988-0.34v0c0.252-0.196 0.519-0.493 0.8-0.889v0c0.395 0.182 0.682 0.312 0.861 0.391v0c-0.471 0.738-1.039 1.367-1.705 1.886v0c-0.247 0.192-0.516 0.284-0.81 0.277-0.298-0.004-0.585-0.08-0.86-0.228-0.272-0.143-0.569-0.362-0.893-0.658-0.329-0.292-0.62-0.584-0.873-0.876-0.253-0.292-0.535-0.638-0.846-1.036v0c-0.164-0.21-0.395-0.506-0.693-0.89-0.289-0.382-0.487-0.641-0.593-0.777v0c-0.08 0.071-0.27 0.227-0.571 0.469-0.3 0.242-0.474 0.382-0.521 0.419v0c-0.487-0.506-0.737-0.767-0.749-0.782v0c0.07-0.029 0.171-0.095 0.302-0.197v0c0.073-0.057 0.188-0.159 0.343-0.306 0.154-0.137 0.274-0.239 0.358-0.304v0c0.031-0.025 0.076-0.055 0.132-0.091 0.057-0.036 0.093-0.06 0.109-0.072v0c-0.671-0.936-1.206-1.704-1.606-2.304v0l0.655-0.295c0.166 0.191 0.337 0.4 0.513 0.625 0.181 0.222 0.383 0.469 0.604 0.743 0.218 0.269 0.384 0.477 0.499 0.624v0c0.227-0.152 0.562-0.383 1.003-0.693 0.443-0.32 0.775-0.553 0.997-0.702z" fill="#000000" data-fill-palette-color="accent"></path><path d="M110.458 114.479v0l0.628-0.38c0.648 0.57 1.617 1.504 2.906 2.803 1.294 1.304 2.099 2.11 2.413 2.418v0c0.149 0.297 0.126 0.537-0.069 0.718v0c-0.141 0.131-0.327 0.2-0.558 0.205-0.221 0.006-0.424-0.055-0.608-0.184v0c-0.28-0.33-1.007-1.176-2.182-2.537-1.184-1.361-2.028-2.376-2.53-3.043zM108.708 112.276v0c0.205-0.19 0.459-0.259 0.763-0.206 0.309 0.049 0.57 0.188 0.783 0.417v0c0.154 0.166 0.24 0.341 0.257 0.525 0.017 0.175-0.045 0.328-0.186 0.459v0c-0.214 0.199-0.464 0.268-0.749 0.206-0.285-0.062-0.538-0.213-0.761-0.451v0c-0.159-0.171-0.249-0.341-0.271-0.511-0.022-0.17 0.033-0.317 0.164-0.439z" fill="#000000" data-fill-palette-color="accent"></path><path d="M116.376 108.766v0l0.645 0.322c-0.167 0.234-0.408 0.597-0.722 1.091-0.318 0.499-0.566 0.866-0.742 1.1v0c0.311 0.2 0.695 0.493 1.152 0.88 0.456 0.378 0.852 0.703 1.187 0.977 0.34 0.268 0.697 0.516 1.072 0.745 0.379 0.223 0.737 0.318 1.075 0.284 0.332-0.038 0.633-0.213 0.903-0.524v0c0.209-0.241 0.414-0.584 0.613-1.027v0c0.422 0.102 0.729 0.174 0.921 0.217v0c-0.319 0.815-0.756 1.542-1.309 2.18v0c-0.205 0.236-0.452 0.379-0.741 0.428-0.293 0.054-0.589 0.035-0.888-0.057-0.294-0.088-0.628-0.245-1.003-0.473-0.379-0.223-0.721-0.453-1.025-0.691-0.305-0.238-0.648-0.522-1.03-0.854v0c-0.201-0.174-0.485-0.421-0.853-0.739-0.358-0.319-0.602-0.535-0.732-0.648v0c-0.065 0.085-0.221 0.275-0.469 0.571-0.248 0.296-0.391 0.466-0.43 0.512v0c-0.576-0.402-0.871-0.61-0.886-0.623v0c0.063-0.042 0.149-0.126 0.258-0.252v0c0.061-0.07 0.154-0.193 0.278-0.367 0.125-0.165 0.222-0.287 0.292-0.367v0c0.026-0.03 0.064-0.068 0.112-0.114 0.049-0.046 0.079-0.076 0.093-0.092v0c-0.839-0.789-1.513-1.439-2.021-1.95v0l0.586-0.417c0.2 0.156 0.408 0.327 0.624 0.515 0.221 0.182 0.466 0.387 0.737 0.612 0.266 0.222 0.469 0.393 0.609 0.516v0c0.194-0.193 0.477-0.484 0.851-0.874 0.373-0.399 0.653-0.693 0.843-0.881z" fill="#000000" data-fill-palette-color="accent"></path><path d="M120.308 102.834v0l0.54-0.537 0.123 0.085c0.586 0.404 1.602 1.047 3.046 1.929 1.441 0.887 2.56 1.562 3.358 2.022v0c-0.046 0.219-0.123 0.408-0.233 0.567v0c-0.094 0.137-0.222 0.275-0.383 0.415v0l-0.41-0.125c-0.065 0.763-0.269 1.394-0.613 1.892v0c-0.253 0.367-0.561 0.627-0.926 0.78-0.355 0.151-0.709 0.214-1.063 0.189-0.356-0.035-0.75-0.137-1.183-0.306-0.433-0.169-0.81-0.348-1.132-0.537-0.316-0.186-0.664-0.409-1.042-0.67v0c-1.101-0.759-2.065-1.524-2.891-2.294v0l0.533-0.493c0.321 0.132 0.651 0.315 0.991 0.549v0c0.186 0.128 0.505 0.364 0.956 0.707 0.451 0.343 0.794 0.595 1.029 0.757v0c0.422 0.291 0.799 0.522 1.133 0.696 0.333 0.173 0.68 0.303 1.04 0.389 0.362 0.096 0.697 0.084 1.006-0.034 0.308-0.119 0.577-0.346 0.807-0.68v0c0.26-0.378 0.457-0.845 0.589-1.4v0c-0.306-0.235-1.109-0.812-2.407-1.731-1.3-0.928-2.256-1.651-2.868-2.17z" fill="#000000" data-fill-palette-color="accent"></path><path d="M124.359 95.914v0l0.705 0.151c-0.104 0.268-0.247 0.68-0.428 1.237-0.184 0.562-0.333 0.979-0.446 1.249v0c0.351 0.116 0.796 0.305 1.335 0.567 0.536 0.253 1 0.47 1.393 0.651 0.396 0.175 0.804 0.327 1.223 0.455 0.423 0.122 0.793 0.125 1.111 0.008 0.312-0.119 0.561-0.363 0.745-0.732v0c0.143-0.286 0.256-0.668 0.339-1.147v0c0.434-0.006 0.75-0.012 0.946-0.018v0c-0.107 0.869-0.349 1.681-0.727 2.437v0c-0.14 0.28-0.343 0.479-0.611 0.598-0.271 0.125-0.562 0.18-0.875 0.166-0.306-0.012-0.67-0.082-1.089-0.21-0.423-0.122-0.811-0.26-1.165-0.414-0.354-0.155-0.757-0.345-1.209-0.571v0c-0.238-0.119-0.574-0.287-1.009-0.504-0.426-0.22-0.716-0.369-0.871-0.446v0c-0.042 0.098-0.146 0.321-0.312 0.669-0.167 0.348-0.263 0.549-0.29 0.603v0c-0.658-0.247-0.995-0.375-1.013-0.383v0c0.051-0.057 0.113-0.159 0.187-0.308v0c0.042-0.083 0.101-0.225 0.178-0.425 0.08-0.19 0.144-0.333 0.192-0.428v0c0.018-0.036 0.045-0.082 0.081-0.139 0.036-0.057 0.058-0.094 0.066-0.111v0c-1.009-0.556-1.823-1.018-2.441-1.387v0l0.463-0.549c0.232 0.101 0.476 0.216 0.733 0.343 0.259 0.122 0.548 0.259 0.866 0.41 0.312 0.149 0.552 0.265 0.718 0.348v0c0.14-0.235 0.342-0.588 0.607-1.058 0.262-0.479 0.461-0.833 0.598-1.062z" fill="#000000" data-fill-palette-color="accent"></path><path d="M133.146 89.92v0l0.702 0.086c-0.001 0.488-0.058 1.193-0.174 2.113-0.119 0.912-0.254 1.575-0.404 1.988v0c-0.155 0.425-0.429 0.743-0.824 0.953-0.389 0.213-0.83 0.318-1.326 0.315-0.495-0.003-0.968-0.044-1.42-0.124-0.452-0.08-0.885-0.194-1.298-0.344v0c-2.451-0.891-3.273-2.447-2.466-4.667v0c0.191-0.525 0.529-0.93 1.015-1.213 0.483-0.277 0.994-0.318 1.531-0.123v0c0.294 0.107 0.524 0.282 0.69 0.527 0.166 0.244 0.276 0.507 0.329 0.789 0.049 0.273 0.061 0.61 0.036 1.011-0.023 0.395-0.06 0.739-0.11 1.033-0.05 0.293-0.116 0.641-0.199 1.042-0.076 0.404-0.129 0.686-0.158 0.845v0c0.292 0.092 0.549 0.164 0.771 0.217 0.228 0.055 0.481 0.09 0.758 0.106 0.275 0.022 0.517 0 0.724-0.066 0.208-0.066 0.404-0.186 0.588-0.36 0.186-0.18 0.332-0.417 0.439-0.711v0c0.127-0.35 0.253-0.793 0.377-1.328 0.122-0.529 0.221-1.006 0.297-1.432 0.074-0.419 0.115-0.638 0.122-0.657zM128.184 93.755v0c0.103-1.471 0.099-2.707-0.011-3.71v0c-0.35-0.049-0.621-0.045-0.811 0.013-0.187 0.067-0.324 0.219-0.41 0.456v0c-0.216 0.594-0.206 1.21 0.029 1.848 0.235 0.638 0.636 1.102 1.203 1.393z" fill="#000000" data-fill-palette-color="accent"></path><path d="M1.399 70.495c0-2.388 1.936-4.323 4.323-4.323 2.388 0 4.323 1.936 4.323 4.323 0 2.388-1.936 4.323-4.323 4.324-2.388 0-4.323-1.936-4.323-4.324z" fill="#000000" data-fill-palette-color="accent"></path><path d="M128.934 70.495c0-2.388 1.936-4.323 4.323-4.323 2.388 0 4.323 1.936 4.324 4.323 0 2.388-1.936 4.323-4.324 4.324-2.388 0-4.323-1.936-4.323-4.324z" fill="#000000" data-fill-palette-color="accent"></path></g></svg></g></svg></g><g></g></svg></g><defs></defs></svg><rect width="395.52" height="199.94992622250837" fill="none" stroke="none" visibility="hidden"></rect></g></svg></g></svg>